<?xml version="1.0" encoding="UTF-8"?>
<svg xmlns="http://www.w3.org/2000/svg" xmlns:xlink="http://www.w3.org/1999/xlink" width="360pt" height="216pt" viewBox="0 0 360 216" version="1.1">
<defs>
<g>
<symbol overflow="visible" id="glyph0-0">
<path style="stroke:none;" d=""/>
</symbol>
<symbol overflow="visible" id="glyph0-1">
<path style="stroke:none;" d="M 5.96875 0 L 5.96875 -0.203125 C 5.671875 -0.40625 5.59375 -0.640625 5.59375 -1.5 C 5.5625 -2.546875 5.40625 -2.875 4.71875 -3.171875 C 5.4375 -3.515625 5.734375 -3.96875 5.734375 -4.703125 C 5.734375 -5.8125 5.03125 -6.40625 3.78125 -6.40625 L 0.8125 -6.40625 L 0.8125 0 L 1.640625 0 L 1.640625 -2.765625 L 3.75 -2.765625 C 4.46875 -2.765625 4.8125 -2.40625 4.796875 -1.625 L 4.796875 -1.046875 C 4.78125 -0.65625 4.859375 -0.265625 4.984375 0 Z M 4.875 -4.578125 C 4.875 -3.828125 4.484375 -3.484375 3.609375 -3.484375 L 1.640625 -3.484375 L 1.640625 -5.6875 L 3.609375 -5.6875 C 4.53125 -5.6875 4.875 -5.296875 4.875 -4.578125 Z M 4.875 -4.578125 "/>
</symbol>
<symbol overflow="visible" id="glyph0-2">
<path style="stroke:none;" d="M 4.515625 -2.09375 C 4.515625 -2.765625 4.453125 -3.1875 4.328125 -3.53125 C 4.03125 -4.28125 3.328125 -4.734375 2.46875 -4.734375 C 1.171875 -4.734375 0.359375 -3.796875 0.359375 -2.28125 C 0.359375 -0.765625 1.15625 0.125 2.453125 0.125 C 3.5 0.125 4.234375 -0.46875 4.421875 -1.40625 L 3.671875 -1.40625 C 3.46875 -0.796875 3.0625 -0.546875 2.46875 -0.546875 C 1.703125 -0.546875 1.140625 -1.03125 1.125 -2.09375 Z M 3.734375 -2.75 C 3.734375 -2.75 3.734375 -2.703125 3.71875 -2.6875 L 1.140625 -2.6875 C 1.203125 -3.515625 1.71875 -4.0625 2.453125 -4.0625 C 3.171875 -4.0625 3.734375 -3.46875 3.734375 -2.75 Z M 3.734375 -2.75 "/>
</symbol>
<symbol overflow="visible" id="glyph0-3">
<path style="stroke:none;" d="M 4.203125 -1.578125 L 3.453125 -1.578125 C 3.328125 -0.84375 2.953125 -0.546875 2.328125 -0.546875 C 1.515625 -0.546875 1.03125 -1.171875 1.03125 -2.265625 C 1.03125 -3.40625 1.515625 -4.0625 2.3125 -4.0625 C 2.921875 -4.0625 3.3125 -3.703125 3.40625 -3.0625 L 4.140625 -3.0625 C 4.0625 -4.1875 3.359375 -4.734375 2.328125 -4.734375 C 1.078125 -4.734375 0.265625 -3.796875 0.265625 -2.265625 C 0.265625 -0.78125 1.0625 0.125 2.3125 0.125 C 3.40625 0.125 4.109375 -0.53125 4.203125 -1.578125 Z M 4.203125 -1.578125 "/>
</symbol>
<symbol overflow="visible" id="glyph0-4">
<path style="stroke:none;" d="M 4.484375 -2.265625 C 4.484375 -3.859375 3.71875 -4.734375 2.390625 -4.734375 C 1.09375 -4.734375 0.3125 -3.859375 0.3125 -2.3125 C 0.3125 -0.75 1.09375 0.125 2.40625 0.125 C 3.6875 0.125 4.484375 -0.75 4.484375 -2.265625 Z M 3.71875 -2.28125 C 3.71875 -1.203125 3.203125 -0.546875 2.40625 -0.546875 C 1.578125 -0.546875 1.078125 -1.1875 1.078125 -2.3125 C 1.078125 -3.40625 1.578125 -4.0625 2.40625 -4.0625 C 3.234375 -4.0625 3.71875 -3.421875 3.71875 -2.28125 Z M 3.71875 -2.28125 "/>
</symbol>
<symbol overflow="visible" id="glyph0-5">
<path style="stroke:none;" d="M 6.6875 0 L 6.6875 -3.453125 C 6.6875 -4.28125 6.234375 -4.734375 5.359375 -4.734375 C 4.75 -4.734375 4.375 -4.5625 3.953125 -4.03125 C 3.671875 -4.53125 3.3125 -4.734375 2.703125 -4.734375 C 2.09375 -4.734375 1.6875 -4.515625 1.296875 -3.953125 L 1.296875 -4.609375 L 0.625 -4.609375 L 0.625 0 L 1.359375 0 L 1.359375 -2.890625 C 1.359375 -3.5625 1.84375 -4.09375 2.4375 -4.09375 C 2.984375 -4.09375 3.296875 -3.765625 3.296875 -3.171875 L 3.296875 0 L 4.015625 0 L 4.015625 -2.890625 C 4.015625 -3.5625 4.515625 -4.09375 5.109375 -4.09375 C 5.640625 -4.09375 5.953125 -3.75 5.953125 -3.171875 L 5.953125 0 Z M 6.6875 0 "/>
</symbol>
<symbol overflow="visible" id="glyph0-6">
<path style="stroke:none;" d="M 4.28125 0 L 4.28125 -3.484375 C 4.28125 -4.25 3.71875 -4.734375 2.828125 -4.734375 C 2.140625 -4.734375 1.703125 -4.484375 1.296875 -3.828125 L 1.296875 -4.609375 L 0.609375 -4.609375 L 0.609375 0 L 1.34375 0 L 1.34375 -2.546875 C 1.34375 -3.484375 1.859375 -4.09375 2.609375 -4.09375 C 3.1875 -4.09375 3.546875 -3.75 3.546875 -3.1875 L 3.546875 0 Z M 4.28125 0 "/>
</symbol>
<symbol overflow="visible" id="glyph0-7">
<path style="stroke:none;" d="M 4.359375 0 L 4.359375 -6.40625 L 3.625 -6.40625 L 3.625 -4.03125 C 3.3125 -4.5 2.828125 -4.734375 2.203125 -4.734375 C 1.015625 -4.734375 0.234375 -3.8125 0.234375 -2.34375 C 0.234375 -0.796875 1 0.125 2.234375 0.125 C 2.875 0.125 3.3125 -0.109375 3.703125 -0.671875 L 3.703125 0 Z M 3.625 -2.28125 C 3.625 -1.21875 3.109375 -0.546875 2.34375 -0.546875 C 1.53125 -0.546875 1 -1.234375 1 -2.3125 C 1 -3.375 1.53125 -4.0625 2.328125 -4.0625 C 3.125 -4.0625 3.625 -3.359375 3.625 -2.28125 Z M 3.625 -2.28125 "/>
</symbol>
<symbol overflow="visible" id="glyph0-8">
<path style="stroke:none;" d=""/>
</symbol>
<symbol overflow="visible" id="glyph0-9">
<path style="stroke:none;" d="M 4.59375 -2.265625 C 4.59375 -3.8125 3.84375 -4.734375 2.625 -4.734375 C 2 -4.734375 1.5 -4.453125 1.15625 -3.921875 L 1.15625 -4.609375 L 0.484375 -4.609375 L 0.484375 1.921875 L 1.21875 1.921875 L 1.21875 -0.546875 C 1.59375 -0.078125 2.03125 0.125 2.625 0.125 C 3.8125 0.125 4.59375 -0.796875 4.59375 -2.265625 Z M 3.828125 -2.28125 C 3.828125 -1.234375 3.296875 -0.546875 2.5 -0.546875 C 1.71875 -0.546875 1.21875 -1.1875 1.21875 -2.265625 C 1.21875 -3.359375 1.71875 -4.0625 2.5 -4.0625 C 3.3125 -4.0625 3.828125 -3.375 3.828125 -2.28125 Z M 3.828125 -2.28125 "/>
</symbol>
<symbol overflow="visible" id="glyph0-10">
<path style="stroke:none;" d="M 1.328125 0 L 1.328125 -6.40625 L 0.59375 -6.40625 L 0.59375 0 Z M 1.328125 0 "/>
</symbol>
<symbol overflow="visible" id="glyph0-11">
<path style="stroke:none;" d="M 4.703125 -0.015625 L 4.703125 -0.578125 C 4.625 -0.546875 4.59375 -0.546875 4.546875 -0.546875 C 4.296875 -0.546875 4.15625 -0.6875 4.15625 -0.921875 L 4.15625 -3.484375 C 4.15625 -4.296875 3.546875 -4.734375 2.421875 -4.734375 C 1.296875 -4.734375 0.609375 -4.3125 0.578125 -3.25 L 1.3125 -3.25 C 1.375 -3.8125 1.703125 -4.0625 2.390625 -4.0625 C 3.046875 -4.0625 3.421875 -3.8125 3.421875 -3.375 L 3.421875 -3.1875 C 3.421875 -2.875 3.234375 -2.75 2.65625 -2.671875 C 1.625 -2.546875 1.453125 -2.5 1.171875 -2.390625 C 0.640625 -2.171875 0.375 -1.765625 0.375 -1.203125 C 0.375 -0.359375 0.953125 0.125 1.875 0.125 C 2.46875 0.125 3.046875 -0.109375 3.453125 -0.546875 C 3.53125 -0.1875 3.84375 0.0625 4.203125 0.0625 C 4.359375 0.0625 4.46875 0.046875 4.703125 -0.015625 Z M 3.421875 -1.59375 C 3.421875 -0.9375 2.75 -0.515625 2.046875 -0.515625 C 1.46875 -0.515625 1.140625 -0.71875 1.140625 -1.21875 C 1.140625 -1.703125 1.453125 -1.90625 2.25 -2.015625 C 3.015625 -2.125 3.171875 -2.15625 3.421875 -2.28125 Z M 3.421875 -1.59375 "/>
</symbol>
<symbol overflow="visible" id="glyph0-12">
<path style="stroke:none;" d="M 2.234375 0 L 2.234375 -0.609375 C 2.140625 -0.59375 2.015625 -0.578125 1.875 -0.578125 C 1.5625 -0.578125 1.484375 -0.671875 1.484375 -1 L 1.484375 -4.015625 L 2.234375 -4.015625 L 2.234375 -4.609375 L 1.484375 -4.609375 L 1.484375 -5.875 L 0.75 -5.875 L 0.75 -4.609375 L 0.125 -4.609375 L 0.125 -4.015625 L 0.75 -4.015625 L 0.75 -0.671875 C 0.75 -0.203125 1.0625 0.0625 1.640625 0.0625 C 1.8125 0.0625 1.984375 0.046875 2.234375 0 Z M 2.234375 0 "/>
</symbol>
<symbol overflow="visible" id="glyph0-13">
<path style="stroke:none;" d="M 2.265625 -4.015625 L 2.265625 -4.609375 L 1.5 -4.609375 L 1.5 -5.328125 C 1.5 -5.640625 1.6875 -5.796875 2.015625 -5.796875 C 2.078125 -5.796875 2.109375 -5.796875 2.265625 -5.78125 L 2.265625 -6.390625 C 2.109375 -6.4375 2 -6.4375 1.859375 -6.4375 C 1.171875 -6.4375 0.78125 -6.046875 0.78125 -5.390625 L 0.78125 -4.609375 L 0.15625 -4.609375 L 0.15625 -4.015625 L 0.78125 -4.015625 L 0.78125 0 L 1.5 0 L 1.5 -4.015625 Z M 2.265625 -4.015625 "/>
</symbol>
<symbol overflow="visible" id="glyph0-14">
<path style="stroke:none;" d="M 2.828125 -3.96875 L 2.828125 -4.71875 C 2.703125 -4.734375 2.640625 -4.734375 2.546875 -4.734375 C 2.0625 -4.734375 1.703125 -4.453125 1.28125 -3.78125 L 1.28125 -4.609375 L 0.609375 -4.609375 L 0.609375 0 L 1.34375 0 L 1.34375 -2.390625 C 1.34375 -3.4375 1.6875 -3.953125 2.828125 -3.96875 Z M 2.828125 -3.96875 "/>
</symbol>
<symbol overflow="visible" id="glyph0-15">
<path style="stroke:none;" d="M 4.03125 -1.296875 C 4.03125 -1.984375 3.65625 -2.328125 2.734375 -2.546875 L 2.03125 -2.703125 C 1.4375 -2.84375 1.171875 -3.046875 1.171875 -3.375 C 1.171875 -3.796875 1.5625 -4.0625 2.15625 -4.0625 C 2.75 -4.0625 3.0625 -3.8125 3.078125 -3.328125 L 3.859375 -3.328125 C 3.84375 -4.234375 3.25 -4.734375 2.1875 -4.734375 C 1.109375 -4.734375 0.40625 -4.1875 0.40625 -3.328125 C 0.40625 -2.609375 0.78125 -2.265625 1.875 -2 L 2.5625 -1.84375 C 3.0625 -1.71875 3.265625 -1.5625 3.265625 -1.234375 C 3.265625 -0.796875 2.84375 -0.546875 2.203125 -0.546875 C 1.546875 -0.546875 1.171875 -0.703125 1.078125 -1.40625 L 0.296875 -1.40625 C 0.328125 -0.34375 0.9375 0.125 2.140625 0.125 C 3.296875 0.125 4.03125 -0.40625 4.03125 -1.296875 Z M 4.03125 -1.296875 "/>
</symbol>
<symbol overflow="visible" id="glyph0-16">
<path style="stroke:none;" d="M 5.09375 -5.6875 L 5.09375 -6.40625 L 0.796875 -6.40625 L 0.796875 0 L 1.609375 0 L 1.609375 -2.921875 L 4.671875 -2.921875 L 4.671875 -3.640625 L 1.609375 -3.640625 L 1.609375 -5.6875 Z M 5.09375 -5.6875 "/>
</symbol>
<symbol overflow="visible" id="glyph0-17">
<path style="stroke:none;" d="M 4.59375 -2.359375 C 4.59375 -3.859375 3.84375 -4.734375 2.625 -4.734375 C 2 -4.734375 1.546875 -4.5 1.203125 -3.984375 L 1.203125 -6.40625 L 0.46875 -6.40625 L 0.46875 0 L 1.140625 0 L 1.140625 -0.65625 C 1.484375 -0.125 1.953125 0.125 2.59375 0.125 C 3.8125 0.125 4.59375 -0.859375 4.59375 -2.359375 Z M 3.828125 -2.3125 C 3.828125 -1.265625 3.296875 -0.546875 2.484375 -0.546875 C 1.71875 -0.546875 1.203125 -1.265625 1.203125 -2.3125 C 1.203125 -3.390625 1.71875 -4.09375 2.484375 -4.0625 C 3.3125 -4.0625 3.828125 -3.34375 3.828125 -2.3125 Z M 3.828125 -2.3125 "/>
</symbol>
<symbol overflow="visible" id="glyph0-18">
<path style="stroke:none;" d="M 4.421875 0 L 2.53125 -3.015625 L 4.140625 -4.609375 L 3.1875 -4.609375 L 1.234375 -2.65625 L 1.234375 -6.40625 L 0.515625 -6.40625 L 0.515625 0 L 1.234375 0 L 1.234375 -1.796875 L 1.953125 -2.5 L 3.515625 0 Z M 4.421875 0 "/>
</symbol>
<symbol overflow="visible" id="glyph0-19">
<path style="stroke:none;" d="M 4.203125 -4.609375 L 3.40625 -4.609375 L 2.140625 -1.015625 L 0.953125 -4.609375 L 0.171875 -4.609375 L 1.734375 0.015625 L 1.453125 0.75 C 1.328125 1.078125 1.171875 1.203125 0.859375 1.203125 C 0.75 1.203125 0.640625 1.171875 0.46875 1.140625 L 0.46875 1.796875 C 0.625 1.875 0.78125 1.921875 0.96875 1.921875 C 1.484375 1.921875 1.90625 1.625 2.15625 0.96875 Z M 4.203125 -4.609375 "/>
</symbol>
<symbol overflow="visible" id="glyph0-20">
<path style="stroke:none;" d="M 6.234375 -4.609375 L 5.40625 -4.609375 L 4.484375 -1.015625 L 3.578125 -4.609375 L 2.6875 -4.609375 L 1.796875 -1.015625 L 0.859375 -4.609375 L 0.046875 -4.609375 L 1.390625 0 L 2.21875 0 L 3.109375 -3.609375 L 4.03125 0 L 4.875 0 Z M 6.234375 -4.609375 "/>
</symbol>
<symbol overflow="visible" id="glyph0-21">
<path style="stroke:none;" d="M 2.5 -2.109375 L 2.5 -2.75 L 0.40625 -2.75 L 0.40625 -2.109375 Z M 2.5 -2.109375 "/>
</symbol>
<symbol overflow="visible" id="glyph0-22">
<path style="stroke:none;" d="M 4.453125 -3 C 4.453125 -5.15625 3.78125 -6.234375 2.421875 -6.234375 C 1.078125 -6.234375 0.375 -5.140625 0.375 -3.046875 C 0.375 -0.953125 1.078125 0.125 2.421875 0.125 C 3.734375 0.125 4.453125 -0.953125 4.453125 -3 Z M 3.671875 -3.0625 C 3.671875 -1.296875 3.265625 -0.515625 2.40625 -0.515625 C 1.578125 -0.515625 1.171875 -1.34375 1.171875 -3.046875 C 1.171875 -4.75 1.578125 -5.546875 2.421875 -5.546875 C 3.25 -5.546875 3.671875 -4.734375 3.671875 -3.0625 Z M 3.671875 -3.0625 "/>
</symbol>
<symbol overflow="visible" id="glyph0-23">
<path style="stroke:none;" d="M 1.6875 0 L 1.6875 -0.921875 L 0.765625 -0.921875 L 0.765625 0 Z M 1.6875 0 "/>
</symbol>
<symbol overflow="visible" id="glyph0-24">
<path style="stroke:none;" d="M 3.046875 0 L 3.046875 -6.234375 L 2.546875 -6.234375 C 2.265625 -5.28125 2.09375 -5.140625 0.890625 -5 L 0.890625 -4.4375 L 2.28125 -4.4375 L 2.28125 0 Z M 3.046875 0 "/>
</symbol>
<symbol overflow="visible" id="glyph0-25">
<path style="stroke:none;" d="M 4.515625 -2.0625 C 4.515625 -3.296875 3.6875 -4.109375 2.5 -4.109375 C 2.0625 -4.109375 1.703125 -4 1.34375 -3.734375 L 1.59375 -5.34375 L 4.1875 -5.34375 L 4.1875 -6.109375 L 0.96875 -6.109375 L 0.5 -2.84375 L 1.21875 -2.84375 C 1.578125 -3.265625 1.875 -3.421875 2.359375 -3.421875 C 3.1875 -3.421875 3.71875 -2.890625 3.71875 -1.96875 C 3.71875 -1.0625 3.203125 -0.546875 2.359375 -0.546875 C 1.6875 -0.546875 1.265625 -0.890625 1.078125 -1.59375 L 0.3125 -1.59375 C 0.5625 -0.359375 1.265625 0.125 2.375 0.125 C 3.640625 0.125 4.515625 -0.75 4.515625 -2.0625 Z M 4.515625 -2.0625 "/>
</symbol>
<symbol overflow="visible" id="glyph0-26">
<path style="stroke:none;" d="M 5.421875 -4.53125 C 5.421875 -5.734375 4.71875 -6.40625 3.453125 -6.40625 L 0.796875 -6.40625 L 0.796875 0 L 1.625 0 L 1.625 -2.71875 L 3.640625 -2.71875 C 4.6875 -2.71875 5.421875 -3.46875 5.421875 -4.53125 Z M 4.578125 -4.5625 C 4.578125 -3.859375 4.109375 -3.4375 3.328125 -3.4375 L 1.625 -3.4375 L 1.625 -5.6875 L 3.328125 -5.6875 C 4.109375 -5.6875 4.578125 -5.265625 4.578125 -4.5625 Z M 4.578125 -4.5625 "/>
</symbol>
<symbol overflow="visible" id="glyph0-27">
<path style="stroke:none;" d="M 4.6875 0 L 4.6875 -0.71875 L 1.515625 -0.71875 L 1.515625 -6.40625 L 0.703125 -6.40625 L 0.703125 0 Z M 4.6875 0 "/>
</symbol>
<symbol overflow="visible" id="glyph0-28">
<path style="stroke:none;" d="M 5.21875 -5.6875 L 5.21875 -6.40625 L 0.1875 -6.40625 L 0.1875 -5.6875 L 2.296875 -5.6875 L 2.296875 0 L 3.109375 0 L 3.109375 -5.6875 Z M 5.21875 -5.6875 "/>
</symbol>
<symbol overflow="visible" id="glyph0-29">
<path style="stroke:none;" d="M 1.34375 0 L 1.34375 -4.609375 L 0.609375 -4.609375 L 0.609375 0 Z M 1.4375 -5.296875 L 1.4375 -6.21875 L 0.53125 -6.21875 L 0.53125 -5.296875 Z M 1.4375 -5.296875 "/>
</symbol>
<symbol overflow="visible" id="glyph0-30">
<path style="stroke:none;" d="M 6.6875 0 L 6.6875 -6.40625 L 5.5625 -6.40625 L 3.6875 -0.828125 L 1.796875 -6.40625 L 0.65625 -6.40625 L 0.65625 0 L 1.4375 0 L 1.4375 -5.375 L 3.25 0 L 4.109375 0 L 5.921875 -5.375 L 5.921875 0 Z M 6.6875 0 "/>
</symbol>
<symbol overflow="visible" id="glyph0-31">
<path style="stroke:none;" d="M 4.234375 0 L 4.234375 -4.609375 L 3.515625 -4.609375 L 3.515625 -2.0625 C 3.515625 -1.125 3.015625 -0.515625 2.25 -0.515625 C 1.671875 -0.515625 1.296875 -0.859375 1.296875 -1.421875 L 1.296875 -4.609375 L 0.578125 -4.609375 L 0.578125 -1.125 C 0.578125 -0.359375 1.140625 0.125 2.046875 0.125 C 2.71875 0.125 3.15625 -0.109375 3.578125 -0.71875 L 3.578125 0 Z M 4.234375 0 "/>
</symbol>
<symbol overflow="visible" id="glyph0-32">
<path style="stroke:none;" d="M 5.671875 0 L 5.671875 -6.40625 L 4.84375 -6.40625 L 4.84375 -3.640625 L 1.546875 -3.640625 L 1.546875 -6.40625 L 0.734375 -6.40625 L 0.734375 0 L 1.546875 0 L 1.546875 -2.921875 L 4.84375 -2.921875 L 4.84375 0 Z M 5.671875 0 "/>
</symbol>
<symbol overflow="visible" id="glyph0-33">
<path style="stroke:none;" d="M 4.296875 -0.75 L 4.296875 -4.609375 L 3.625 -4.609375 L 3.625 -3.9375 C 3.25 -4.484375 2.8125 -4.734375 2.21875 -4.734375 C 1.046875 -4.734375 0.25 -3.75 0.25 -2.265625 C 0.25 -0.8125 1.078125 0.125 2.15625 0.125 C 2.734375 0.125 3.140625 -0.109375 3.625 -0.6875 L 3.625 -0.390625 C 3.625 0.828125 3.125 1.296875 2.265625 1.296875 C 1.6875 1.296875 1.234375 1.09375 1.15625 0.53125 L 0.40625 0.53125 C 0.484375 1.40625 1.15625 1.921875 2.25 1.921875 C 3.6875 1.921875 4.296875 1.28125 4.296875 -0.75 Z M 3.546875 -2.28125 C 3.546875 -1.171875 3.078125 -0.546875 2.3125 -0.546875 C 1.5 -0.546875 1.015625 -1.1875 1.015625 -2.3125 C 1.015625 -3.40625 1.515625 -4.0625 2.296875 -4.0625 C 3.09375 -4.0625 3.546875 -3.390625 3.546875 -2.28125 Z M 3.546875 -2.28125 "/>
</symbol>
<symbol overflow="visible" id="glyph0-34">
<path style="stroke:none;" d="M 4.28125 0 L 4.28125 -3.484375 C 4.28125 -4.25 3.71875 -4.734375 2.828125 -4.734375 C 2.171875 -4.734375 1.78125 -4.546875 1.34375 -3.96875 L 1.34375 -6.40625 L 0.609375 -6.40625 L 0.609375 0 L 1.34375 0 L 1.34375 -2.546875 C 1.34375 -3.484375 1.84375 -4.09375 2.59375 -4.09375 C 3.109375 -4.09375 3.546875 -3.796875 3.546875 -3.1875 L 3.546875 0 Z M 4.28125 0 "/>
</symbol>
<symbol overflow="visible" id="glyph1-0">
<path style="stroke:none;" d=""/>
</symbol>
<symbol overflow="visible" id="glyph1-1">
<path style="stroke:none;" d="M 6.515625 -7.109375 L 6.515625 -8.015625 L 0.234375 -8.015625 L 0.234375 -7.109375 L 2.875 -7.109375 L 2.875 0 L 3.890625 0 L 3.890625 -7.109375 Z M 6.515625 -7.109375 "/>
</symbol>
<symbol overflow="visible" id="glyph1-2">
<path style="stroke:none;" d="M 3.53125 -4.96875 L 3.53125 -5.890625 C 3.375 -5.921875 3.296875 -5.921875 3.171875 -5.921875 C 2.578125 -5.921875 2.140625 -5.578125 1.609375 -4.71875 L 1.609375 -5.765625 L 0.765625 -5.765625 L 0.765625 0 L 1.6875 0 L 1.6875 -2.984375 C 1.6875 -4.296875 2.109375 -4.9375 3.53125 -4.96875 Z M 3.53125 -4.96875 "/>
</symbol>
<symbol overflow="visible" id="glyph1-3">
<path style="stroke:none;" d="M 5.640625 -2.625 C 5.640625 -3.453125 5.578125 -3.984375 5.40625 -4.40625 C 5.03125 -5.359375 4.15625 -5.921875 3.078125 -5.921875 C 1.46875 -5.921875 0.4375 -4.734375 0.4375 -2.84375 C 0.4375 -0.953125 1.4375 0.171875 3.0625 0.171875 C 4.375 0.171875 5.296875 -0.578125 5.515625 -1.75 L 4.59375 -1.75 C 4.34375 -0.984375 3.828125 -0.6875 3.09375 -0.6875 C 2.140625 -0.6875 1.421875 -1.296875 1.390625 -2.625 Z M 4.65625 -3.4375 C 4.65625 -3.4375 4.65625 -3.390625 4.65625 -3.359375 L 1.421875 -3.359375 C 1.5 -4.390625 2.140625 -5.078125 3.0625 -5.078125 C 3.96875 -5.078125 4.65625 -4.328125 4.65625 -3.4375 Z M 4.65625 -3.4375 "/>
</symbol>
<symbol overflow="visible" id="glyph1-4">
<path style="stroke:none;" d="M 5.890625 -0.015625 L 5.890625 -0.71875 C 5.78125 -0.6875 5.734375 -0.6875 5.6875 -0.6875 C 5.375 -0.6875 5.1875 -0.859375 5.1875 -1.140625 L 5.1875 -4.359375 C 5.1875 -5.375 4.4375 -5.921875 3.03125 -5.921875 C 1.625 -5.921875 0.765625 -5.390625 0.71875 -4.0625 L 1.640625 -4.0625 C 1.71875 -4.765625 2.140625 -5.078125 2.984375 -5.078125 C 3.8125 -5.078125 4.28125 -4.78125 4.28125 -4.21875 L 4.28125 -3.984375 C 4.28125 -3.59375 4.046875 -3.4375 3.328125 -3.34375 C 2.03125 -3.171875 1.828125 -3.140625 1.46875 -2.984375 C 0.796875 -2.71875 0.46875 -2.203125 0.46875 -1.5 C 0.46875 -0.453125 1.1875 0.171875 2.359375 0.171875 C 3.09375 0.171875 3.8125 -0.140625 4.3125 -0.6875 C 4.40625 -0.234375 4.8125 0.078125 5.265625 0.078125 C 5.4375 0.078125 5.59375 0.0625 5.890625 -0.015625 Z M 4.28125 -1.984375 C 4.28125 -1.171875 3.4375 -0.640625 2.546875 -0.640625 C 1.84375 -0.640625 1.421875 -0.890625 1.421875 -1.515625 C 1.421875 -2.125 1.828125 -2.390625 2.8125 -2.53125 C 3.765625 -2.65625 3.96875 -2.703125 4.28125 -2.84375 Z M 4.28125 -1.984375 "/>
</symbol>
<symbol overflow="visible" id="glyph1-5">
<path style="stroke:none;" d="M 2.796875 0 L 2.796875 -0.765625 C 2.671875 -0.734375 2.53125 -0.71875 2.359375 -0.71875 C 1.953125 -0.71875 1.84375 -0.84375 1.84375 -1.25 L 1.84375 -5.015625 L 2.796875 -5.015625 L 2.796875 -5.765625 L 1.84375 -5.765625 L 1.84375 -7.34375 L 0.9375 -7.34375 L 0.9375 -5.765625 L 0.15625 -5.765625 L 0.15625 -5.015625 L 0.9375 -5.015625 L 0.9375 -0.84375 C 0.9375 -0.25 1.328125 0.078125 2.046875 0.078125 C 2.265625 0.078125 2.484375 0.0625 2.796875 0 Z M 2.796875 0 "/>
</symbol>
<symbol overflow="visible" id="glyph1-6">
<path style="stroke:none;" d="M 8.359375 0 L 8.359375 -4.328125 C 8.359375 -5.359375 7.78125 -5.921875 6.703125 -5.921875 C 5.9375 -5.921875 5.484375 -5.703125 4.9375 -5.046875 C 4.59375 -5.671875 4.140625 -5.921875 3.390625 -5.921875 C 2.625 -5.921875 2.109375 -5.640625 1.609375 -4.953125 L 1.609375 -5.765625 L 0.78125 -5.765625 L 0.78125 0 L 1.6875 0 L 1.6875 -3.625 C 1.6875 -4.453125 2.296875 -5.125 3.046875 -5.125 C 3.734375 -5.125 4.109375 -4.703125 4.109375 -3.96875 L 4.109375 0 L 5.03125 0 L 5.03125 -3.625 C 5.03125 -4.453125 5.640625 -5.125 6.390625 -5.125 C 7.0625 -5.125 7.453125 -4.703125 7.453125 -3.96875 L 7.453125 0 Z M 8.359375 0 "/>
</symbol>
<symbol overflow="visible" id="glyph1-7">
<path style="stroke:none;" d="M 5.359375 0 L 5.359375 -4.359375 C 5.359375 -5.3125 4.640625 -5.921875 3.53125 -5.921875 C 2.671875 -5.921875 2.125 -5.59375 1.609375 -4.796875 L 1.609375 -5.765625 L 0.765625 -5.765625 L 0.765625 0 L 1.6875 0 L 1.6875 -3.171875 C 1.6875 -4.359375 2.328125 -5.125 3.25 -5.125 C 3.984375 -5.125 4.4375 -4.6875 4.4375 -4 L 4.4375 0 Z M 5.359375 0 "/>
</symbol>
<symbol overflow="visible" id="glyph1-8">
<path style="stroke:none;" d=""/>
</symbol>
<symbol overflow="visible" id="glyph1-9">
<path style="stroke:none;" d="M 5.671875 -5.015625 L 5.671875 -5.765625 L 4.71875 -5.765625 L 4.71875 -6.671875 C 4.71875 -7.046875 4.9375 -7.25 5.359375 -7.25 C 5.4375 -7.25 5.46875 -7.25 5.671875 -7.234375 L 5.671875 -8 C 5.46875 -8.046875 5.34375 -8.046875 5.15625 -8.046875 C 4.3125 -8.046875 3.8125 -7.5625 3.8125 -6.75 L 3.8125 -5.765625 L 1.875 -5.765625 L 1.875 -6.671875 C 1.875 -7.046875 2.09375 -7.25 2.515625 -7.25 C 2.59375 -7.25 2.625 -7.25 2.84375 -7.234375 L 2.84375 -8 C 2.625 -8.046875 2.515625 -8.046875 2.328125 -8.046875 C 1.46875 -8.046875 0.96875 -7.5625 0.96875 -6.75 L 0.96875 -5.765625 L 0.203125 -5.765625 L 0.203125 -5.015625 L 0.96875 -5.015625 L 0.96875 0 L 1.875 0 L 1.875 -5.015625 L 3.8125 -5.015625 L 3.8125 0 L 4.71875 0 L 4.71875 -5.015625 Z M 5.671875 -5.015625 "/>
</symbol>
<symbol overflow="visible" id="glyph1-10">
<path style="stroke:none;" d="M 5.25 -1.984375 L 4.328125 -1.984375 C 4.171875 -1.0625 3.703125 -0.6875 2.921875 -0.6875 C 1.90625 -0.6875 1.296875 -1.46875 1.296875 -2.828125 C 1.296875 -4.265625 1.890625 -5.078125 2.890625 -5.078125 C 3.65625 -5.078125 4.140625 -4.625 4.25 -3.828125 L 5.1875 -3.828125 C 5.078125 -5.234375 4.1875 -5.921875 2.90625 -5.921875 C 1.359375 -5.921875 0.34375 -4.734375 0.34375 -2.828125 C 0.34375 -0.96875 1.328125 0.171875 2.890625 0.171875 C 4.265625 0.171875 5.140625 -0.65625 5.25 -1.984375 Z M 5.25 -1.984375 "/>
</symbol>
</g>
<clipPath id="clip1">
  <path d="M 73.890625 23.4375 L 355 23.4375 L 355 62 L 73.890625 62 Z M 73.890625 23.4375 "/>
</clipPath>
<clipPath id="clip2">
  <path d="M 104 23.4375 L 106 23.4375 L 106 62 L 104 62 Z M 104 23.4375 "/>
</clipPath>
<clipPath id="clip3">
  <path d="M 164 23.4375 L 166 23.4375 L 166 62 L 164 62 Z M 164 23.4375 "/>
</clipPath>
<clipPath id="clip4">
  <path d="M 225 23.4375 L 226 23.4375 L 226 62 L 225 62 Z M 225 23.4375 "/>
</clipPath>
<clipPath id="clip5">
  <path d="M 285 23.4375 L 287 23.4375 L 287 62 L 285 62 Z M 285 23.4375 "/>
</clipPath>
<clipPath id="clip6">
  <path d="M 346 23.4375 L 347 23.4375 L 347 62 L 346 62 Z M 346 23.4375 "/>
</clipPath>
<clipPath id="clip7">
  <path d="M 73.890625 55 L 355.519531 55 L 355.519531 57 L 73.890625 57 Z M 73.890625 55 "/>
</clipPath>
<clipPath id="clip8">
  <path d="M 73.890625 46 L 355.519531 46 L 355.519531 48 L 73.890625 48 Z M 73.890625 46 "/>
</clipPath>
<clipPath id="clip9">
  <path d="M 73.890625 37 L 355.519531 37 L 355.519531 39 L 73.890625 39 Z M 73.890625 37 "/>
</clipPath>
<clipPath id="clip10">
  <path d="M 73.890625 28 L 355.519531 28 L 355.519531 30 L 73.890625 30 Z M 73.890625 28 "/>
</clipPath>
<clipPath id="clip11">
  <path d="M 74 23.4375 L 76 23.4375 L 76 62 L 74 62 Z M 74 23.4375 "/>
</clipPath>
<clipPath id="clip12">
  <path d="M 134 23.4375 L 136 23.4375 L 136 62 L 134 62 Z M 134 23.4375 "/>
</clipPath>
<clipPath id="clip13">
  <path d="M 194 23.4375 L 197 23.4375 L 197 62 L 194 62 Z M 194 23.4375 "/>
</clipPath>
<clipPath id="clip14">
  <path d="M 255 23.4375 L 257 23.4375 L 257 62 L 255 62 Z M 255 23.4375 "/>
</clipPath>
<clipPath id="clip15">
  <path d="M 315 23.4375 L 317 23.4375 L 317 62 L 315 62 Z M 315 23.4375 "/>
</clipPath>
<clipPath id="clip16">
  <path d="M 194 23.4375 L 197 23.4375 L 197 62 L 194 62 Z M 194 23.4375 "/>
</clipPath>
<clipPath id="clip17">
  <path d="M 201 23.4375 L 203 23.4375 L 203 62 L 201 62 Z M 201 23.4375 "/>
</clipPath>
<clipPath id="clip18">
  <path d="M 177 23.4375 L 226 23.4375 L 226 62 L 177 62 Z M 177 23.4375 "/>
</clipPath>
<clipPath id="clip19">
  <path d="M 73.890625 23.4375 L 355.519531 23.4375 L 355.519531 62 L 73.890625 62 Z M 73.890625 23.4375 "/>
</clipPath>
<clipPath id="clip20">
  <path d="M 73.890625 84.476562 L 355 84.476562 L 355 123 L 73.890625 123 Z M 73.890625 84.476562 "/>
</clipPath>
<clipPath id="clip21">
  <path d="M 104 84.476562 L 106 84.476562 L 106 123 L 104 123 Z M 104 84.476562 "/>
</clipPath>
<clipPath id="clip22">
  <path d="M 164 84.476562 L 166 84.476562 L 166 123 L 164 123 Z M 164 84.476562 "/>
</clipPath>
<clipPath id="clip23">
  <path d="M 225 84.476562 L 226 84.476562 L 226 123 L 225 123 Z M 225 84.476562 "/>
</clipPath>
<clipPath id="clip24">
  <path d="M 285 84.476562 L 287 84.476562 L 287 123 L 285 123 Z M 285 84.476562 "/>
</clipPath>
<clipPath id="clip25">
  <path d="M 346 84.476562 L 347 84.476562 L 347 123 L 346 123 Z M 346 84.476562 "/>
</clipPath>
<clipPath id="clip26">
  <path d="M 73.890625 116 L 355.519531 116 L 355.519531 118 L 73.890625 118 Z M 73.890625 116 "/>
</clipPath>
<clipPath id="clip27">
  <path d="M 73.890625 107 L 355.519531 107 L 355.519531 109 L 73.890625 109 Z M 73.890625 107 "/>
</clipPath>
<clipPath id="clip28">
  <path d="M 73.890625 98 L 355.519531 98 L 355.519531 100 L 73.890625 100 Z M 73.890625 98 "/>
</clipPath>
<clipPath id="clip29">
  <path d="M 73.890625 89 L 355.519531 89 L 355.519531 91 L 73.890625 91 Z M 73.890625 89 "/>
</clipPath>
<clipPath id="clip30">
  <path d="M 74 84.476562 L 76 84.476562 L 76 123 L 74 123 Z M 74 84.476562 "/>
</clipPath>
<clipPath id="clip31">
  <path d="M 134 84.476562 L 136 84.476562 L 136 123 L 134 123 Z M 134 84.476562 "/>
</clipPath>
<clipPath id="clip32">
  <path d="M 194 84.476562 L 197 84.476562 L 197 123 L 194 123 Z M 194 84.476562 "/>
</clipPath>
<clipPath id="clip33">
  <path d="M 255 84.476562 L 257 84.476562 L 257 123 L 255 123 Z M 255 84.476562 "/>
</clipPath>
<clipPath id="clip34">
  <path d="M 315 84.476562 L 317 84.476562 L 317 123 L 315 123 Z M 315 84.476562 "/>
</clipPath>
<clipPath id="clip35">
  <path d="M 194 84.476562 L 197 84.476562 L 197 123 L 194 123 Z M 194 84.476562 "/>
</clipPath>
<clipPath id="clip36">
  <path d="M 183 84.476562 L 185 84.476562 L 185 123 L 183 123 Z M 183 84.476562 "/>
</clipPath>
<clipPath id="clip37">
  <path d="M 157 84.476562 L 210 84.476562 L 210 123 L 157 123 Z M 157 84.476562 "/>
</clipPath>
<clipPath id="clip38">
  <path d="M 73.890625 84.476562 L 355.519531 84.476562 L 355.519531 123 L 73.890625 123 Z M 73.890625 84.476562 "/>
</clipPath>
<clipPath id="clip39">
  <path d="M 73.890625 145.511719 L 355 145.511719 L 355 184 L 73.890625 184 Z M 73.890625 145.511719 "/>
</clipPath>
<clipPath id="clip40">
  <path d="M 104 145.511719 L 106 145.511719 L 106 184 L 104 184 Z M 104 145.511719 "/>
</clipPath>
<clipPath id="clip41">
  <path d="M 164 145.511719 L 166 145.511719 L 166 184 L 164 184 Z M 164 145.511719 "/>
</clipPath>
<clipPath id="clip42">
  <path d="M 225 145.511719 L 226 145.511719 L 226 184 L 225 184 Z M 225 145.511719 "/>
</clipPath>
<clipPath id="clip43">
  <path d="M 285 145.511719 L 287 145.511719 L 287 184 L 285 184 Z M 285 145.511719 "/>
</clipPath>
<clipPath id="clip44">
  <path d="M 346 145.511719 L 347 145.511719 L 347 184 L 346 184 Z M 346 145.511719 "/>
</clipPath>
<clipPath id="clip45">
  <path d="M 73.890625 177 L 355.519531 177 L 355.519531 179 L 73.890625 179 Z M 73.890625 177 "/>
</clipPath>
<clipPath id="clip46">
  <path d="M 73.890625 168 L 355.519531 168 L 355.519531 170 L 73.890625 170 Z M 73.890625 168 "/>
</clipPath>
<clipPath id="clip47">
  <path d="M 73.890625 159 L 355.519531 159 L 355.519531 161 L 73.890625 161 Z M 73.890625 159 "/>
</clipPath>
<clipPath id="clip48">
  <path d="M 73.890625 150 L 355.519531 150 L 355.519531 152 L 73.890625 152 Z M 73.890625 150 "/>
</clipPath>
<clipPath id="clip49">
  <path d="M 74 145.511719 L 76 145.511719 L 76 184 L 74 184 Z M 74 145.511719 "/>
</clipPath>
<clipPath id="clip50">
  <path d="M 134 145.511719 L 136 145.511719 L 136 184 L 134 184 Z M 134 145.511719 "/>
</clipPath>
<clipPath id="clip51">
  <path d="M 194 145.511719 L 197 145.511719 L 197 184 L 194 184 Z M 194 145.511719 "/>
</clipPath>
<clipPath id="clip52">
  <path d="M 255 145.511719 L 257 145.511719 L 257 184 L 255 184 Z M 255 145.511719 "/>
</clipPath>
<clipPath id="clip53">
  <path d="M 315 145.511719 L 317 145.511719 L 317 184 L 315 184 Z M 315 145.511719 "/>
</clipPath>
<clipPath id="clip54">
  <path d="M 194 145.511719 L 197 145.511719 L 197 184 L 194 184 Z M 194 145.511719 "/>
</clipPath>
<clipPath id="clip55">
  <path d="M 225 145.511719 L 227 145.511719 L 227 184 L 225 184 Z M 225 145.511719 "/>
</clipPath>
<clipPath id="clip56">
  <path d="M 191 145.511719 L 262 145.511719 L 262 184 L 191 184 Z M 191 145.511719 "/>
</clipPath>
<clipPath id="clip57">
  <path d="M 73.890625 145.511719 L 355.519531 145.511719 L 355.519531 184 L 73.890625 184 Z M 73.890625 145.511719 "/>
</clipPath>
<clipPath id="clip58">
  <path d="M 73.890625 127.550781 L 355 127.550781 L 355 146 L 73.890625 146 Z M 73.890625 127.550781 "/>
</clipPath>
<clipPath id="clip59">
  <path d="M 73.890625 127.550781 L 355.519531 127.550781 L 355.519531 146.507812 L 73.890625 146.507812 Z M 73.890625 127.550781 "/>
</clipPath>
<clipPath id="clip60">
  <path d="M 73.890625 66.515625 L 355 66.515625 L 355 85 L 73.890625 85 Z M 73.890625 66.515625 "/>
</clipPath>
<clipPath id="clip61">
  <path d="M 73.890625 66.515625 L 355.519531 66.515625 L 355.519531 85.472656 L 73.890625 85.472656 Z M 73.890625 66.515625 "/>
</clipPath>
<clipPath id="clip62">
  <path d="M 73.890625 5.480469 L 355 5.480469 L 355 24 L 73.890625 24 Z M 73.890625 5.480469 "/>
</clipPath>
<clipPath id="clip63">
  <path d="M 73.890625 5.480469 L 355.519531 5.480469 L 355.519531 24 L 73.890625 24 Z M 73.890625 5.480469 "/>
</clipPath>
</defs>
<g id="surface67">
<rect x="0" y="0" width="360" height="216" style="fill:rgb(100%,100%,100%);fill-opacity:1;stroke:none;"/>
<rect x="0" y="0" width="360" height="216" style="fill:rgb(100%,100%,100%);fill-opacity:1;stroke:none;"/>
<path style="fill:none;stroke-width:1.066978;stroke-linecap:round;stroke-linejoin:round;stroke:rgb(100%,100%,100%);stroke-opacity:1;stroke-miterlimit:10;" d="M 0 216 L 360 216 L 360 0 L 0 0 Z M 0 216 "/>
<g clip-path="url(#clip1)" clip-rule="nonzero">
<path style=" stroke:none;fill-rule:nonzero;fill:rgb(100%,100%,100%);fill-opacity:1;" d="M 73.890625 61.035156 L 354.519531 61.035156 L 354.519531 23.4375 L 73.890625 23.4375 Z M 73.890625 61.035156 "/>
</g>
<g clip-path="url(#clip2)" clip-rule="nonzero">
<path style="fill:none;stroke-width:0.533489;stroke-linecap:butt;stroke-linejoin:round;stroke:rgb(92.156863%,92.156863%,92.156863%);stroke-opacity:1;stroke-miterlimit:10;" d="M 104.777344 61.035156 L 104.777344 23.4375 "/>
</g>
<g clip-path="url(#clip3)" clip-rule="nonzero">
<path style="fill:none;stroke-width:0.533489;stroke-linecap:butt;stroke-linejoin:round;stroke:rgb(92.156863%,92.156863%,92.156863%);stroke-opacity:1;stroke-miterlimit:10;" d="M 165.242188 61.035156 L 165.242188 23.4375 "/>
</g>
<g clip-path="url(#clip4)" clip-rule="nonzero">
<path style="fill:none;stroke-width:0.533489;stroke-linecap:butt;stroke-linejoin:round;stroke:rgb(92.156863%,92.156863%,92.156863%);stroke-opacity:1;stroke-miterlimit:10;" d="M 225.707031 61.035156 L 225.707031 23.4375 "/>
</g>
<g clip-path="url(#clip5)" clip-rule="nonzero">
<path style="fill:none;stroke-width:0.533489;stroke-linecap:butt;stroke-linejoin:round;stroke:rgb(92.156863%,92.156863%,92.156863%);stroke-opacity:1;stroke-miterlimit:10;" d="M 286.171875 61.035156 L 286.171875 23.4375 "/>
</g>
<g clip-path="url(#clip6)" clip-rule="nonzero">
<path style="fill:none;stroke-width:0.533489;stroke-linecap:butt;stroke-linejoin:round;stroke:rgb(92.156863%,92.156863%,92.156863%);stroke-opacity:1;stroke-miterlimit:10;" d="M 346.636719 61.035156 L 346.636719 23.4375 "/>
</g>
<g clip-path="url(#clip7)" clip-rule="nonzero">
<path style="fill:none;stroke-width:1.066978;stroke-linecap:butt;stroke-linejoin:round;stroke:rgb(92.156863%,92.156863%,92.156863%);stroke-opacity:1;stroke-miterlimit:10;" d="M 73.890625 55.664062 L 354.519531 55.664062 "/>
</g>
<g clip-path="url(#clip8)" clip-rule="nonzero">
<path style="fill:none;stroke-width:1.066978;stroke-linecap:butt;stroke-linejoin:round;stroke:rgb(92.156863%,92.156863%,92.156863%);stroke-opacity:1;stroke-miterlimit:10;" d="M 73.890625 46.714844 L 354.519531 46.714844 "/>
</g>
<g clip-path="url(#clip9)" clip-rule="nonzero">
<path style="fill:none;stroke-width:1.066978;stroke-linecap:butt;stroke-linejoin:round;stroke:rgb(92.156863%,92.156863%,92.156863%);stroke-opacity:1;stroke-miterlimit:10;" d="M 73.890625 37.761719 L 354.519531 37.761719 "/>
</g>
<g clip-path="url(#clip10)" clip-rule="nonzero">
<path style="fill:none;stroke-width:1.066978;stroke-linecap:butt;stroke-linejoin:round;stroke:rgb(92.156863%,92.156863%,92.156863%);stroke-opacity:1;stroke-miterlimit:10;" d="M 73.890625 28.808594 L 354.519531 28.808594 "/>
</g>
<g clip-path="url(#clip11)" clip-rule="nonzero">
<path style="fill:none;stroke-width:1.066978;stroke-linecap:butt;stroke-linejoin:round;stroke:rgb(92.156863%,92.156863%,92.156863%);stroke-opacity:1;stroke-miterlimit:10;" d="M 74.542969 61.035156 L 74.542969 23.4375 "/>
</g>
<g clip-path="url(#clip12)" clip-rule="nonzero">
<path style="fill:none;stroke-width:1.066978;stroke-linecap:butt;stroke-linejoin:round;stroke:rgb(92.156863%,92.156863%,92.156863%);stroke-opacity:1;stroke-miterlimit:10;" d="M 135.007812 61.035156 L 135.007812 23.4375 "/>
</g>
<g clip-path="url(#clip13)" clip-rule="nonzero">
<path style="fill:none;stroke-width:1.066978;stroke-linecap:butt;stroke-linejoin:round;stroke:rgb(92.156863%,92.156863%,92.156863%);stroke-opacity:1;stroke-miterlimit:10;" d="M 195.472656 61.035156 L 195.472656 23.4375 "/>
</g>
<g clip-path="url(#clip14)" clip-rule="nonzero">
<path style="fill:none;stroke-width:1.066978;stroke-linecap:butt;stroke-linejoin:round;stroke:rgb(92.156863%,92.156863%,92.156863%);stroke-opacity:1;stroke-miterlimit:10;" d="M 255.9375 61.035156 L 255.9375 23.4375 "/>
</g>
<g clip-path="url(#clip15)" clip-rule="nonzero">
<path style="fill:none;stroke-width:1.066978;stroke-linecap:butt;stroke-linejoin:round;stroke:rgb(92.156863%,92.156863%,92.156863%);stroke-opacity:1;stroke-miterlimit:10;" d="M 316.402344 61.035156 L 316.402344 23.4375 "/>
</g>
<path style="fill-rule:nonzero;fill:rgb(0%,0%,0%);fill-opacity:1;stroke-width:0.708661;stroke-linecap:round;stroke-linejoin:round;stroke:rgb(0%,0%,0%);stroke-opacity:1;stroke-miterlimit:10;" d="M 203.71875 55.664062 C 203.71875 58.273438 199.808594 58.273438 199.808594 55.664062 C 199.808594 53.058594 203.71875 53.058594 203.71875 55.664062 "/>
<path style="fill-rule:nonzero;fill:rgb(0%,0%,0%);fill-opacity:1;stroke-width:0.708661;stroke-linecap:round;stroke-linejoin:round;stroke:rgb(0%,0%,0%);stroke-opacity:1;stroke-miterlimit:10;" d="M 182.371094 46.714844 C 182.371094 49.320312 178.460938 49.320312 178.460938 46.714844 C 178.460938 44.105469 182.371094 44.105469 182.371094 46.714844 "/>
<path style="fill-rule:nonzero;fill:rgb(0%,0%,0%);fill-opacity:1;stroke-width:0.708661;stroke-linecap:round;stroke-linejoin:round;stroke:rgb(0%,0%,0%);stroke-opacity:1;stroke-miterlimit:10;" d="M 217.160156 37.761719 C 217.160156 40.367188 213.25 40.367188 213.25 37.761719 C 213.25 35.15625 217.160156 35.15625 217.160156 37.761719 "/>
<path style="fill-rule:nonzero;fill:rgb(0%,0%,0%);fill-opacity:1;stroke-width:0.708661;stroke-linecap:round;stroke-linejoin:round;stroke:rgb(0%,0%,0%);stroke-opacity:1;stroke-miterlimit:10;" d="M 197.746094 28.808594 C 197.746094 31.414062 193.835938 31.414062 193.835938 28.808594 C 193.835938 26.203125 197.746094 26.203125 197.746094 28.808594 "/>
<path style="fill:none;stroke-width:1.066978;stroke-linecap:butt;stroke-linejoin:round;stroke:rgb(74.509804%,74.509804%,74.509804%);stroke-opacity:1;stroke-miterlimit:1;" d="M 180.414062 46.714844 L 215.207031 37.761719 L 195.789062 28.808594 "/>
<path style="fill:none;stroke-width:1.066978;stroke-linecap:butt;stroke-linejoin:round;stroke:rgb(0%,0%,0%);stroke-opacity:1;stroke-miterlimit:1;" d="M 226.242188 55.664062 L 226.242188 55.664062 "/>
<path style="fill:none;stroke-width:1.066978;stroke-linecap:butt;stroke-linejoin:round;stroke:rgb(0%,0%,0%);stroke-opacity:1;stroke-miterlimit:1;" d="M 226.242188 55.664062 L 177.285156 55.664062 "/>
<path style="fill:none;stroke-width:1.066978;stroke-linecap:butt;stroke-linejoin:round;stroke:rgb(0%,0%,0%);stroke-opacity:1;stroke-miterlimit:1;" d="M 177.285156 55.664062 L 177.285156 55.664062 "/>
<path style="fill:none;stroke-width:1.066978;stroke-linecap:butt;stroke-linejoin:round;stroke:rgb(0%,0%,0%);stroke-opacity:1;stroke-miterlimit:1;" d="M 230.75 46.714844 L 230.75 46.714844 "/>
<path style="fill:none;stroke-width:1.066978;stroke-linecap:butt;stroke-linejoin:round;stroke:rgb(0%,0%,0%);stroke-opacity:1;stroke-miterlimit:1;" d="M 230.75 46.714844 L 130.082031 46.714844 "/>
<path style="fill:none;stroke-width:1.066978;stroke-linecap:butt;stroke-linejoin:round;stroke:rgb(0%,0%,0%);stroke-opacity:1;stroke-miterlimit:1;" d="M 130.082031 46.714844 L 130.082031 46.714844 "/>
<path style="fill:none;stroke-width:1.066978;stroke-linecap:butt;stroke-linejoin:round;stroke:rgb(0%,0%,0%);stroke-opacity:1;stroke-miterlimit:1;" d="M 248.570312 37.761719 L 248.570312 37.761719 "/>
<path style="fill:none;stroke-width:1.066978;stroke-linecap:butt;stroke-linejoin:round;stroke:rgb(0%,0%,0%);stroke-opacity:1;stroke-miterlimit:1;" d="M 248.570312 37.761719 L 181.839844 37.761719 "/>
<path style="fill:none;stroke-width:1.066978;stroke-linecap:butt;stroke-linejoin:round;stroke:rgb(0%,0%,0%);stroke-opacity:1;stroke-miterlimit:1;" d="M 181.839844 37.761719 L 181.839844 37.761719 "/>
<path style="fill:none;stroke-width:1.066978;stroke-linecap:butt;stroke-linejoin:round;stroke:rgb(0%,0%,0%);stroke-opacity:1;stroke-miterlimit:1;" d="M 249.613281 28.808594 L 249.613281 28.808594 "/>
<path style="fill:none;stroke-width:1.066978;stroke-linecap:butt;stroke-linejoin:round;stroke:rgb(0%,0%,0%);stroke-opacity:1;stroke-miterlimit:1;" d="M 249.613281 28.808594 L 141.96875 28.808594 "/>
<path style="fill:none;stroke-width:1.066978;stroke-linecap:butt;stroke-linejoin:round;stroke:rgb(0%,0%,0%);stroke-opacity:1;stroke-miterlimit:1;" d="M 141.96875 28.808594 L 141.96875 28.808594 "/>
<g clip-path="url(#clip16)" clip-rule="nonzero">
<path style="fill:none;stroke-width:1.066978;stroke-linecap:butt;stroke-linejoin:round;stroke:rgb(100%,0%,0%);stroke-opacity:1;stroke-dasharray:4.267913,4.267913;stroke-miterlimit:10;" d="M 195.472656 61.035156 L 195.472656 23.4375 "/>
</g>
<g clip-path="url(#clip17)" clip-rule="nonzero">
<path style="fill:none;stroke-width:1.066978;stroke-linecap:butt;stroke-linejoin:round;stroke:rgb(0%,0%,100%);stroke-opacity:1;stroke-dasharray:1.066978,3.200935;stroke-miterlimit:10;" d="M 201.765625 61.035156 L 201.765625 23.4375 "/>
</g>
<g clip-path="url(#clip18)" clip-rule="nonzero">
<path style=" stroke:none;fill-rule:nonzero;fill:rgb(0%,0%,100%);fill-opacity:0.2;" d="M 177.777344 61.035156 L 225.753906 61.035156 L 225.753906 23.4375 L 177.777344 23.4375 Z M 177.777344 61.035156 "/>
</g>
<g clip-path="url(#clip19)" clip-rule="nonzero">
<path style="fill:none;stroke-width:1.066978;stroke-linecap:round;stroke-linejoin:round;stroke:rgb(20%,20%,20%);stroke-opacity:1;stroke-miterlimit:10;" d="M 73.890625 61.035156 L 354.519531 61.035156 L 354.519531 23.4375 L 73.890625 23.4375 Z M 73.890625 61.035156 "/>
</g>
<g clip-path="url(#clip20)" clip-rule="nonzero">
<path style=" stroke:none;fill-rule:nonzero;fill:rgb(100%,100%,100%);fill-opacity:1;" d="M 73.890625 122.074219 L 354.519531 122.074219 L 354.519531 84.476562 L 73.890625 84.476562 Z M 73.890625 122.074219 "/>
</g>
<g clip-path="url(#clip21)" clip-rule="nonzero">
<path style="fill:none;stroke-width:0.533489;stroke-linecap:butt;stroke-linejoin:round;stroke:rgb(92.156863%,92.156863%,92.156863%);stroke-opacity:1;stroke-miterlimit:10;" d="M 104.777344 122.074219 L 104.777344 84.476562 "/>
</g>
<g clip-path="url(#clip22)" clip-rule="nonzero">
<path style="fill:none;stroke-width:0.533489;stroke-linecap:butt;stroke-linejoin:round;stroke:rgb(92.156863%,92.156863%,92.156863%);stroke-opacity:1;stroke-miterlimit:10;" d="M 165.242188 122.074219 L 165.242188 84.476562 "/>
</g>
<g clip-path="url(#clip23)" clip-rule="nonzero">
<path style="fill:none;stroke-width:0.533489;stroke-linecap:butt;stroke-linejoin:round;stroke:rgb(92.156863%,92.156863%,92.156863%);stroke-opacity:1;stroke-miterlimit:10;" d="M 225.707031 122.074219 L 225.707031 84.476562 "/>
</g>
<g clip-path="url(#clip24)" clip-rule="nonzero">
<path style="fill:none;stroke-width:0.533489;stroke-linecap:butt;stroke-linejoin:round;stroke:rgb(92.156863%,92.156863%,92.156863%);stroke-opacity:1;stroke-miterlimit:10;" d="M 286.171875 122.074219 L 286.171875 84.476562 "/>
</g>
<g clip-path="url(#clip25)" clip-rule="nonzero">
<path style="fill:none;stroke-width:0.533489;stroke-linecap:butt;stroke-linejoin:round;stroke:rgb(92.156863%,92.156863%,92.156863%);stroke-opacity:1;stroke-miterlimit:10;" d="M 346.636719 122.074219 L 346.636719 84.476562 "/>
</g>
<g clip-path="url(#clip26)" clip-rule="nonzero">
<path style="fill:none;stroke-width:1.066978;stroke-linecap:butt;stroke-linejoin:round;stroke:rgb(92.156863%,92.156863%,92.156863%);stroke-opacity:1;stroke-miterlimit:10;" d="M 73.890625 116.703125 L 354.519531 116.703125 "/>
</g>
<g clip-path="url(#clip27)" clip-rule="nonzero">
<path style="fill:none;stroke-width:1.066978;stroke-linecap:butt;stroke-linejoin:round;stroke:rgb(92.156863%,92.156863%,92.156863%);stroke-opacity:1;stroke-miterlimit:10;" d="M 73.890625 107.75 L 354.519531 107.75 "/>
</g>
<g clip-path="url(#clip28)" clip-rule="nonzero">
<path style="fill:none;stroke-width:1.066978;stroke-linecap:butt;stroke-linejoin:round;stroke:rgb(92.156863%,92.156863%,92.156863%);stroke-opacity:1;stroke-miterlimit:10;" d="M 73.890625 98.796875 L 354.519531 98.796875 "/>
</g>
<g clip-path="url(#clip29)" clip-rule="nonzero">
<path style="fill:none;stroke-width:1.066978;stroke-linecap:butt;stroke-linejoin:round;stroke:rgb(92.156863%,92.156863%,92.156863%);stroke-opacity:1;stroke-miterlimit:10;" d="M 73.890625 89.847656 L 354.519531 89.847656 "/>
</g>
<g clip-path="url(#clip30)" clip-rule="nonzero">
<path style="fill:none;stroke-width:1.066978;stroke-linecap:butt;stroke-linejoin:round;stroke:rgb(92.156863%,92.156863%,92.156863%);stroke-opacity:1;stroke-miterlimit:10;" d="M 74.542969 122.074219 L 74.542969 84.476562 "/>
</g>
<g clip-path="url(#clip31)" clip-rule="nonzero">
<path style="fill:none;stroke-width:1.066978;stroke-linecap:butt;stroke-linejoin:round;stroke:rgb(92.156863%,92.156863%,92.156863%);stroke-opacity:1;stroke-miterlimit:10;" d="M 135.007812 122.074219 L 135.007812 84.476562 "/>
</g>
<g clip-path="url(#clip32)" clip-rule="nonzero">
<path style="fill:none;stroke-width:1.066978;stroke-linecap:butt;stroke-linejoin:round;stroke:rgb(92.156863%,92.156863%,92.156863%);stroke-opacity:1;stroke-miterlimit:10;" d="M 195.472656 122.074219 L 195.472656 84.476562 "/>
</g>
<g clip-path="url(#clip33)" clip-rule="nonzero">
<path style="fill:none;stroke-width:1.066978;stroke-linecap:butt;stroke-linejoin:round;stroke:rgb(92.156863%,92.156863%,92.156863%);stroke-opacity:1;stroke-miterlimit:10;" d="M 255.9375 122.074219 L 255.9375 84.476562 "/>
</g>
<g clip-path="url(#clip34)" clip-rule="nonzero">
<path style="fill:none;stroke-width:1.066978;stroke-linecap:butt;stroke-linejoin:round;stroke:rgb(92.156863%,92.156863%,92.156863%);stroke-opacity:1;stroke-miterlimit:10;" d="M 316.402344 122.074219 L 316.402344 84.476562 "/>
</g>
<path style="fill-rule:nonzero;fill:rgb(0%,0%,0%);fill-opacity:1;stroke-width:0.708661;stroke-linecap:round;stroke-linejoin:round;stroke:rgb(0%,0%,0%);stroke-opacity:1;stroke-miterlimit:10;" d="M 185.511719 116.703125 C 185.511719 119.308594 181.601562 119.308594 181.601562 116.703125 C 181.601562 114.09375 185.511719 114.09375 185.511719 116.703125 "/>
<path style="fill-rule:nonzero;fill:rgb(0%,0%,0%);fill-opacity:1;stroke-width:0.708661;stroke-linecap:round;stroke-linejoin:round;stroke:rgb(0%,0%,0%);stroke-opacity:1;stroke-miterlimit:10;" d="M 146.953125 107.75 C 146.953125 110.355469 143.042969 110.355469 143.042969 107.75 C 143.042969 105.144531 146.953125 105.144531 146.953125 107.75 "/>
<path style="fill-rule:nonzero;fill:rgb(0%,0%,0%);fill-opacity:1;stroke-width:0.708661;stroke-linecap:round;stroke-linejoin:round;stroke:rgb(0%,0%,0%);stroke-opacity:1;stroke-miterlimit:10;" d="M 190.378906 98.796875 C 190.378906 101.40625 186.46875 101.40625 186.46875 98.796875 C 186.46875 96.191406 190.378906 96.191406 190.378906 98.796875 "/>
<path style="fill-rule:nonzero;fill:rgb(0%,0%,0%);fill-opacity:1;stroke-width:0.708661;stroke-linecap:round;stroke-linejoin:round;stroke:rgb(0%,0%,0%);stroke-opacity:1;stroke-miterlimit:10;" d="M 224.785156 89.847656 C 224.785156 92.453125 220.875 92.453125 220.875 89.847656 C 220.875 87.238281 224.785156 87.238281 224.785156 89.847656 "/>
<path style="fill:none;stroke-width:1.066978;stroke-linecap:butt;stroke-linejoin:round;stroke:rgb(74.509804%,74.509804%,74.509804%);stroke-opacity:1;stroke-miterlimit:1;" d="M 144.996094 107.75 L 188.425781 98.796875 L 222.828125 89.847656 "/>
<path style="fill:none;stroke-width:1.066978;stroke-linecap:butt;stroke-linejoin:round;stroke:rgb(0%,0%,0%);stroke-opacity:1;stroke-miterlimit:1;" d="M 210.492188 116.703125 L 210.492188 116.703125 "/>
<path style="fill:none;stroke-width:1.066978;stroke-linecap:butt;stroke-linejoin:round;stroke:rgb(0%,0%,0%);stroke-opacity:1;stroke-miterlimit:1;" d="M 210.492188 116.703125 L 156.621094 116.703125 "/>
<path style="fill:none;stroke-width:1.066978;stroke-linecap:butt;stroke-linejoin:round;stroke:rgb(0%,0%,0%);stroke-opacity:1;stroke-miterlimit:1;" d="M 156.621094 116.703125 L 156.621094 116.703125 "/>
<path style="fill:none;stroke-width:1.066978;stroke-linecap:butt;stroke-linejoin:round;stroke:rgb(0%,0%,0%);stroke-opacity:1;stroke-miterlimit:1;" d="M 203.347656 107.75 L 203.347656 107.75 "/>
<path style="fill:none;stroke-width:1.066978;stroke-linecap:butt;stroke-linejoin:round;stroke:rgb(0%,0%,0%);stroke-opacity:1;stroke-miterlimit:1;" d="M 203.347656 107.75 L 86.644531 107.75 "/>
<path style="fill:none;stroke-width:1.066978;stroke-linecap:butt;stroke-linejoin:round;stroke:rgb(0%,0%,0%);stroke-opacity:1;stroke-miterlimit:1;" d="M 86.644531 107.75 L 86.644531 107.75 "/>
<path style="fill:none;stroke-width:1.066978;stroke-linecap:butt;stroke-linejoin:round;stroke:rgb(0%,0%,0%);stroke-opacity:1;stroke-miterlimit:1;" d="M 224.933594 98.796875 L 224.933594 98.796875 "/>
<path style="fill:none;stroke-width:1.066978;stroke-linecap:butt;stroke-linejoin:round;stroke:rgb(0%,0%,0%);stroke-opacity:1;stroke-miterlimit:1;" d="M 224.933594 98.796875 L 151.917969 98.796875 "/>
<path style="fill:none;stroke-width:1.066978;stroke-linecap:butt;stroke-linejoin:round;stroke:rgb(0%,0%,0%);stroke-opacity:1;stroke-miterlimit:1;" d="M 151.917969 98.796875 L 151.917969 98.796875 "/>
<path style="fill:none;stroke-width:1.066978;stroke-linecap:butt;stroke-linejoin:round;stroke:rgb(0%,0%,0%);stroke-opacity:1;stroke-miterlimit:1;" d="M 279.042969 89.847656 L 279.042969 89.847656 "/>
<path style="fill:none;stroke-width:1.066978;stroke-linecap:butt;stroke-linejoin:round;stroke:rgb(0%,0%,0%);stroke-opacity:1;stroke-miterlimit:1;" d="M 279.042969 89.847656 L 166.613281 89.847656 "/>
<path style="fill:none;stroke-width:1.066978;stroke-linecap:butt;stroke-linejoin:round;stroke:rgb(0%,0%,0%);stroke-opacity:1;stroke-miterlimit:1;" d="M 166.613281 89.847656 L 166.613281 89.847656 "/>
<g clip-path="url(#clip35)" clip-rule="nonzero">
<path style="fill:none;stroke-width:1.066978;stroke-linecap:butt;stroke-linejoin:round;stroke:rgb(100%,0%,0%);stroke-opacity:1;stroke-dasharray:4.267913,4.267913;stroke-miterlimit:10;" d="M 195.472656 122.074219 L 195.472656 84.476562 "/>
</g>
<g clip-path="url(#clip36)" clip-rule="nonzero">
<path style="fill:none;stroke-width:1.066978;stroke-linecap:butt;stroke-linejoin:round;stroke:rgb(0%,0%,100%);stroke-opacity:1;stroke-dasharray:1.066978,3.200935;stroke-miterlimit:10;" d="M 183.558594 122.074219 L 183.558594 84.476562 "/>
</g>
<g clip-path="url(#clip37)" clip-rule="nonzero">
<path style=" stroke:none;fill-rule:nonzero;fill:rgb(0%,0%,100%);fill-opacity:0.2;" d="M 157.160156 122.074219 L 209.953125 122.074219 L 209.953125 84.476562 L 157.160156 84.476562 Z M 157.160156 122.074219 "/>
</g>
<g clip-path="url(#clip38)" clip-rule="nonzero">
<path style="fill:none;stroke-width:1.066978;stroke-linecap:round;stroke-linejoin:round;stroke:rgb(20%,20%,20%);stroke-opacity:1;stroke-miterlimit:10;" d="M 73.890625 122.074219 L 354.519531 122.074219 L 354.519531 84.476562 L 73.890625 84.476562 Z M 73.890625 122.074219 "/>
</g>
<g clip-path="url(#clip39)" clip-rule="nonzero">
<path style=" stroke:none;fill-rule:nonzero;fill:rgb(100%,100%,100%);fill-opacity:1;" d="M 73.890625 183.109375 L 354.519531 183.109375 L 354.519531 145.511719 L 73.890625 145.511719 Z M 73.890625 183.109375 "/>
</g>
<g clip-path="url(#clip40)" clip-rule="nonzero">
<path style="fill:none;stroke-width:0.533489;stroke-linecap:butt;stroke-linejoin:round;stroke:rgb(92.156863%,92.156863%,92.156863%);stroke-opacity:1;stroke-miterlimit:10;" d="M 104.777344 183.109375 L 104.777344 145.511719 "/>
</g>
<g clip-path="url(#clip41)" clip-rule="nonzero">
<path style="fill:none;stroke-width:0.533489;stroke-linecap:butt;stroke-linejoin:round;stroke:rgb(92.156863%,92.156863%,92.156863%);stroke-opacity:1;stroke-miterlimit:10;" d="M 165.242188 183.109375 L 165.242188 145.511719 "/>
</g>
<g clip-path="url(#clip42)" clip-rule="nonzero">
<path style="fill:none;stroke-width:0.533489;stroke-linecap:butt;stroke-linejoin:round;stroke:rgb(92.156863%,92.156863%,92.156863%);stroke-opacity:1;stroke-miterlimit:10;" d="M 225.707031 183.109375 L 225.707031 145.511719 "/>
</g>
<g clip-path="url(#clip43)" clip-rule="nonzero">
<path style="fill:none;stroke-width:0.533489;stroke-linecap:butt;stroke-linejoin:round;stroke:rgb(92.156863%,92.156863%,92.156863%);stroke-opacity:1;stroke-miterlimit:10;" d="M 286.171875 183.109375 L 286.171875 145.511719 "/>
</g>
<g clip-path="url(#clip44)" clip-rule="nonzero">
<path style="fill:none;stroke-width:0.533489;stroke-linecap:butt;stroke-linejoin:round;stroke:rgb(92.156863%,92.156863%,92.156863%);stroke-opacity:1;stroke-miterlimit:10;" d="M 346.636719 183.109375 L 346.636719 145.511719 "/>
</g>
<g clip-path="url(#clip45)" clip-rule="nonzero">
<path style="fill:none;stroke-width:1.066978;stroke-linecap:butt;stroke-linejoin:round;stroke:rgb(92.156863%,92.156863%,92.156863%);stroke-opacity:1;stroke-miterlimit:10;" d="M 73.890625 177.738281 L 354.519531 177.738281 "/>
</g>
<g clip-path="url(#clip46)" clip-rule="nonzero">
<path style="fill:none;stroke-width:1.066978;stroke-linecap:butt;stroke-linejoin:round;stroke:rgb(92.156863%,92.156863%,92.156863%);stroke-opacity:1;stroke-miterlimit:10;" d="M 73.890625 168.785156 L 354.519531 168.785156 "/>
</g>
<g clip-path="url(#clip47)" clip-rule="nonzero">
<path style="fill:none;stroke-width:1.066978;stroke-linecap:butt;stroke-linejoin:round;stroke:rgb(92.156863%,92.156863%,92.156863%);stroke-opacity:1;stroke-miterlimit:10;" d="M 73.890625 159.835938 L 354.519531 159.835938 "/>
</g>
<g clip-path="url(#clip48)" clip-rule="nonzero">
<path style="fill:none;stroke-width:1.066978;stroke-linecap:butt;stroke-linejoin:round;stroke:rgb(92.156863%,92.156863%,92.156863%);stroke-opacity:1;stroke-miterlimit:10;" d="M 73.890625 150.882812 L 354.519531 150.882812 "/>
</g>
<g clip-path="url(#clip49)" clip-rule="nonzero">
<path style="fill:none;stroke-width:1.066978;stroke-linecap:butt;stroke-linejoin:round;stroke:rgb(92.156863%,92.156863%,92.156863%);stroke-opacity:1;stroke-miterlimit:10;" d="M 74.542969 183.109375 L 74.542969 145.511719 "/>
</g>
<g clip-path="url(#clip50)" clip-rule="nonzero">
<path style="fill:none;stroke-width:1.066978;stroke-linecap:butt;stroke-linejoin:round;stroke:rgb(92.156863%,92.156863%,92.156863%);stroke-opacity:1;stroke-miterlimit:10;" d="M 135.007812 183.109375 L 135.007812 145.511719 "/>
</g>
<g clip-path="url(#clip51)" clip-rule="nonzero">
<path style="fill:none;stroke-width:1.066978;stroke-linecap:butt;stroke-linejoin:round;stroke:rgb(92.156863%,92.156863%,92.156863%);stroke-opacity:1;stroke-miterlimit:10;" d="M 195.472656 183.109375 L 195.472656 145.511719 "/>
</g>
<g clip-path="url(#clip52)" clip-rule="nonzero">
<path style="fill:none;stroke-width:1.066978;stroke-linecap:butt;stroke-linejoin:round;stroke:rgb(92.156863%,92.156863%,92.156863%);stroke-opacity:1;stroke-miterlimit:10;" d="M 255.9375 183.109375 L 255.9375 145.511719 "/>
</g>
<g clip-path="url(#clip53)" clip-rule="nonzero">
<path style="fill:none;stroke-width:1.066978;stroke-linecap:butt;stroke-linejoin:round;stroke:rgb(92.156863%,92.156863%,92.156863%);stroke-opacity:1;stroke-miterlimit:10;" d="M 316.402344 183.109375 L 316.402344 145.511719 "/>
</g>
<path style="fill-rule:nonzero;fill:rgb(0%,0%,0%);fill-opacity:1;stroke-width:0.708661;stroke-linecap:round;stroke-linejoin:round;stroke:rgb(0%,0%,0%);stroke-opacity:1;stroke-miterlimit:10;" d="M 228.355469 177.738281 C 228.355469 180.34375 224.445312 180.34375 224.445312 177.738281 C 224.445312 175.132812 228.355469 175.132812 228.355469 177.738281 "/>
<path style="fill-rule:nonzero;fill:rgb(0%,0%,0%);fill-opacity:1;stroke-width:0.708661;stroke-linecap:round;stroke-linejoin:round;stroke:rgb(0%,0%,0%);stroke-opacity:1;stroke-miterlimit:10;" d="M 217.203125 168.785156 C 217.203125 171.394531 213.292969 171.394531 213.292969 168.785156 C 213.292969 166.179688 217.203125 166.179688 217.203125 168.785156 "/>
<path style="fill-rule:nonzero;fill:rgb(0%,0%,0%);fill-opacity:1;stroke-width:0.708661;stroke-linecap:round;stroke-linejoin:round;stroke:rgb(0%,0%,0%);stroke-opacity:1;stroke-miterlimit:10;" d="M 219.835938 159.835938 C 219.835938 162.441406 215.925781 162.441406 215.925781 159.835938 C 215.925781 157.226562 219.835938 157.226562 219.835938 159.835938 "/>
<path style="fill-rule:nonzero;fill:rgb(0%,0%,0%);fill-opacity:1;stroke-width:0.708661;stroke-linecap:round;stroke-linejoin:round;stroke:rgb(0%,0%,0%);stroke-opacity:1;stroke-miterlimit:10;" d="M 259.621094 150.882812 C 259.621094 153.488281 255.710938 153.488281 255.710938 150.882812 C 255.710938 148.277344 259.621094 148.277344 259.621094 150.882812 "/>
<path style="fill:none;stroke-width:1.066978;stroke-linecap:butt;stroke-linejoin:round;stroke:rgb(74.509804%,74.509804%,74.509804%);stroke-opacity:1;stroke-miterlimit:1;" d="M 215.246094 168.785156 L 217.882812 159.835938 L 257.664062 150.882812 "/>
<path style="fill:none;stroke-width:1.066978;stroke-linecap:butt;stroke-linejoin:round;stroke:rgb(0%,0%,0%);stroke-opacity:1;stroke-miterlimit:1;" d="M 262.332031 177.738281 L 262.332031 177.738281 "/>
<path style="fill:none;stroke-width:1.066978;stroke-linecap:butt;stroke-linejoin:round;stroke:rgb(0%,0%,0%);stroke-opacity:1;stroke-miterlimit:1;" d="M 262.332031 177.738281 L 190.46875 177.738281 "/>
<path style="fill:none;stroke-width:1.066978;stroke-linecap:butt;stroke-linejoin:round;stroke:rgb(0%,0%,0%);stroke-opacity:1;stroke-miterlimit:1;" d="M 190.46875 177.738281 L 190.46875 177.738281 "/>
<path style="fill:none;stroke-width:1.066978;stroke-linecap:butt;stroke-linejoin:round;stroke:rgb(0%,0%,0%);stroke-opacity:1;stroke-miterlimit:1;" d="M 287.203125 168.785156 L 287.203125 168.785156 "/>
<path style="fill:none;stroke-width:1.066978;stroke-linecap:butt;stroke-linejoin:round;stroke:rgb(0%,0%,0%);stroke-opacity:1;stroke-miterlimit:1;" d="M 287.203125 168.785156 L 143.292969 168.785156 "/>
<path style="fill:none;stroke-width:1.066978;stroke-linecap:butt;stroke-linejoin:round;stroke:rgb(0%,0%,0%);stroke-opacity:1;stroke-miterlimit:1;" d="M 143.292969 168.785156 L 143.292969 168.785156 "/>
<path style="fill:none;stroke-width:1.066978;stroke-linecap:butt;stroke-linejoin:round;stroke:rgb(0%,0%,0%);stroke-opacity:1;stroke-miterlimit:1;" d="M 266.890625 159.835938 L 266.890625 159.835938 "/>
<path style="fill:none;stroke-width:1.066978;stroke-linecap:butt;stroke-linejoin:round;stroke:rgb(0%,0%,0%);stroke-opacity:1;stroke-miterlimit:1;" d="M 266.890625 159.835938 L 168.875 159.835938 "/>
<path style="fill:none;stroke-width:1.066978;stroke-linecap:butt;stroke-linejoin:round;stroke:rgb(0%,0%,0%);stroke-opacity:1;stroke-miterlimit:1;" d="M 168.875 159.835938 L 168.875 159.835938 "/>
<path style="fill:none;stroke-width:1.066978;stroke-linecap:butt;stroke-linejoin:round;stroke:rgb(0%,0%,0%);stroke-opacity:1;stroke-miterlimit:1;" d="M 341.765625 150.882812 L 341.765625 150.882812 "/>
<path style="fill:none;stroke-width:1.066978;stroke-linecap:butt;stroke-linejoin:round;stroke:rgb(0%,0%,0%);stroke-opacity:1;stroke-miterlimit:1;" d="M 341.765625 150.882812 L 173.566406 150.882812 "/>
<path style="fill:none;stroke-width:1.066978;stroke-linecap:butt;stroke-linejoin:round;stroke:rgb(0%,0%,0%);stroke-opacity:1;stroke-miterlimit:1;" d="M 173.566406 150.882812 L 173.566406 150.882812 "/>
<g clip-path="url(#clip54)" clip-rule="nonzero">
<path style="fill:none;stroke-width:1.066978;stroke-linecap:butt;stroke-linejoin:round;stroke:rgb(100%,0%,0%);stroke-opacity:1;stroke-dasharray:4.267913,4.267913;stroke-miterlimit:10;" d="M 195.472656 183.109375 L 195.472656 145.511719 "/>
</g>
<g clip-path="url(#clip55)" clip-rule="nonzero">
<path style="fill:none;stroke-width:1.066978;stroke-linecap:butt;stroke-linejoin:round;stroke:rgb(0%,0%,100%);stroke-opacity:1;stroke-dasharray:1.066978,3.200935;stroke-miterlimit:10;" d="M 226.398438 183.109375 L 226.398438 145.511719 "/>
</g>
<g clip-path="url(#clip56)" clip-rule="nonzero">
<path style=" stroke:none;fill-rule:nonzero;fill:rgb(0%,0%,100%);fill-opacity:0.2;" d="M 191.1875 183.109375 L 261.613281 183.109375 L 261.613281 145.511719 L 191.1875 145.511719 Z M 191.1875 183.109375 "/>
</g>
<g clip-path="url(#clip57)" clip-rule="nonzero">
<path style="fill:none;stroke-width:1.066978;stroke-linecap:round;stroke-linejoin:round;stroke:rgb(20%,20%,20%);stroke-opacity:1;stroke-miterlimit:10;" d="M 73.890625 183.109375 L 354.519531 183.109375 L 354.519531 145.511719 L 73.890625 145.511719 Z M 73.890625 183.109375 "/>
</g>
<g clip-path="url(#clip58)" clip-rule="nonzero">
<path style=" stroke:none;fill-rule:nonzero;fill:rgb(85.098039%,85.098039%,85.098039%);fill-opacity:1;" d="M 73.890625 145.511719 L 354.519531 145.511719 L 354.519531 127.554688 L 73.890625 127.554688 Z M 73.890625 145.511719 "/>
</g>
<g clip-path="url(#clip59)" clip-rule="nonzero">
<path style="fill:none;stroke-width:1.066978;stroke-linecap:round;stroke-linejoin:round;stroke:rgb(20%,20%,20%);stroke-opacity:1;stroke-miterlimit:10;" d="M 73.890625 145.511719 L 354.519531 145.511719 L 354.519531 127.554688 L 73.890625 127.554688 Z M 73.890625 145.511719 "/>
</g>
<g style="fill:rgb(10.196078%,10.196078%,10.196078%);fill-opacity:1;">
  <use xlink:href="#glyph0-1" x="160.207031" y="139.133789"/>
  <use xlink:href="#glyph0-2" x="166.472656" y="139.133789"/>
  <use xlink:href="#glyph0-3" x="171.365234" y="139.133789"/>
  <use xlink:href="#glyph0-4" x="175.765625" y="139.133789"/>
  <use xlink:href="#glyph0-5" x="180.658203" y="139.133789"/>
  <use xlink:href="#glyph0-5" x="187.988281" y="139.133789"/>
  <use xlink:href="#glyph0-2" x="195.318359" y="139.133789"/>
  <use xlink:href="#glyph0-6" x="200.210938" y="139.133789"/>
  <use xlink:href="#glyph0-7" x="205.103516" y="139.133789"/>
  <use xlink:href="#glyph0-8" x="209.996094" y="139.133789"/>
  <use xlink:href="#glyph0-9" x="212.442383" y="139.133789"/>
  <use xlink:href="#glyph0-10" x="217.334961" y="139.133789"/>
  <use xlink:href="#glyph0-11" x="219.288086" y="139.133789"/>
  <use xlink:href="#glyph0-12" x="224.180664" y="139.133789"/>
  <use xlink:href="#glyph0-13" x="226.626953" y="139.133789"/>
  <use xlink:href="#glyph0-4" x="228.985352" y="139.133789"/>
  <use xlink:href="#glyph0-14" x="233.87793" y="139.133789"/>
  <use xlink:href="#glyph0-5" x="236.808594" y="139.133789"/>
  <use xlink:href="#glyph0-8" x="244.138672" y="139.133789"/>
  <use xlink:href="#glyph0-15" x="246.584961" y="139.133789"/>
  <use xlink:href="#glyph0-3" x="250.985352" y="139.133789"/>
  <use xlink:href="#glyph0-4" x="255.385742" y="139.133789"/>
  <use xlink:href="#glyph0-14" x="260.27832" y="139.133789"/>
  <use xlink:href="#glyph0-2" x="263.121094" y="139.133789"/>
</g>
<g clip-path="url(#clip60)" clip-rule="nonzero">
<path style=" stroke:none;fill-rule:nonzero;fill:rgb(85.098039%,85.098039%,85.098039%);fill-opacity:1;" d="M 73.890625 84.476562 L 354.519531 84.476562 L 354.519531 66.519531 L 73.890625 66.519531 Z M 73.890625 84.476562 "/>
</g>
<g clip-path="url(#clip61)" clip-rule="nonzero">
<path style="fill:none;stroke-width:1.066978;stroke-linecap:round;stroke-linejoin:round;stroke:rgb(20%,20%,20%);stroke-opacity:1;stroke-miterlimit:10;" d="M 73.890625 84.476562 L 354.519531 84.476562 L 354.519531 66.519531 L 73.890625 66.519531 Z M 73.890625 84.476562 "/>
</g>
<g style="fill:rgb(10.196078%,10.196078%,10.196078%);fill-opacity:1;">
  <use xlink:href="#glyph0-16" x="170.707031" y="78.098633"/>
  <use xlink:href="#glyph0-2" x="175.864258" y="78.098633"/>
  <use xlink:href="#glyph0-2" x="180.756836" y="78.098633"/>
  <use xlink:href="#glyph0-7" x="185.649414" y="78.098633"/>
  <use xlink:href="#glyph0-17" x="190.541992" y="78.098633"/>
  <use xlink:href="#glyph0-11" x="195.43457" y="78.098633"/>
  <use xlink:href="#glyph0-3" x="200.327148" y="78.098633"/>
  <use xlink:href="#glyph0-18" x="204.771484" y="78.098633"/>
  <use xlink:href="#glyph0-8" x="209.171875" y="78.098633"/>
  <use xlink:href="#glyph0-12" x="211.618164" y="78.098633"/>
  <use xlink:href="#glyph0-4" x="213.976562" y="78.098633"/>
  <use xlink:href="#glyph0-8" x="218.869141" y="78.098633"/>
  <use xlink:href="#glyph0-2" x="221.31543" y="78.098633"/>
  <use xlink:href="#glyph0-5" x="226.208008" y="78.098633"/>
  <use xlink:href="#glyph0-9" x="233.582031" y="78.098633"/>
  <use xlink:href="#glyph0-10" x="238.474609" y="78.098633"/>
  <use xlink:href="#glyph0-4" x="240.427734" y="78.098633"/>
  <use xlink:href="#glyph0-19" x="245.144531" y="78.098633"/>
  <use xlink:href="#glyph0-2" x="249.325195" y="78.098633"/>
  <use xlink:href="#glyph0-14" x="254.217773" y="78.098633"/>
</g>
<g clip-path="url(#clip62)" clip-rule="nonzero">
<path style=" stroke:none;fill-rule:nonzero;fill:rgb(85.098039%,85.098039%,85.098039%);fill-opacity:1;" d="M 73.890625 23.4375 L 354.519531 23.4375 L 354.519531 5.480469 L 73.890625 5.480469 Z M 73.890625 23.4375 "/>
</g>
<g clip-path="url(#clip63)" clip-rule="nonzero">
<path style="fill:none;stroke-width:1.066978;stroke-linecap:round;stroke-linejoin:round;stroke:rgb(20%,20%,20%);stroke-opacity:1;stroke-miterlimit:10;" d="M 73.890625 23.4375 L 354.519531 23.4375 L 354.519531 5.480469 L 73.890625 5.480469 Z M 73.890625 23.4375 "/>
</g>
<g style="fill:rgb(10.196078%,10.196078%,10.196078%);fill-opacity:1;">
  <use xlink:href="#glyph0-16" x="175.707031" y="17.05957"/>
  <use xlink:href="#glyph0-2" x="180.864258" y="17.05957"/>
  <use xlink:href="#glyph0-2" x="185.756836" y="17.05957"/>
  <use xlink:href="#glyph0-7" x="190.649414" y="17.05957"/>
  <use xlink:href="#glyph0-17" x="195.541992" y="17.05957"/>
  <use xlink:href="#glyph0-11" x="200.43457" y="17.05957"/>
  <use xlink:href="#glyph0-3" x="205.327148" y="17.05957"/>
  <use xlink:href="#glyph0-18" x="209.771484" y="17.05957"/>
  <use xlink:href="#glyph0-8" x="214.171875" y="17.05957"/>
  <use xlink:href="#glyph0-12" x="216.618164" y="17.05957"/>
  <use xlink:href="#glyph0-4" x="218.976562" y="17.05957"/>
  <use xlink:href="#glyph0-8" x="223.869141" y="17.05957"/>
  <use xlink:href="#glyph0-20" x="226.31543" y="17.05957"/>
  <use xlink:href="#glyph0-4" x="232.581055" y="17.05957"/>
  <use xlink:href="#glyph0-14" x="237.473633" y="17.05957"/>
  <use xlink:href="#glyph0-18" x="240.448242" y="17.05957"/>
  <use xlink:href="#glyph0-2" x="244.672852" y="17.05957"/>
  <use xlink:href="#glyph0-14" x="249.56543" y="17.05957"/>
</g>
<path style="fill:none;stroke-width:1.066978;stroke-linecap:butt;stroke-linejoin:round;stroke:rgb(20%,20%,20%);stroke-opacity:1;stroke-miterlimit:10;" d="M 74.542969 185.847656 L 74.542969 183.109375 "/>
<path style="fill:none;stroke-width:1.066978;stroke-linecap:butt;stroke-linejoin:round;stroke:rgb(20%,20%,20%);stroke-opacity:1;stroke-miterlimit:10;" d="M 135.007812 185.847656 L 135.007812 183.109375 "/>
<path style="fill:none;stroke-width:1.066978;stroke-linecap:butt;stroke-linejoin:round;stroke:rgb(20%,20%,20%);stroke-opacity:1;stroke-miterlimit:10;" d="M 195.472656 185.847656 L 195.472656 183.109375 "/>
<path style="fill:none;stroke-width:1.066978;stroke-linecap:butt;stroke-linejoin:round;stroke:rgb(20%,20%,20%);stroke-opacity:1;stroke-miterlimit:10;" d="M 255.9375 185.847656 L 255.9375 183.109375 "/>
<path style="fill:none;stroke-width:1.066978;stroke-linecap:butt;stroke-linejoin:round;stroke:rgb(20%,20%,20%);stroke-opacity:1;stroke-miterlimit:10;" d="M 316.402344 185.847656 L 316.402344 183.109375 "/>
<g style="fill:rgb(30.196078%,30.196078%,30.196078%);fill-opacity:1;">
  <use xlink:href="#glyph0-21" x="64.042969" y="194.145508"/>
  <use xlink:href="#glyph0-22" x="66.973633" y="194.145508"/>
  <use xlink:href="#glyph0-23" x="71.866211" y="194.145508"/>
  <use xlink:href="#glyph0-24" x="74.3125" y="194.145508"/>
  <use xlink:href="#glyph0-22" x="79.205078" y="194.145508"/>
</g>
<g style="fill:rgb(30.196078%,30.196078%,30.196078%);fill-opacity:1;">
  <use xlink:href="#glyph0-21" x="124.507812" y="194.145508"/>
  <use xlink:href="#glyph0-22" x="127.438477" y="194.145508"/>
  <use xlink:href="#glyph0-23" x="132.331055" y="194.145508"/>
  <use xlink:href="#glyph0-22" x="134.777344" y="194.145508"/>
  <use xlink:href="#glyph0-25" x="139.669922" y="194.145508"/>
</g>
<g style="fill:rgb(30.196078%,30.196078%,30.196078%);fill-opacity:1;">
  <use xlink:href="#glyph0-22" x="186.472656" y="194.145508"/>
  <use xlink:href="#glyph0-23" x="191.365234" y="194.145508"/>
  <use xlink:href="#glyph0-22" x="193.811523" y="194.145508"/>
  <use xlink:href="#glyph0-22" x="198.704102" y="194.145508"/>
</g>
<g style="fill:rgb(30.196078%,30.196078%,30.196078%);fill-opacity:1;">
  <use xlink:href="#glyph0-22" x="246.9375" y="194.145508"/>
  <use xlink:href="#glyph0-23" x="251.830078" y="194.145508"/>
  <use xlink:href="#glyph0-22" x="254.276367" y="194.145508"/>
  <use xlink:href="#glyph0-25" x="259.168945" y="194.145508"/>
</g>
<g style="fill:rgb(30.196078%,30.196078%,30.196078%);fill-opacity:1;">
  <use xlink:href="#glyph0-22" x="307.402344" y="194.145508"/>
  <use xlink:href="#glyph0-23" x="312.294922" y="194.145508"/>
  <use xlink:href="#glyph0-24" x="314.741211" y="194.145508"/>
  <use xlink:href="#glyph0-22" x="319.633789" y="194.145508"/>
</g>
<g style="fill:rgb(30.196078%,30.196078%,30.196078%);fill-opacity:1;">
  <use xlink:href="#glyph0-26" x="40.957031" y="58.266602"/>
  <use xlink:href="#glyph0-4" x="46.606445" y="58.266602"/>
  <use xlink:href="#glyph0-4" x="51.499023" y="58.266602"/>
  <use xlink:href="#glyph0-10" x="56.391602" y="58.266602"/>
  <use xlink:href="#glyph0-2" x="58.344727" y="58.266602"/>
  <use xlink:href="#glyph0-7" x="63.237305" y="58.266602"/>
</g>
<g style="fill:rgb(30.196078%,30.196078%,30.196078%);fill-opacity:1;">
  <use xlink:href="#glyph0-27" x="34.957031" y="49.317383"/>
  <use xlink:href="#glyph0-4" x="39.849609" y="49.317383"/>
  <use xlink:href="#glyph0-20" x="44.654297" y="49.317383"/>
  <use xlink:href="#glyph0-8" x="51.007812" y="49.317383"/>
  <use xlink:href="#glyph0-28" x="53.454102" y="49.317383"/>
  <use xlink:href="#glyph0-29" x="58.831055" y="49.317383"/>
  <use xlink:href="#glyph0-2" x="60.78418" y="49.317383"/>
  <use xlink:href="#glyph0-14" x="65.676758" y="49.317383"/>
</g>
<g style="fill:rgb(30.196078%,30.196078%,30.196078%);fill-opacity:1;">
  <use xlink:href="#glyph0-30" x="19.957031" y="40.364258"/>
  <use xlink:href="#glyph0-2" x="27.287109" y="40.364258"/>
  <use xlink:href="#glyph0-7" x="32.179688" y="40.364258"/>
  <use xlink:href="#glyph0-29" x="37.072266" y="40.364258"/>
  <use xlink:href="#glyph0-31" x="39.025391" y="40.364258"/>
  <use xlink:href="#glyph0-5" x="43.917969" y="40.364258"/>
  <use xlink:href="#glyph0-8" x="51.248047" y="40.364258"/>
  <use xlink:href="#glyph0-28" x="53.694336" y="40.364258"/>
  <use xlink:href="#glyph0-29" x="59.071289" y="40.364258"/>
  <use xlink:href="#glyph0-2" x="61.024414" y="40.364258"/>
  <use xlink:href="#glyph0-14" x="65.916992" y="40.364258"/>
</g>
<g style="fill:rgb(30.196078%,30.196078%,30.196078%);fill-opacity:1;">
  <use xlink:href="#glyph0-32" x="32.957031" y="31.411133"/>
  <use xlink:href="#glyph0-29" x="39.310547" y="31.411133"/>
  <use xlink:href="#glyph0-33" x="41.263672" y="31.411133"/>
  <use xlink:href="#glyph0-34" x="46.15625" y="31.411133"/>
  <use xlink:href="#glyph0-8" x="51.048828" y="31.411133"/>
  <use xlink:href="#glyph0-28" x="53.495117" y="31.411133"/>
  <use xlink:href="#glyph0-29" x="58.87207" y="31.411133"/>
  <use xlink:href="#glyph0-2" x="60.825195" y="31.411133"/>
  <use xlink:href="#glyph0-14" x="65.717773" y="31.411133"/>
</g>
<path style="fill:none;stroke-width:1.066978;stroke-linecap:butt;stroke-linejoin:round;stroke:rgb(20%,20%,20%);stroke-opacity:1;stroke-miterlimit:10;" d="M 71.152344 55.664062 L 73.890625 55.664062 "/>
<path style="fill:none;stroke-width:1.066978;stroke-linecap:butt;stroke-linejoin:round;stroke:rgb(20%,20%,20%);stroke-opacity:1;stroke-miterlimit:10;" d="M 71.152344 46.714844 L 73.890625 46.714844 "/>
<path style="fill:none;stroke-width:1.066978;stroke-linecap:butt;stroke-linejoin:round;stroke:rgb(20%,20%,20%);stroke-opacity:1;stroke-miterlimit:10;" d="M 71.152344 37.761719 L 73.890625 37.761719 "/>
<path style="fill:none;stroke-width:1.066978;stroke-linecap:butt;stroke-linejoin:round;stroke:rgb(20%,20%,20%);stroke-opacity:1;stroke-miterlimit:10;" d="M 71.152344 28.808594 L 73.890625 28.808594 "/>
<g style="fill:rgb(30.196078%,30.196078%,30.196078%);fill-opacity:1;">
  <use xlink:href="#glyph0-26" x="40.957031" y="119.305664"/>
  <use xlink:href="#glyph0-4" x="46.606445" y="119.305664"/>
  <use xlink:href="#glyph0-4" x="51.499023" y="119.305664"/>
  <use xlink:href="#glyph0-10" x="56.391602" y="119.305664"/>
  <use xlink:href="#glyph0-2" x="58.344727" y="119.305664"/>
  <use xlink:href="#glyph0-7" x="63.237305" y="119.305664"/>
</g>
<g style="fill:rgb(30.196078%,30.196078%,30.196078%);fill-opacity:1;">
  <use xlink:href="#glyph0-27" x="34.957031" y="110.352539"/>
  <use xlink:href="#glyph0-4" x="39.849609" y="110.352539"/>
  <use xlink:href="#glyph0-20" x="44.654297" y="110.352539"/>
  <use xlink:href="#glyph0-8" x="51.007812" y="110.352539"/>
  <use xlink:href="#glyph0-28" x="53.454102" y="110.352539"/>
  <use xlink:href="#glyph0-29" x="58.831055" y="110.352539"/>
  <use xlink:href="#glyph0-2" x="60.78418" y="110.352539"/>
  <use xlink:href="#glyph0-14" x="65.676758" y="110.352539"/>
</g>
<g style="fill:rgb(30.196078%,30.196078%,30.196078%);fill-opacity:1;">
  <use xlink:href="#glyph0-30" x="19.957031" y="101.399414"/>
  <use xlink:href="#glyph0-2" x="27.287109" y="101.399414"/>
  <use xlink:href="#glyph0-7" x="32.179688" y="101.399414"/>
  <use xlink:href="#glyph0-29" x="37.072266" y="101.399414"/>
  <use xlink:href="#glyph0-31" x="39.025391" y="101.399414"/>
  <use xlink:href="#glyph0-5" x="43.917969" y="101.399414"/>
  <use xlink:href="#glyph0-8" x="51.248047" y="101.399414"/>
  <use xlink:href="#glyph0-28" x="53.694336" y="101.399414"/>
  <use xlink:href="#glyph0-29" x="59.071289" y="101.399414"/>
  <use xlink:href="#glyph0-2" x="61.024414" y="101.399414"/>
  <use xlink:href="#glyph0-14" x="65.916992" y="101.399414"/>
</g>
<g style="fill:rgb(30.196078%,30.196078%,30.196078%);fill-opacity:1;">
  <use xlink:href="#glyph0-32" x="32.957031" y="92.450195"/>
  <use xlink:href="#glyph0-29" x="39.310547" y="92.450195"/>
  <use xlink:href="#glyph0-33" x="41.263672" y="92.450195"/>
  <use xlink:href="#glyph0-34" x="46.15625" y="92.450195"/>
  <use xlink:href="#glyph0-8" x="51.048828" y="92.450195"/>
  <use xlink:href="#glyph0-28" x="53.495117" y="92.450195"/>
  <use xlink:href="#glyph0-29" x="58.87207" y="92.450195"/>
  <use xlink:href="#glyph0-2" x="60.825195" y="92.450195"/>
  <use xlink:href="#glyph0-14" x="65.717773" y="92.450195"/>
</g>
<path style="fill:none;stroke-width:1.066978;stroke-linecap:butt;stroke-linejoin:round;stroke:rgb(20%,20%,20%);stroke-opacity:1;stroke-miterlimit:10;" d="M 71.152344 116.703125 L 73.890625 116.703125 "/>
<path style="fill:none;stroke-width:1.066978;stroke-linecap:butt;stroke-linejoin:round;stroke:rgb(20%,20%,20%);stroke-opacity:1;stroke-miterlimit:10;" d="M 71.152344 107.75 L 73.890625 107.75 "/>
<path style="fill:none;stroke-width:1.066978;stroke-linecap:butt;stroke-linejoin:round;stroke:rgb(20%,20%,20%);stroke-opacity:1;stroke-miterlimit:10;" d="M 71.152344 98.796875 L 73.890625 98.796875 "/>
<path style="fill:none;stroke-width:1.066978;stroke-linecap:butt;stroke-linejoin:round;stroke:rgb(20%,20%,20%);stroke-opacity:1;stroke-miterlimit:10;" d="M 71.152344 89.847656 L 73.890625 89.847656 "/>
<g style="fill:rgb(30.196078%,30.196078%,30.196078%);fill-opacity:1;">
  <use xlink:href="#glyph0-26" x="40.957031" y="180.34082"/>
  <use xlink:href="#glyph0-4" x="46.606445" y="180.34082"/>
  <use xlink:href="#glyph0-4" x="51.499023" y="180.34082"/>
  <use xlink:href="#glyph0-10" x="56.391602" y="180.34082"/>
  <use xlink:href="#glyph0-2" x="58.344727" y="180.34082"/>
  <use xlink:href="#glyph0-7" x="63.237305" y="180.34082"/>
</g>
<g style="fill:rgb(30.196078%,30.196078%,30.196078%);fill-opacity:1;">
  <use xlink:href="#glyph0-27" x="34.957031" y="171.387695"/>
  <use xlink:href="#glyph0-4" x="39.849609" y="171.387695"/>
  <use xlink:href="#glyph0-20" x="44.654297" y="171.387695"/>
  <use xlink:href="#glyph0-8" x="51.007812" y="171.387695"/>
  <use xlink:href="#glyph0-28" x="53.454102" y="171.387695"/>
  <use xlink:href="#glyph0-29" x="58.831055" y="171.387695"/>
  <use xlink:href="#glyph0-2" x="60.78418" y="171.387695"/>
  <use xlink:href="#glyph0-14" x="65.676758" y="171.387695"/>
</g>
<g style="fill:rgb(30.196078%,30.196078%,30.196078%);fill-opacity:1;">
  <use xlink:href="#glyph0-30" x="19.957031" y="162.438477"/>
  <use xlink:href="#glyph0-2" x="27.287109" y="162.438477"/>
  <use xlink:href="#glyph0-7" x="32.179688" y="162.438477"/>
  <use xlink:href="#glyph0-29" x="37.072266" y="162.438477"/>
  <use xlink:href="#glyph0-31" x="39.025391" y="162.438477"/>
  <use xlink:href="#glyph0-5" x="43.917969" y="162.438477"/>
  <use xlink:href="#glyph0-8" x="51.248047" y="162.438477"/>
  <use xlink:href="#glyph0-28" x="53.694336" y="162.438477"/>
  <use xlink:href="#glyph0-29" x="59.071289" y="162.438477"/>
  <use xlink:href="#glyph0-2" x="61.024414" y="162.438477"/>
  <use xlink:href="#glyph0-14" x="65.916992" y="162.438477"/>
</g>
<g style="fill:rgb(30.196078%,30.196078%,30.196078%);fill-opacity:1;">
  <use xlink:href="#glyph0-32" x="32.957031" y="153.485352"/>
  <use xlink:href="#glyph0-29" x="39.310547" y="153.485352"/>
  <use xlink:href="#glyph0-33" x="41.263672" y="153.485352"/>
  <use xlink:href="#glyph0-34" x="46.15625" y="153.485352"/>
  <use xlink:href="#glyph0-8" x="51.048828" y="153.485352"/>
  <use xlink:href="#glyph0-28" x="53.495117" y="153.485352"/>
  <use xlink:href="#glyph0-29" x="58.87207" y="153.485352"/>
  <use xlink:href="#glyph0-2" x="60.825195" y="153.485352"/>
  <use xlink:href="#glyph0-14" x="65.717773" y="153.485352"/>
</g>
<path style="fill:none;stroke-width:1.066978;stroke-linecap:butt;stroke-linejoin:round;stroke:rgb(20%,20%,20%);stroke-opacity:1;stroke-miterlimit:10;" d="M 71.152344 177.738281 L 73.890625 177.738281 "/>
<path style="fill:none;stroke-width:1.066978;stroke-linecap:butt;stroke-linejoin:round;stroke:rgb(20%,20%,20%);stroke-opacity:1;stroke-miterlimit:10;" d="M 71.152344 168.785156 L 73.890625 168.785156 "/>
<path style="fill:none;stroke-width:1.066978;stroke-linecap:butt;stroke-linejoin:round;stroke:rgb(20%,20%,20%);stroke-opacity:1;stroke-miterlimit:10;" d="M 71.152344 159.835938 L 73.890625 159.835938 "/>
<path style="fill:none;stroke-width:1.066978;stroke-linecap:butt;stroke-linejoin:round;stroke:rgb(20%,20%,20%);stroke-opacity:1;stroke-miterlimit:10;" d="M 71.152344 150.882812 L 73.890625 150.882812 "/>
<g style="fill:rgb(0%,0%,0%);fill-opacity:1;">
  <use xlink:href="#glyph1-1" x="174.707031" y="209.147461"/>
  <use xlink:href="#glyph1-2" x="180.4375" y="209.147461"/>
  <use xlink:href="#glyph1-3" x="183.990234" y="209.147461"/>
  <use xlink:href="#glyph1-4" x="190.106445" y="209.147461"/>
  <use xlink:href="#glyph1-5" x="196.222656" y="209.147461"/>
  <use xlink:href="#glyph1-6" x="199.280273" y="209.147461"/>
  <use xlink:href="#glyph1-3" x="208.443359" y="209.147461"/>
  <use xlink:href="#glyph1-7" x="214.55957" y="209.147461"/>
  <use xlink:href="#glyph1-5" x="220.675781" y="209.147461"/>
  <use xlink:href="#glyph1-8" x="223.733398" y="209.147461"/>
  <use xlink:href="#glyph1-3" x="226.791016" y="209.147461"/>
  <use xlink:href="#glyph1-9" x="232.907227" y="209.147461"/>
  <use xlink:href="#glyph1-3" x="238.78125" y="209.147461"/>
  <use xlink:href="#glyph1-10" x="244.897461" y="209.147461"/>
  <use xlink:href="#glyph1-5" x="250.397461" y="209.147461"/>
</g>
</g>
</svg>
