<?xml version="1.0" encoding="UTF-8"?>
<svg xmlns="http://www.w3.org/2000/svg" xmlns:xlink="http://www.w3.org/1999/xlink" width="432pt" height="216pt" viewBox="0 0 432 216" version="1.1">
<defs>
<g>
<symbol overflow="visible" id="glyph0-0">
<path style="stroke:none;" d=""/>
</symbol>
<symbol overflow="visible" id="glyph0-1">
<path style="stroke:none;" d="M 5.953125 -1.921875 C 5.953125 -2.78125 5.421875 -3.421875 4.46875 -3.671875 L 2.71875 -4.140625 C 1.875 -4.359375 1.5625 -4.640625 1.5625 -5.1875 C 1.5625 -5.890625 2.1875 -6.421875 3.125 -6.421875 C 4.234375 -6.421875 4.875 -5.90625 4.875 -5 L 5.71875 -5 C 5.71875 -6.375 4.765625 -7.171875 3.15625 -7.171875 C 1.625 -7.171875 0.671875 -6.328125 0.671875 -5.0625 C 0.671875 -4.203125 1.125 -3.671875 2.046875 -3.421875 L 3.78125 -2.96875 C 4.65625 -2.734375 5.0625 -2.375 5.0625 -1.828125 C 5.0625 -1.0625 4.484375 -0.609375 3.28125 -0.609375 C 1.953125 -0.609375 1.3125 -1.28125 1.3125 -2.28125 L 0.453125 -2.28125 C 0.453125 -0.625 1.578125 0.171875 3.21875 0.171875 C 5 0.171875 5.953125 -0.671875 5.953125 -1.921875 Z M 5.953125 -1.921875 "/>
</symbol>
<symbol overflow="visible" id="glyph0-2">
<path style="stroke:none;" d="M 4.65625 0 L 4.65625 -3.796875 C 4.65625 -4.640625 4.0625 -5.171875 3.078125 -5.171875 C 2.375 -5.171875 1.9375 -4.953125 1.46875 -4.34375 L 1.46875 -7 L 0.671875 -7 L 0.671875 0 L 1.46875 0 L 1.46875 -2.765625 C 1.46875 -3.796875 2 -4.46875 2.828125 -4.46875 C 3.390625 -4.46875 3.859375 -4.140625 3.859375 -3.484375 L 3.859375 0 Z M 4.65625 0 "/>
</symbol>
<symbol overflow="visible" id="glyph0-3">
<path style="stroke:none;" d="M 4.890625 -2.46875 C 4.890625 -4.21875 4.0625 -5.171875 2.609375 -5.171875 C 1.203125 -5.171875 0.34375 -4.203125 0.34375 -2.515625 C 0.34375 -0.828125 1.1875 0.140625 2.625 0.140625 C 4.03125 0.140625 4.890625 -0.828125 4.890625 -2.46875 Z M 4.0625 -2.484375 C 4.0625 -1.3125 3.5 -0.59375 2.625 -0.59375 C 1.734375 -0.59375 1.1875 -1.296875 1.1875 -2.515625 C 1.1875 -3.71875 1.734375 -4.4375 2.625 -4.4375 C 3.515625 -4.4375 4.0625 -3.734375 4.0625 -2.484375 Z M 4.0625 -2.484375 "/>
</symbol>
<symbol overflow="visible" id="glyph0-4">
<path style="stroke:none;" d="M 6.796875 -5.03125 L 5.890625 -5.03125 L 4.890625 -1.109375 L 3.90625 -5.03125 L 2.921875 -5.03125 L 1.96875 -1.109375 L 0.9375 -5.03125 L 0.0625 -5.03125 L 1.515625 0 L 2.421875 0 L 3.390625 -3.9375 L 4.40625 0 L 5.3125 0 Z M 6.796875 -5.03125 "/>
</symbol>
<symbol overflow="visible" id="glyph0-5">
<path style="stroke:none;" d="M 4.671875 0 L 4.671875 -3.796875 C 4.671875 -4.640625 4.046875 -5.171875 3.078125 -5.171875 C 2.328125 -5.171875 1.859375 -4.890625 1.40625 -4.1875 L 1.40625 -5.03125 L 0.671875 -5.03125 L 0.671875 0 L 1.46875 0 L 1.46875 -2.765625 C 1.46875 -3.796875 2.03125 -4.46875 2.84375 -4.46875 C 3.46875 -4.46875 3.875 -4.09375 3.875 -3.484375 L 3.875 0 Z M 4.671875 0 "/>
</symbol>
<symbol overflow="visible" id="glyph0-6">
<path style="stroke:none;" d="M 5.921875 -4.9375 C 5.921875 -6.25 5.140625 -7 3.765625 -7 L 0.875 -7 L 0.875 0 L 1.765625 0 L 1.765625 -2.96875 L 3.96875 -2.96875 C 5.109375 -2.96875 5.921875 -3.78125 5.921875 -4.9375 Z M 4.984375 -4.984375 C 4.984375 -4.21875 4.484375 -3.75 3.625 -3.75 L 1.765625 -3.75 L 1.765625 -6.203125 L 3.625 -6.203125 C 4.484375 -6.203125 4.984375 -5.75 4.984375 -4.984375 Z M 4.984375 -4.984375 "/>
</symbol>
<symbol overflow="visible" id="glyph0-7">
<path style="stroke:none;" d="M 3.078125 -4.328125 L 3.078125 -5.140625 C 2.9375 -5.15625 2.875 -5.171875 2.765625 -5.171875 C 2.25 -5.171875 1.859375 -4.859375 1.40625 -4.109375 L 1.40625 -5.03125 L 0.671875 -5.03125 L 0.671875 0 L 1.46875 0 L 1.46875 -2.609375 C 1.46875 -3.734375 1.84375 -4.3125 3.078125 -4.328125 Z M 3.078125 -4.328125 "/>
</symbol>
<symbol overflow="visible" id="glyph0-8">
<path style="stroke:none;" d="M 4.921875 -2.28125 C 4.921875 -3.015625 4.859375 -3.46875 4.71875 -3.84375 C 4.390625 -4.671875 3.625 -5.171875 2.6875 -5.171875 C 1.28125 -5.171875 0.390625 -4.140625 0.390625 -2.484375 C 0.390625 -0.828125 1.25 0.140625 2.671875 0.140625 C 3.8125 0.140625 4.609375 -0.515625 4.8125 -1.53125 L 4.015625 -1.53125 C 3.796875 -0.859375 3.34375 -0.59375 2.703125 -0.59375 C 1.859375 -0.59375 1.234375 -1.125 1.21875 -2.28125 Z M 4.0625 -3 C 4.0625 -3 4.0625 -2.953125 4.0625 -2.9375 L 1.234375 -2.9375 C 1.3125 -3.828125 1.875 -4.4375 2.671875 -4.4375 C 3.46875 -4.4375 4.0625 -3.78125 4.0625 -3 Z M 4.0625 -3 "/>
</symbol>
<symbol overflow="visible" id="glyph0-9">
<path style="stroke:none;" d="M 2.46875 -4.375 L 2.46875 -5.03125 L 1.640625 -5.03125 L 1.640625 -5.8125 C 1.640625 -6.15625 1.828125 -6.328125 2.203125 -6.328125 C 2.265625 -6.328125 2.296875 -6.328125 2.46875 -6.3125 L 2.46875 -6.96875 C 2.296875 -7.015625 2.1875 -7.015625 2.03125 -7.015625 C 1.28125 -7.015625 0.84375 -6.59375 0.84375 -5.875 L 0.84375 -5.03125 L 0.171875 -5.03125 L 0.171875 -4.375 L 0.84375 -4.375 L 0.84375 0 L 1.640625 0 L 1.640625 -4.375 Z M 2.46875 -4.375 "/>
</symbol>
<symbol overflow="visible" id="glyph0-10">
<path style="stroke:none;" d="M 4.953125 -2.9375 L 4.953125 -3.59375 L 0.65625 -3.59375 L 0.65625 -2.9375 Z M 4.953125 -1.203125 L 4.953125 -1.859375 L 0.65625 -1.859375 L 0.65625 -1.203125 Z M 4.953125 -1.203125 "/>
</symbol>
<symbol overflow="visible" id="glyph0-11">
<path style="stroke:none;" d="M 4.859375 -3.265625 C 4.859375 -5.625 4.109375 -6.796875 2.640625 -6.796875 C 1.171875 -6.796875 0.40625 -5.609375 0.40625 -3.328125 C 0.40625 -1.03125 1.1875 0.140625 2.640625 0.140625 C 4.078125 0.140625 4.859375 -1.03125 4.859375 -3.265625 Z M 4 -3.34375 C 4 -1.421875 3.5625 -0.5625 2.625 -0.5625 C 1.734375 -0.5625 1.28125 -1.453125 1.28125 -3.3125 C 1.28125 -5.1875 1.734375 -6.046875 2.640625 -6.046875 C 3.546875 -6.046875 4 -5.171875 4 -3.34375 Z M 4 -3.34375 "/>
</symbol>
<symbol overflow="visible" id="glyph0-12">
<path style="stroke:none;" d="M 3.328125 0 L 3.328125 -6.796875 L 2.765625 -6.796875 C 2.46875 -5.75 2.28125 -5.609375 0.984375 -5.453125 L 0.984375 -4.84375 L 2.484375 -4.84375 L 2.484375 0 Z M 3.328125 0 "/>
</symbol>
<symbol overflow="visible" id="glyph1-0">
<path style="stroke:none;" d=""/>
</symbol>
<symbol overflow="visible" id="glyph1-1">
<path style="stroke:none;" d="M 4.15625 0 L 4.15625 -3.375 C 4.15625 -4.125 3.59375 -4.59375 2.734375 -4.59375 C 2.078125 -4.59375 1.640625 -4.34375 1.25 -3.71875 L 1.25 -4.46875 L 0.59375 -4.46875 L 0.59375 0 L 1.3125 0 L 1.3125 -2.46875 C 1.3125 -3.375 1.796875 -3.96875 2.53125 -3.96875 C 3.09375 -3.96875 3.453125 -3.640625 3.453125 -3.09375 L 3.453125 0 Z M 4.15625 0 "/>
</symbol>
<symbol overflow="visible" id="glyph1-2">
<path style="stroke:none;" d="M 4.40625 -2.625 L 4.40625 -3.203125 L 0.578125 -3.203125 L 0.578125 -2.625 Z M 4.40625 -1.0625 L 4.40625 -1.640625 L 0.578125 -1.640625 L 0.578125 -1.0625 Z M 4.40625 -1.0625 "/>
</symbol>
<symbol overflow="visible" id="glyph1-3">
<path style="stroke:none;" d="M 2.953125 0 L 2.953125 -6.046875 L 2.46875 -6.046875 C 2.203125 -5.125 2.03125 -4.984375 0.875 -4.84375 L 0.875 -4.3125 L 2.203125 -4.3125 L 2.203125 0 Z M 2.953125 0 "/>
</symbol>
<symbol overflow="visible" id="glyph1-4">
<path style="stroke:none;" d="M 4.375 -1.875 C 4.375 -3 3.609375 -3.765625 2.53125 -3.765625 C 1.921875 -3.765625 1.453125 -3.53125 1.140625 -3.09375 C 1.140625 -4.5625 1.625 -5.390625 2.484375 -5.390625 C 3.015625 -5.390625 3.375 -5.046875 3.5 -4.46875 L 4.25 -4.46875 C 4.109375 -5.453125 3.453125 -6.046875 2.53125 -6.046875 C 1.125 -6.046875 0.359375 -4.859375 0.359375 -2.75 C 0.359375 -0.875 1.015625 0.125 2.390625 0.125 C 3.546875 0.125 4.375 -0.6875 4.375 -1.875 Z M 3.609375 -1.8125 C 3.609375 -1.0625 3.09375 -0.53125 2.40625 -0.53125 C 1.703125 -0.53125 1.171875 -1.078125 1.171875 -1.859375 C 1.171875 -2.609375 1.6875 -3.09375 2.4375 -3.09375 C 3.15625 -3.09375 3.609375 -2.625 3.609375 -1.8125 Z M 3.609375 -1.8125 "/>
</symbol>
<symbol overflow="visible" id="glyph1-5">
<path style="stroke:none;" d="M 1.640625 0.140625 L 1.640625 -0.890625 L 0.75 -0.890625 L 0.75 0 L 1.25 0 L 1.25 0.15625 C 1.25 0.75 1.140625 0.90625 0.75 0.9375 L 0.75 1.25 C 1.34375 1.25 1.640625 0.875 1.640625 0.140625 Z M 1.640625 0.140625 "/>
</symbol>
<symbol overflow="visible" id="glyph1-6">
<path style="stroke:none;" d="M 4.34375 -3.171875 C 4.34375 -5.0625 3.6875 -6.046875 2.296875 -6.046875 C 1.15625 -6.046875 0.328125 -5.234375 0.328125 -4.046875 C 0.328125 -2.921875 1.09375 -2.15625 2.1875 -2.15625 C 2.75 -2.15625 3.171875 -2.359375 3.5625 -2.828125 C 3.5625 -1.359375 3.078125 -0.53125 2.21875 -0.53125 C 1.6875 -0.53125 1.328125 -0.875 1.203125 -1.453125 L 0.453125 -1.453125 C 0.59375 -0.453125 1.25 0.125 2.171875 0.125 C 3.578125 0.125 4.34375 -1.078125 4.34375 -3.171875 Z M 3.53125 -4.0625 C 3.53125 -3.3125 3 -2.828125 2.265625 -2.828125 C 1.546875 -2.828125 1.09375 -3.296875 1.09375 -4.109375 C 1.09375 -4.875 1.609375 -5.390625 2.296875 -5.390625 C 3 -5.390625 3.53125 -4.84375 3.53125 -4.0625 Z M 3.53125 -4.0625 "/>
</symbol>
<symbol overflow="visible" id="glyph1-7">
<path style="stroke:none;" d="M 4.3125 -1.75 C 4.3125 -2.484375 4.015625 -2.921875 3.296875 -3.171875 C 3.859375 -3.390625 4.140625 -3.78125 4.140625 -4.390625 C 4.140625 -5.421875 3.453125 -6.046875 2.296875 -6.046875 C 1.078125 -6.046875 0.421875 -5.390625 0.40625 -4.09375 L 1.15625 -4.09375 C 1.171875 -4.984375 1.53125 -5.390625 2.296875 -5.390625 C 2.96875 -5.390625 3.375 -5 3.375 -4.359375 C 3.375 -3.71875 3.09375 -3.453125 1.890625 -3.453125 L 1.890625 -2.8125 L 2.296875 -2.8125 C 3.125 -2.8125 3.546875 -2.421875 3.546875 -1.75 C 3.546875 -0.984375 3.078125 -0.53125 2.296875 -0.53125 C 1.46875 -0.53125 1.078125 -0.953125 1.03125 -1.828125 L 0.265625 -1.828125 C 0.359375 -0.484375 1.03125 0.125 2.265625 0.125 C 3.515625 0.125 4.3125 -0.609375 4.3125 -1.75 Z M 4.3125 -1.75 "/>
</symbol>
<symbol overflow="visible" id="glyph1-8">
<path style="stroke:none;" d="M 4.4375 -5.296875 L 4.4375 -5.921875 L 0.390625 -5.921875 L 0.390625 -5.171875 L 3.65625 -5.171875 C 2.453125 -3.65625 1.609375 -1.890625 1.171875 0 L 1.984375 0 C 2.3125 -1.953125 3.171875 -3.78125 4.4375 -5.296875 Z M 4.4375 -5.296875 "/>
</symbol>
<symbol overflow="visible" id="glyph1-9">
<path style="stroke:none;" d="M 4.375 -1.703125 C 4.375 -2.375 4.03125 -2.84375 3.328125 -3.1875 C 3.953125 -3.5625 4.15625 -3.859375 4.15625 -4.4375 C 4.15625 -5.390625 3.421875 -6.046875 2.34375 -6.046875 C 1.28125 -6.046875 0.53125 -5.390625 0.53125 -4.4375 C 0.53125 -3.875 0.734375 -3.5625 1.34375 -3.1875 C 0.65625 -2.84375 0.3125 -2.375 0.3125 -1.71875 C 0.3125 -0.609375 1.15625 0.125 2.34375 0.125 C 3.546875 0.125 4.375 -0.609375 4.375 -1.703125 Z M 3.390625 -4.421875 C 3.390625 -3.859375 2.984375 -3.484375 2.34375 -3.484375 C 1.71875 -3.484375 1.296875 -3.859375 1.296875 -4.421875 C 1.296875 -5.015625 1.71875 -5.390625 2.34375 -5.390625 C 2.984375 -5.390625 3.390625 -5.015625 3.390625 -4.421875 Z M 3.609375 -1.703125 C 3.609375 -0.984375 3.09375 -0.53125 2.328125 -0.53125 C 1.59375 -0.53125 1.078125 -0.984375 1.078125 -1.703125 C 1.078125 -2.40625 1.59375 -2.84375 2.34375 -2.84375 C 3.09375 -2.84375 3.609375 -2.40625 3.609375 -1.703125 Z M 3.609375 -1.703125 "/>
</symbol>
<symbol overflow="visible" id="glyph2-0">
<path style="stroke:none;" d=""/>
</symbol>
<symbol overflow="visible" id="glyph2-1">
<path style="stroke:none;" d="M 5.75 0 L 3.5 -6.40625 L 2.4375 -6.40625 L 0.15625 0 L 1.015625 0 L 1.703125 -1.921875 L 4.171875 -1.921875 L 4.828125 0 Z M 3.9375 -2.609375 L 1.90625 -2.609375 L 2.953125 -5.53125 Z M 3.9375 -2.609375 "/>
</symbol>
<symbol overflow="visible" id="glyph2-2">
<path style="stroke:none;" d="M 6.6875 0 L 6.6875 -3.453125 C 6.6875 -4.28125 6.234375 -4.734375 5.359375 -4.734375 C 4.75 -4.734375 4.375 -4.5625 3.953125 -4.03125 C 3.671875 -4.53125 3.3125 -4.734375 2.703125 -4.734375 C 2.09375 -4.734375 1.6875 -4.515625 1.296875 -3.953125 L 1.296875 -4.609375 L 0.625 -4.609375 L 0.625 0 L 1.359375 0 L 1.359375 -2.890625 C 1.359375 -3.5625 1.84375 -4.09375 2.4375 -4.09375 C 2.984375 -4.09375 3.296875 -3.765625 3.296875 -3.171875 L 3.296875 0 L 4.015625 0 L 4.015625 -2.890625 C 4.015625 -3.5625 4.515625 -4.09375 5.109375 -4.09375 C 5.640625 -4.09375 5.953125 -3.75 5.953125 -3.171875 L 5.953125 0 Z M 6.6875 0 "/>
</symbol>
<symbol overflow="visible" id="glyph2-3">
<path style="stroke:none;" d="M 4.59375 -2.359375 C 4.59375 -3.859375 3.84375 -4.734375 2.625 -4.734375 C 2 -4.734375 1.546875 -4.5 1.203125 -3.984375 L 1.203125 -6.40625 L 0.46875 -6.40625 L 0.46875 0 L 1.140625 0 L 1.140625 -0.65625 C 1.484375 -0.125 1.953125 0.125 2.59375 0.125 C 3.8125 0.125 4.59375 -0.859375 4.59375 -2.359375 Z M 3.828125 -2.3125 C 3.828125 -1.265625 3.296875 -0.546875 2.484375 -0.546875 C 1.71875 -0.546875 1.203125 -1.265625 1.203125 -2.3125 C 1.203125 -3.390625 1.71875 -4.09375 2.484375 -4.0625 C 3.3125 -4.0625 3.828125 -3.34375 3.828125 -2.3125 Z M 3.828125 -2.3125 "/>
</symbol>
<symbol overflow="visible" id="glyph2-4">
<path style="stroke:none;" d="M 1.34375 0 L 1.34375 -4.609375 L 0.609375 -4.609375 L 0.609375 0 Z M 1.4375 -5.296875 L 1.4375 -6.21875 L 0.53125 -6.21875 L 0.53125 -5.296875 Z M 1.4375 -5.296875 "/>
</symbol>
<symbol overflow="visible" id="glyph2-5">
<path style="stroke:none;" d="M 4.296875 -0.75 L 4.296875 -4.609375 L 3.625 -4.609375 L 3.625 -3.9375 C 3.25 -4.484375 2.8125 -4.734375 2.21875 -4.734375 C 1.046875 -4.734375 0.25 -3.75 0.25 -2.265625 C 0.25 -0.8125 1.078125 0.125 2.15625 0.125 C 2.734375 0.125 3.140625 -0.109375 3.625 -0.6875 L 3.625 -0.390625 C 3.625 0.828125 3.125 1.296875 2.265625 1.296875 C 1.6875 1.296875 1.234375 1.09375 1.15625 0.53125 L 0.40625 0.53125 C 0.484375 1.40625 1.15625 1.921875 2.25 1.921875 C 3.6875 1.921875 4.296875 1.28125 4.296875 -0.75 Z M 3.546875 -2.28125 C 3.546875 -1.171875 3.078125 -0.546875 2.3125 -0.546875 C 1.5 -0.546875 1.015625 -1.1875 1.015625 -2.3125 C 1.015625 -3.40625 1.515625 -4.0625 2.296875 -4.0625 C 3.09375 -4.0625 3.546875 -3.390625 3.546875 -2.28125 Z M 3.546875 -2.28125 "/>
</symbol>
<symbol overflow="visible" id="glyph2-6">
<path style="stroke:none;" d="M 4.234375 0 L 4.234375 -4.609375 L 3.515625 -4.609375 L 3.515625 -2.0625 C 3.515625 -1.125 3.015625 -0.515625 2.25 -0.515625 C 1.671875 -0.515625 1.296875 -0.859375 1.296875 -1.421875 L 1.296875 -4.609375 L 0.578125 -4.609375 L 0.578125 -1.125 C 0.578125 -0.359375 1.140625 0.125 2.046875 0.125 C 2.71875 0.125 3.15625 -0.109375 3.578125 -0.71875 L 3.578125 0 Z M 4.234375 0 "/>
</symbol>
<symbol overflow="visible" id="glyph2-7">
<path style="stroke:none;" d="M 4.484375 -2.265625 C 4.484375 -3.859375 3.71875 -4.734375 2.390625 -4.734375 C 1.09375 -4.734375 0.3125 -3.859375 0.3125 -2.3125 C 0.3125 -0.75 1.09375 0.125 2.40625 0.125 C 3.6875 0.125 4.484375 -0.75 4.484375 -2.265625 Z M 3.71875 -2.28125 C 3.71875 -1.203125 3.203125 -0.546875 2.40625 -0.546875 C 1.578125 -0.546875 1.078125 -1.1875 1.078125 -2.3125 C 1.078125 -3.40625 1.578125 -4.0625 2.40625 -4.0625 C 3.234375 -4.0625 3.71875 -3.421875 3.71875 -2.28125 Z M 3.71875 -2.28125 "/>
</symbol>
<symbol overflow="visible" id="glyph2-8">
<path style="stroke:none;" d="M 4.03125 -1.296875 C 4.03125 -1.984375 3.65625 -2.328125 2.734375 -2.546875 L 2.03125 -2.703125 C 1.4375 -2.84375 1.171875 -3.046875 1.171875 -3.375 C 1.171875 -3.796875 1.5625 -4.0625 2.15625 -4.0625 C 2.75 -4.0625 3.0625 -3.8125 3.078125 -3.328125 L 3.859375 -3.328125 C 3.84375 -4.234375 3.25 -4.734375 2.1875 -4.734375 C 1.109375 -4.734375 0.40625 -4.1875 0.40625 -3.328125 C 0.40625 -2.609375 0.78125 -2.265625 1.875 -2 L 2.5625 -1.84375 C 3.0625 -1.71875 3.265625 -1.5625 3.265625 -1.234375 C 3.265625 -0.796875 2.84375 -0.546875 2.203125 -0.546875 C 1.546875 -0.546875 1.171875 -0.703125 1.078125 -1.40625 L 0.296875 -1.40625 C 0.328125 -0.34375 0.9375 0.125 2.140625 0.125 C 3.296875 0.125 4.03125 -0.40625 4.03125 -1.296875 Z M 4.03125 -1.296875 "/>
</symbol>
<symbol overflow="visible" id="glyph2-9">
<path style="stroke:none;" d=""/>
</symbol>
<symbol overflow="visible" id="glyph2-10">
<path style="stroke:none;" d="M 2.828125 -3.96875 L 2.828125 -4.71875 C 2.703125 -4.734375 2.640625 -4.734375 2.546875 -4.734375 C 2.0625 -4.734375 1.703125 -4.453125 1.28125 -3.78125 L 1.28125 -4.609375 L 0.609375 -4.609375 L 0.609375 0 L 1.34375 0 L 1.34375 -2.390625 C 1.34375 -3.4375 1.6875 -3.953125 2.828125 -3.96875 Z M 2.828125 -3.96875 "/>
</symbol>
<symbol overflow="visible" id="glyph2-11">
<path style="stroke:none;" d="M 5.390625 0 L 5.390625 -0.71875 L 1.609375 -0.71875 L 1.609375 -2.921875 L 5.109375 -2.921875 L 5.109375 -3.640625 L 1.609375 -3.640625 L 1.609375 -5.6875 L 5.234375 -5.6875 L 5.234375 -6.40625 L 0.796875 -6.40625 L 0.796875 0 Z M 5.390625 0 "/>
</symbol>
<symbol overflow="visible" id="glyph2-12">
<path style="stroke:none;" d="M 4.15625 0 L 2.5625 -2.390625 L 4.109375 -4.609375 L 3.296875 -4.609375 L 2.1875 -2.9375 L 1.078125 -4.609375 L 0.234375 -4.609375 L 1.78125 -2.34375 L 0.15625 0 L 0.984375 0 L 2.15625 -1.765625 L 3.3125 0 Z M 4.15625 0 "/>
</symbol>
<symbol overflow="visible" id="glyph2-13">
<path style="stroke:none;" d="M 4.59375 -2.265625 C 4.59375 -3.8125 3.84375 -4.734375 2.625 -4.734375 C 2 -4.734375 1.5 -4.453125 1.15625 -3.921875 L 1.15625 -4.609375 L 0.484375 -4.609375 L 0.484375 1.921875 L 1.21875 1.921875 L 1.21875 -0.546875 C 1.59375 -0.078125 2.03125 0.125 2.625 0.125 C 3.8125 0.125 4.59375 -0.796875 4.59375 -2.265625 Z M 3.828125 -2.28125 C 3.828125 -1.234375 3.296875 -0.546875 2.5 -0.546875 C 1.71875 -0.546875 1.21875 -1.1875 1.21875 -2.265625 C 1.21875 -3.359375 1.71875 -4.0625 2.5 -4.0625 C 3.3125 -4.0625 3.828125 -3.375 3.828125 -2.28125 Z M 3.828125 -2.28125 "/>
</symbol>
<symbol overflow="visible" id="glyph2-14">
<path style="stroke:none;" d="M 1.328125 0 L 1.328125 -6.40625 L 0.59375 -6.40625 L 0.59375 0 Z M 1.328125 0 "/>
</symbol>
<symbol overflow="visible" id="glyph2-15">
<path style="stroke:none;" d="M 4.203125 -1.578125 L 3.453125 -1.578125 C 3.328125 -0.84375 2.953125 -0.546875 2.328125 -0.546875 C 1.515625 -0.546875 1.03125 -1.171875 1.03125 -2.265625 C 1.03125 -3.40625 1.515625 -4.0625 2.3125 -4.0625 C 2.921875 -4.0625 3.3125 -3.703125 3.40625 -3.0625 L 4.140625 -3.0625 C 4.0625 -4.1875 3.359375 -4.734375 2.328125 -4.734375 C 1.078125 -4.734375 0.265625 -3.796875 0.265625 -2.265625 C 0.265625 -0.78125 1.0625 0.125 2.3125 0.125 C 3.40625 0.125 4.109375 -0.53125 4.203125 -1.578125 Z M 4.203125 -1.578125 "/>
</symbol>
<symbol overflow="visible" id="glyph2-16">
<path style="stroke:none;" d="M 2.234375 0 L 2.234375 -0.609375 C 2.140625 -0.59375 2.015625 -0.578125 1.875 -0.578125 C 1.5625 -0.578125 1.484375 -0.671875 1.484375 -1 L 1.484375 -4.015625 L 2.234375 -4.015625 L 2.234375 -4.609375 L 1.484375 -4.609375 L 1.484375 -5.875 L 0.75 -5.875 L 0.75 -4.609375 L 0.125 -4.609375 L 0.125 -4.015625 L 0.75 -4.015625 L 0.75 -0.671875 C 0.75 -0.203125 1.0625 0.0625 1.640625 0.0625 C 1.8125 0.0625 1.984375 0.046875 2.234375 0 Z M 2.234375 0 "/>
</symbol>
<symbol overflow="visible" id="glyph2-17">
<path style="stroke:none;" d="M 4.5 -4.40625 C 4.5 -5.46875 3.671875 -6.234375 2.5 -6.234375 C 1.21875 -6.234375 0.484375 -5.59375 0.4375 -4.078125 L 1.21875 -4.078125 C 1.28125 -5.125 1.703125 -5.5625 2.46875 -5.5625 C 3.171875 -5.5625 3.703125 -5.0625 3.703125 -4.390625 C 3.703125 -3.890625 3.40625 -3.46875 2.859375 -3.15625 L 2.046875 -2.703125 C 0.75 -1.96875 0.375 -1.375 0.296875 0 L 4.453125 0 L 4.453125 -0.765625 L 1.171875 -0.765625 C 1.25 -1.28125 1.53125 -1.59375 2.296875 -2.046875 L 3.171875 -2.53125 C 4.046875 -2.984375 4.5 -3.640625 4.5 -4.40625 Z M 4.5 -4.40625 "/>
</symbol>
<symbol overflow="visible" id="glyph2-18">
<path style="stroke:none;" d="M 1.6875 0 L 1.6875 -0.921875 L 0.765625 -0.921875 L 0.765625 0 Z M 1.6875 0 "/>
</symbol>
<symbol overflow="visible" id="glyph2-19">
<path style="stroke:none;" d="M 4.484375 -3.265625 C 4.484375 -5.21875 3.796875 -6.234375 2.375 -6.234375 C 1.1875 -6.234375 0.328125 -5.390625 0.328125 -4.171875 C 0.328125 -3.015625 1.125 -2.21875 2.25 -2.21875 C 2.84375 -2.21875 3.265625 -2.4375 3.671875 -2.921875 C 3.671875 -1.40625 3.171875 -0.546875 2.28125 -0.546875 C 1.734375 -0.546875 1.359375 -0.890625 1.234375 -1.5 L 0.46875 -1.5 C 0.609375 -0.46875 1.28125 0.125 2.234375 0.125 C 3.6875 0.125 4.484375 -1.109375 4.484375 -3.265625 Z M 3.640625 -4.1875 C 3.640625 -3.421875 3.09375 -2.90625 2.34375 -2.90625 C 1.59375 -2.90625 1.125 -3.390625 1.125 -4.234375 C 1.125 -5.015625 1.65625 -5.5625 2.359375 -5.5625 C 3.09375 -5.5625 3.640625 -5 3.640625 -4.1875 Z M 3.640625 -4.1875 "/>
</symbol>
<symbol overflow="visible" id="glyph2-20">
<path style="stroke:none;" d="M 4.453125 -1.8125 C 4.453125 -2.5625 4.140625 -3.015625 3.390625 -3.265625 C 3.96875 -3.5 4.265625 -3.890625 4.265625 -4.515625 C 4.265625 -5.59375 3.546875 -6.234375 2.359375 -6.234375 C 1.109375 -6.234375 0.4375 -5.546875 0.40625 -4.21875 L 1.1875 -4.21875 C 1.203125 -5.140625 1.578125 -5.5625 2.375 -5.5625 C 3.0625 -5.5625 3.46875 -5.15625 3.46875 -4.5 C 3.46875 -3.828125 3.1875 -3.546875 1.9375 -3.546875 L 1.9375 -2.90625 L 2.359375 -2.90625 C 3.21875 -2.90625 3.65625 -2.5 3.65625 -1.796875 C 3.65625 -1.015625 3.171875 -0.546875 2.359375 -0.546875 C 1.515625 -0.546875 1.109375 -0.96875 1.0625 -1.875 L 0.28125 -1.875 C 0.375 -0.5 1.0625 0.125 2.34375 0.125 C 3.625 0.125 4.453125 -0.640625 4.453125 -1.8125 Z M 4.453125 -1.8125 "/>
</symbol>
<symbol overflow="visible" id="glyph2-21">
<path style="stroke:none;" d="M 4.453125 -3 C 4.453125 -5.15625 3.78125 -6.234375 2.421875 -6.234375 C 1.078125 -6.234375 0.375 -5.140625 0.375 -3.046875 C 0.375 -0.953125 1.078125 0.125 2.421875 0.125 C 3.734375 0.125 4.453125 -0.953125 4.453125 -3 Z M 3.671875 -3.0625 C 3.671875 -1.296875 3.265625 -0.515625 2.40625 -0.515625 C 1.578125 -0.515625 1.171875 -1.34375 1.171875 -3.046875 C 1.171875 -4.75 1.578125 -5.546875 2.421875 -5.546875 C 3.25 -5.546875 3.671875 -4.734375 3.671875 -3.0625 Z M 3.671875 -3.0625 "/>
</symbol>
<symbol overflow="visible" id="glyph3-0">
<path style="stroke:none;" d=""/>
</symbol>
<symbol overflow="visible" id="glyph3-1">
<path style="stroke:none;" d="M 4.0625 -2.34375 L 3.703125 -2.96875 L 0.953125 -1.375 L -1.890625 -6.296875 L -2.59375 -5.890625 L 0.609375 -0.34375 Z M 4.0625 -2.34375 "/>
</symbol>
<symbol overflow="visible" id="glyph3-2">
<path style="stroke:none;" d="M 2.765625 -4.203125 C 1.96875 -5.578125 0.859375 -5.953125 -0.296875 -5.28125 C -1.40625 -4.640625 -1.65625 -3.5 -0.890625 -2.15625 C -0.109375 -0.8125 1.015625 -0.4375 2.140625 -1.09375 C 3.25 -1.734375 3.515625 -2.890625 2.765625 -4.203125 Z M 2.078125 -3.828125 C 2.625 -2.90625 2.515625 -2.0625 1.8125 -1.671875 C 1.09375 -1.25 0.34375 -1.5625 -0.21875 -2.53125 C -0.765625 -3.484375 -0.671875 -4.296875 0.046875 -4.71875 C 0.765625 -5.125 1.515625 -4.828125 2.078125 -3.828125 Z M 2.078125 -3.828125 "/>
</symbol>
<symbol overflow="visible" id="glyph3-3">
<path style="stroke:none;" d="M 3.109375 -7.09375 L 2.390625 -6.6875 L 3.390625 -3.109375 L 0.796875 -5.765625 L 0.03125 -5.328125 L 1.0625 -1.765625 L -1.546875 -4.40625 L -2.25 -4 L 1.203125 -0.6875 L 1.921875 -1.109375 L 0.890625 -4.671875 L 3.484375 -2.015625 L 4.21875 -2.4375 Z M 3.109375 -7.09375 "/>
</symbol>
<symbol overflow="visible" id="glyph3-4">
<path style="stroke:none;" d=""/>
</symbol>
<symbol overflow="visible" id="glyph3-5">
<path style="stroke:none;" d="M 1.671875 -7.53125 L 1.3125 -8.15625 L -3.046875 -5.640625 L -2.6875 -5.015625 L -0.859375 -6.0625 L 1.984375 -1.140625 L 2.6875 -1.546875 L -0.15625 -6.46875 Z M 1.671875 -7.53125 "/>
</symbol>
<symbol overflow="visible" id="glyph3-6">
<path style="stroke:none;" d="M 1.15625 -0.671875 L -1.140625 -4.65625 L -1.765625 -4.28125 L 0.53125 -0.296875 Z M -1.390625 -5.3125 L -1.859375 -6.109375 L -2.65625 -5.65625 L -2.1875 -4.859375 Z M -1.390625 -5.3125 "/>
</symbol>
<symbol overflow="visible" id="glyph3-7">
<path style="stroke:none;" d="M 2.859375 -4.0625 C 2.53125 -4.640625 2.265625 -4.984375 1.984375 -5.21875 C 1.34375 -5.71875 0.515625 -5.75 -0.21875 -5.328125 C -1.34375 -4.671875 -1.578125 -3.453125 -0.828125 -2.140625 C -0.0625 -0.828125 1.0625 -0.46875 2.1875 -1.109375 C 3.09375 -1.640625 3.4375 -2.515625 3.125 -3.421875 L 2.484375 -3.046875 C 2.609375 -2.421875 2.390625 -2 1.875 -1.703125 C 1.203125 -1.3125 0.46875 -1.453125 -0.078125 -2.375 Z M 1.859375 -4.234375 C 1.859375 -4.234375 1.890625 -4.203125 1.875 -4.1875 L -0.359375 -2.890625 C -0.703125 -3.640625 -0.546875 -4.375 0.09375 -4.734375 C 0.71875 -5.09375 1.5 -4.859375 1.859375 -4.234375 Z M 1.859375 -4.234375 "/>
</symbol>
<symbol overflow="visible" id="glyph3-8">
<path style="stroke:none;" d="M 0.46875 -4.84375 L 0.09375 -5.5 C -0.015625 -5.4375 -0.078125 -5.40625 -0.15625 -5.359375 C -0.578125 -5.125 -0.75 -4.703125 -0.78125 -3.921875 L -1.1875 -4.625 L -1.765625 -4.28125 L 0.53125 -0.296875 L 1.15625 -0.671875 L -0.03125 -2.734375 C -0.5625 -3.65625 -0.5 -4.265625 0.46875 -4.84375 Z M 0.46875 -4.84375 "/>
</symbol>
<symbol overflow="visible" id="glyph3-9">
<path style="stroke:none;" d="M 5.796875 -3.34375 L 2.59375 -8.890625 L 1.609375 -8.328125 L 2.78125 -2.5625 L -1.640625 -6.4375 L -2.640625 -5.875 L 0.5625 -0.328125 L 1.25 -0.71875 L -1.4375 -5.375 L 2.8125 -1.625 L 3.5625 -2.046875 L 2.4375 -7.609375 L 5.125 -2.953125 Z M 5.796875 -3.34375 "/>
</symbol>
<symbol overflow="visible" id="glyph3-10">
<path style="stroke:none;" d="M 3.78125 -2.171875 L 0.578125 -7.71875 L -0.0625 -7.359375 L 1.125 -5.296875 C 0.625 -5.546875 0.09375 -5.5 -0.453125 -5.1875 C -1.484375 -4.59375 -1.703125 -3.40625 -0.96875 -2.140625 C -0.1875 -0.796875 0.921875 -0.390625 2 -1 C 2.546875 -1.328125 2.828125 -1.75 2.875 -2.421875 L 3.203125 -1.84375 Z M 2 -3.78125 C 2.53125 -2.875 2.421875 -2.015625 1.765625 -1.640625 C 1.0625 -1.234375 0.25 -1.5625 -0.296875 -2.5 C -0.828125 -3.421875 -0.703125 -4.28125 -0.015625 -4.671875 C 0.671875 -5.078125 1.46875 -4.71875 2 -3.78125 Z M 2 -3.78125 "/>
</symbol>
<symbol overflow="visible" id="glyph3-11">
<path style="stroke:none;" d="M 3.671875 -2.109375 L 1.375 -6.09375 L 0.75 -5.734375 L 2.015625 -3.53125 C 2.484375 -2.71875 2.359375 -1.953125 1.703125 -1.578125 C 1.203125 -1.28125 0.703125 -1.390625 0.421875 -1.875 L -1.171875 -4.625 L -1.796875 -4.265625 L -0.0625 -1.25 C 0.328125 -0.59375 1.046875 -0.453125 1.828125 -0.90625 C 2.421875 -1.25 2.6875 -1.671875 2.734375 -2.40625 L 3.09375 -1.78125 Z M 3.671875 -2.109375 "/>
</symbol>
<symbol overflow="visible" id="glyph3-12">
<path style="stroke:none;" d="M 5.796875 -3.34375 L 4.078125 -6.328125 C 3.65625 -7.046875 3.046875 -7.203125 2.28125 -6.765625 C 1.75 -6.46875 1.5 -6.140625 1.40625 -5.453125 C 0.921875 -5.75 0.515625 -5.75 -0.015625 -5.4375 C -0.546875 -5.140625 -0.78125 -4.75 -0.84375 -4.0625 L -1.171875 -4.625 L -1.75 -4.296875 L 0.546875 -0.3125 L 1.171875 -0.671875 L -0.265625 -3.171875 C -0.609375 -3.75 -0.453125 -4.46875 0.0625 -4.765625 C 0.53125 -5.03125 0.984375 -4.90625 1.28125 -4.390625 L 2.859375 -1.640625 L 3.484375 -2 L 2.046875 -4.5 C 1.703125 -5.078125 1.859375 -5.796875 2.375 -6.09375 C 2.84375 -6.359375 3.28125 -6.21875 3.578125 -5.71875 L 5.15625 -2.96875 Z M 5.796875 -3.34375 "/>
</symbol>
<symbol overflow="visible" id="glyph3-13">
<path style="stroke:none;" d="M 4.90625 -2.828125 L 1.703125 -8.375 L 0.984375 -7.96875 L 2.375 -5.578125 L -0.46875 -3.921875 L -1.859375 -6.3125 L -2.5625 -5.90625 L 0.640625 -0.359375 L 1.34375 -0.765625 L -0.109375 -3.296875 L 2.734375 -4.953125 L 4.1875 -2.421875 Z M 4.90625 -2.828125 "/>
</symbol>
<symbol overflow="visible" id="glyph3-14">
<path style="stroke:none;" d="M 3.34375 -2.796875 L 1.421875 -6.125 L 0.84375 -5.796875 L 1.171875 -5.21875 C 0.578125 -5.515625 0.078125 -5.5 -0.4375 -5.203125 C -1.453125 -4.609375 -1.65625 -3.375 -0.90625 -2.09375 C -0.1875 -0.828125 1 -0.421875 1.9375 -0.96875 C 2.4375 -1.25 2.671875 -1.65625 2.796875 -2.40625 L 2.953125 -2.15625 C 3.546875 -1.09375 3.34375 -0.4375 2.609375 0 C 2.109375 0.28125 1.609375 0.34375 1.265625 -0.125 L 0.625 0.25 C 1.125 0.984375 1.953125 1.09375 2.90625 0.546875 C 4.140625 -0.171875 4.359375 -1.03125 3.34375 -2.796875 Z M 1.9375 -3.734375 C 2.5 -2.78125 2.40625 -2 1.734375 -1.625 C 1.03125 -1.21875 0.28125 -1.53125 -0.28125 -2.5 C -0.828125 -3.453125 -0.71875 -4.265625 -0.046875 -4.65625 C 0.640625 -5.0625 1.390625 -4.703125 1.9375 -3.734375 Z M 1.9375 -3.734375 "/>
</symbol>
<symbol overflow="visible" id="glyph3-15">
<path style="stroke:none;" d="M 3.703125 -2.140625 L 1.96875 -5.15625 C 1.578125 -5.828125 0.859375 -5.953125 0.09375 -5.5 C -0.484375 -5.171875 -0.71875 -4.828125 -0.828125 -4.109375 L -2.046875 -6.21875 L -2.671875 -5.84375 L 0.53125 -0.296875 L 1.15625 -0.671875 L -0.109375 -2.875 C -0.578125 -3.6875 -0.453125 -4.46875 0.203125 -4.84375 C 0.640625 -5.09375 1.1875 -5.046875 1.484375 -4.53125 L 3.078125 -1.765625 Z M 3.703125 -2.140625 "/>
</symbol>
<symbol overflow="visible" id="glyph3-16">
<path style="stroke:none;" d="M 2.4375 -6.625 C 1.84375 -7.671875 0.890625 -7.90625 -0.21875 -7.265625 L -2.515625 -5.9375 L 0.6875 -0.390625 L 1.40625 -0.8125 L 0.046875 -3.171875 L 1.796875 -4.171875 C 2.703125 -4.703125 2.96875 -5.703125 2.4375 -6.625 Z M 1.6875 -6.234375 C 2.046875 -5.625 1.84375 -5.03125 1.15625 -4.640625 L -0.3125 -3.796875 L -1.4375 -5.734375 L 0.03125 -6.578125 C 0.71875 -6.96875 1.34375 -6.84375 1.6875 -6.234375 Z M 1.6875 -6.234375 "/>
</symbol>
<symbol overflow="visible" id="glyph3-17">
<path style="stroke:none;" d="M 1.15625 -0.65625 L -2.046875 -6.203125 L -2.6875 -5.84375 L 0.515625 -0.296875 Z M 1.15625 -0.65625 "/>
</symbol>
<symbol overflow="visible" id="glyph4-0">
<path style="stroke:none;" d=""/>
</symbol>
<symbol overflow="visible" id="glyph4-1">
<path style="stroke:none;" d="M 6.75 0 L 6.75 -0.90625 L 2.015625 -0.90625 L 2.015625 -3.65625 L 6.375 -3.65625 L 6.375 -4.546875 L 2.015625 -4.546875 L 2.015625 -7.109375 L 6.546875 -7.109375 L 6.546875 -8.015625 L 0.984375 -8.015625 L 0.984375 0 Z M 6.75 0 "/>
</symbol>
<symbol overflow="visible" id="glyph4-2">
<path style="stroke:none;" d="M 8.359375 0 L 8.359375 -4.328125 C 8.359375 -5.359375 7.78125 -5.921875 6.703125 -5.921875 C 5.9375 -5.921875 5.484375 -5.703125 4.9375 -5.046875 C 4.59375 -5.671875 4.140625 -5.921875 3.390625 -5.921875 C 2.625 -5.921875 2.109375 -5.640625 1.609375 -4.953125 L 1.609375 -5.765625 L 0.78125 -5.765625 L 0.78125 0 L 1.6875 0 L 1.6875 -3.625 C 1.6875 -4.453125 2.296875 -5.125 3.046875 -5.125 C 3.734375 -5.125 4.109375 -4.703125 4.109375 -3.96875 L 4.109375 0 L 5.03125 0 L 5.03125 -3.625 C 5.03125 -4.453125 5.640625 -5.125 6.390625 -5.125 C 7.0625 -5.125 7.453125 -4.703125 7.453125 -3.96875 L 7.453125 0 Z M 8.359375 0 "/>
</symbol>
<symbol overflow="visible" id="glyph4-3">
<path style="stroke:none;" d="M 5.75 -2.828125 C 5.75 -4.765625 4.8125 -5.921875 3.28125 -5.921875 C 2.5 -5.921875 1.875 -5.578125 1.4375 -4.890625 L 1.4375 -5.765625 L 0.609375 -5.765625 L 0.609375 2.390625 L 1.515625 2.390625 L 1.515625 -0.6875 C 2 -0.09375 2.546875 0.171875 3.28125 0.171875 C 4.78125 0.171875 5.75 -0.984375 5.75 -2.828125 Z M 4.796875 -2.84375 C 4.796875 -1.546875 4.125 -0.6875 3.125 -0.6875 C 2.15625 -0.6875 1.515625 -1.484375 1.515625 -2.84375 C 1.515625 -4.1875 2.15625 -5.078125 3.125 -5.078125 C 4.140625 -5.078125 4.796875 -4.21875 4.796875 -2.84375 Z M 4.796875 -2.84375 "/>
</symbol>
<symbol overflow="visible" id="glyph4-4">
<path style="stroke:none;" d="M 1.65625 0 L 1.65625 -8.015625 L 0.75 -8.015625 L 0.75 0 Z M 1.65625 0 "/>
</symbol>
<symbol overflow="visible" id="glyph4-5">
<path style="stroke:none;" d="M 5.609375 -2.84375 C 5.609375 -4.828125 4.65625 -5.921875 2.984375 -5.921875 C 1.375 -5.921875 0.390625 -4.8125 0.390625 -2.875 C 0.390625 -0.953125 1.359375 0.171875 3 0.171875 C 4.625 0.171875 5.609375 -0.953125 5.609375 -2.84375 Z M 4.65625 -2.84375 C 4.65625 -1.5 4.015625 -0.6875 3 -0.6875 C 1.984375 -0.6875 1.359375 -1.484375 1.359375 -2.875 C 1.359375 -4.265625 1.984375 -5.078125 3 -5.078125 C 4.03125 -5.078125 4.65625 -4.28125 4.65625 -2.84375 Z M 4.65625 -2.84375 "/>
</symbol>
<symbol overflow="visible" id="glyph4-6">
<path style="stroke:none;" d="M 5.265625 -5.765625 L 4.265625 -5.765625 L 2.671875 -1.28125 L 1.203125 -5.765625 L 0.21875 -5.765625 L 2.171875 0.015625 L 1.8125 0.9375 C 1.65625 1.34375 1.46875 1.5 1.078125 1.5 C 0.953125 1.5 0.796875 1.46875 0.59375 1.4375 L 0.59375 2.25 C 0.78125 2.359375 0.96875 2.390625 1.203125 2.390625 C 1.859375 2.390625 2.390625 2.03125 2.6875 1.203125 Z M 5.265625 -5.765625 "/>
</symbol>
<symbol overflow="visible" id="glyph4-7">
<path style="stroke:none;" d="M 5.640625 -2.625 C 5.640625 -3.453125 5.578125 -3.984375 5.40625 -4.40625 C 5.03125 -5.359375 4.15625 -5.921875 3.078125 -5.921875 C 1.46875 -5.921875 0.4375 -4.734375 0.4375 -2.84375 C 0.4375 -0.953125 1.4375 0.171875 3.0625 0.171875 C 4.375 0.171875 5.296875 -0.578125 5.515625 -1.75 L 4.59375 -1.75 C 4.34375 -0.984375 3.828125 -0.6875 3.09375 -0.6875 C 2.140625 -0.6875 1.421875 -1.296875 1.390625 -2.625 Z M 4.65625 -3.4375 C 4.65625 -3.4375 4.65625 -3.390625 4.65625 -3.359375 L 1.421875 -3.359375 C 1.5 -4.390625 2.140625 -5.078125 3.0625 -5.078125 C 3.96875 -5.078125 4.65625 -4.328125 4.65625 -3.4375 Z M 4.65625 -3.4375 "/>
</symbol>
<symbol overflow="visible" id="glyph4-8">
<path style="stroke:none;" d="M 3.53125 -4.96875 L 3.53125 -5.890625 C 3.375 -5.921875 3.296875 -5.921875 3.171875 -5.921875 C 2.578125 -5.921875 2.140625 -5.578125 1.609375 -4.71875 L 1.609375 -5.765625 L 0.765625 -5.765625 L 0.765625 0 L 1.6875 0 L 1.6875 -2.984375 C 1.6875 -4.296875 2.109375 -4.9375 3.53125 -4.96875 Z M 3.53125 -4.96875 "/>
</symbol>
<symbol overflow="visible" id="glyph4-9">
<path style="stroke:none;" d=""/>
</symbol>
<symbol overflow="visible" id="glyph4-10">
<path style="stroke:none;" d="M 5.34375 -5.765625 L 4.3125 -5.765625 L 2.6875 -1.09375 L 1.140625 -5.765625 L 0.109375 -5.765625 L 2.140625 0 L 3.140625 0 Z M 5.34375 -5.765625 "/>
</symbol>
<symbol overflow="visible" id="glyph4-11">
<path style="stroke:none;" d="M 2.796875 0 L 2.796875 -0.765625 C 2.671875 -0.734375 2.53125 -0.71875 2.359375 -0.71875 C 1.953125 -0.71875 1.84375 -0.84375 1.84375 -1.25 L 1.84375 -5.015625 L 2.796875 -5.015625 L 2.796875 -5.765625 L 1.84375 -5.765625 L 1.84375 -7.34375 L 0.9375 -7.34375 L 0.9375 -5.765625 L 0.15625 -5.765625 L 0.15625 -5.015625 L 0.9375 -5.015625 L 0.9375 -0.84375 C 0.9375 -0.25 1.328125 0.078125 2.046875 0.078125 C 2.265625 0.078125 2.484375 0.0625 2.796875 0 Z M 2.796875 0 "/>
</symbol>
<symbol overflow="visible" id="glyph4-12">
<path style="stroke:none;" d="M 1.6875 0 L 1.6875 -5.765625 L 0.765625 -5.765625 L 0.765625 0 Z M 1.796875 -6.640625 L 1.796875 -7.78125 L 0.65625 -7.78125 L 0.65625 -6.640625 Z M 1.796875 -6.640625 "/>
</symbol>
<symbol overflow="visible" id="glyph4-13">
<path style="stroke:none;" d="M 5.25 -1.984375 L 4.328125 -1.984375 C 4.171875 -1.0625 3.703125 -0.6875 2.921875 -0.6875 C 1.90625 -0.6875 1.296875 -1.46875 1.296875 -2.828125 C 1.296875 -4.265625 1.890625 -5.078125 2.890625 -5.078125 C 3.65625 -5.078125 4.140625 -4.625 4.25 -3.828125 L 5.1875 -3.828125 C 5.078125 -5.234375 4.1875 -5.921875 2.90625 -5.921875 C 1.359375 -5.921875 0.34375 -4.734375 0.34375 -2.828125 C 0.34375 -0.96875 1.328125 0.171875 2.890625 0.171875 C 4.265625 0.171875 5.140625 -0.65625 5.25 -1.984375 Z M 5.25 -1.984375 "/>
</symbol>
<symbol overflow="visible" id="glyph4-14">
<path style="stroke:none;" d="M 5.890625 -0.015625 L 5.890625 -0.71875 C 5.78125 -0.6875 5.734375 -0.6875 5.6875 -0.6875 C 5.375 -0.6875 5.1875 -0.859375 5.1875 -1.140625 L 5.1875 -4.359375 C 5.1875 -5.375 4.4375 -5.921875 3.03125 -5.921875 C 1.625 -5.921875 0.765625 -5.390625 0.71875 -4.0625 L 1.640625 -4.0625 C 1.71875 -4.765625 2.140625 -5.078125 2.984375 -5.078125 C 3.8125 -5.078125 4.28125 -4.78125 4.28125 -4.21875 L 4.28125 -3.984375 C 4.28125 -3.59375 4.046875 -3.4375 3.328125 -3.34375 C 2.03125 -3.171875 1.828125 -3.140625 1.46875 -2.984375 C 0.796875 -2.71875 0.46875 -2.203125 0.46875 -1.5 C 0.46875 -0.453125 1.1875 0.171875 2.359375 0.171875 C 3.09375 0.171875 3.8125 -0.140625 4.3125 -0.6875 C 4.40625 -0.234375 4.8125 0.078125 5.265625 0.078125 C 5.4375 0.078125 5.59375 0.0625 5.890625 -0.015625 Z M 4.28125 -1.984375 C 4.28125 -1.171875 3.4375 -0.640625 2.546875 -0.640625 C 1.84375 -0.640625 1.421875 -0.890625 1.421875 -1.515625 C 1.421875 -2.125 1.828125 -2.390625 2.8125 -2.53125 C 3.765625 -2.65625 3.96875 -2.703125 4.28125 -2.84375 Z M 4.28125 -1.984375 "/>
</symbol>
<symbol overflow="visible" id="glyph4-15">
<path style="stroke:none;" d="M 2.84375 -5.015625 L 2.84375 -5.765625 L 1.875 -5.765625 L 1.875 -6.671875 C 1.875 -7.046875 2.09375 -7.25 2.515625 -7.25 C 2.59375 -7.25 2.625 -7.25 2.84375 -7.234375 L 2.84375 -8 C 2.625 -8.046875 2.515625 -8.046875 2.328125 -8.046875 C 1.46875 -8.046875 0.96875 -7.5625 0.96875 -6.75 L 0.96875 -5.765625 L 0.203125 -5.765625 L 0.203125 -5.015625 L 0.96875 -5.015625 L 0.96875 0 L 1.875 0 L 1.875 -5.015625 Z M 2.84375 -5.015625 "/>
</symbol>
<symbol overflow="visible" id="glyph4-16">
<path style="stroke:none;" d="M 5.359375 0 L 5.359375 -4.359375 C 5.359375 -5.3125 4.640625 -5.921875 3.53125 -5.921875 C 2.671875 -5.921875 2.125 -5.59375 1.609375 -4.796875 L 1.609375 -5.765625 L 0.765625 -5.765625 L 0.765625 0 L 1.6875 0 L 1.6875 -3.171875 C 1.6875 -4.359375 2.328125 -5.125 3.25 -5.125 C 3.984375 -5.125 4.4375 -4.6875 4.4375 -4 L 4.4375 0 Z M 5.359375 0 "/>
</symbol>
<symbol overflow="visible" id="glyph4-17">
<path style="stroke:none;" d="M 5.046875 -1.609375 C 5.046875 -2.46875 4.5625 -2.90625 3.421875 -3.171875 L 2.546875 -3.390625 C 1.796875 -3.5625 1.46875 -3.8125 1.46875 -4.21875 C 1.46875 -4.734375 1.953125 -5.078125 2.6875 -5.078125 C 3.4375 -5.078125 3.828125 -4.765625 3.84375 -4.15625 L 4.8125 -4.15625 C 4.8125 -5.296875 4.0625 -5.921875 2.734375 -5.921875 C 1.390625 -5.921875 0.515625 -5.234375 0.515625 -4.171875 C 0.515625 -3.265625 0.984375 -2.84375 2.34375 -2.515625 L 3.203125 -2.296875 C 3.84375 -2.140625 4.09375 -1.953125 4.09375 -1.546875 C 4.09375 -1 3.546875 -0.6875 2.75 -0.6875 C 1.921875 -0.6875 1.46875 -0.875 1.34375 -1.765625 L 0.375 -1.765625 C 0.421875 -0.421875 1.171875 0.171875 2.671875 0.171875 C 4.125 0.171875 5.046875 -0.5 5.046875 -1.609375 Z M 5.046875 -1.609375 "/>
</symbol>
<symbol overflow="visible" id="glyph4-18">
<path style="stroke:none;" d="M 5.859375 0 L 5.859375 -0.90625 L 1.90625 -0.90625 L 1.90625 -8.015625 L 0.875 -8.015625 L 0.875 0 Z M 5.859375 0 "/>
</symbol>
<symbol overflow="visible" id="glyph4-19">
<path style="stroke:none;" d="M 5.375 -0.953125 L 5.375 -5.765625 L 4.53125 -5.765625 L 4.53125 -4.921875 C 4.0625 -5.609375 3.515625 -5.921875 2.765625 -5.921875 C 1.3125 -5.921875 0.3125 -4.703125 0.3125 -2.828125 C 0.3125 -1.015625 1.34375 0.171875 2.6875 0.171875 C 3.421875 0.171875 3.921875 -0.140625 4.53125 -0.875 L 4.53125 -0.484375 C 4.53125 1.046875 3.90625 1.625 2.84375 1.625 C 2.109375 1.625 1.546875 1.359375 1.4375 0.65625 L 0.5 0.65625 C 0.609375 1.75 1.453125 2.390625 2.8125 2.390625 C 4.609375 2.390625 5.375 1.59375 5.375 -0.953125 Z M 4.4375 -2.84375 C 4.4375 -1.46875 3.84375 -0.6875 2.875 -0.6875 C 1.875 -0.6875 1.28125 -1.484375 1.28125 -2.875 C 1.28125 -4.265625 1.890625 -5.078125 2.875 -5.078125 C 3.859375 -5.078125 4.4375 -4.25 4.4375 -2.84375 Z M 4.4375 -2.84375 "/>
</symbol>
<symbol overflow="visible" id="glyph4-20">
<path style="stroke:none;" d="M 5.296875 0 L 5.296875 -5.765625 L 4.390625 -5.765625 L 4.390625 -2.578125 C 4.390625 -1.40625 3.765625 -0.640625 2.8125 -0.640625 C 2.09375 -0.640625 1.625 -1.078125 1.625 -1.765625 L 1.625 -5.765625 L 0.71875 -5.765625 L 0.71875 -1.40625 C 0.71875 -0.453125 1.4375 0.171875 2.546875 0.171875 C 3.40625 0.171875 3.9375 -0.125 4.484375 -0.890625 L 4.484375 0 Z M 5.296875 0 "/>
</symbol>
</g>
<clipPath id="clip1">
  <path d="M 79.152344 24.246094 L 251 24.246094 L 251 158 L 79.152344 158 Z M 79.152344 24.246094 "/>
</clipPath>
<clipPath id="clip2">
  <path d="M 79.152344 134 L 251 134 L 251 136 L 79.152344 136 Z M 79.152344 134 "/>
</clipPath>
<clipPath id="clip3">
  <path d="M 79.152344 85 L 251 85 L 251 87 L 79.152344 87 Z M 79.152344 85 "/>
</clipPath>
<clipPath id="clip4">
  <path d="M 79.152344 36 L 251 36 L 251 38 L 79.152344 38 Z M 79.152344 36 "/>
</clipPath>
<clipPath id="clip5">
  <path d="M 79.152344 109 L 251 109 L 251 111 L 79.152344 111 Z M 79.152344 109 "/>
</clipPath>
<clipPath id="clip6">
  <path d="M 79.152344 61 L 251 61 L 251 63 L 79.152344 63 Z M 79.152344 61 "/>
</clipPath>
<clipPath id="clip7">
  <path d="M 156 24.246094 L 158 24.246094 L 158 158.6875 L 156 158.6875 Z M 156 24.246094 "/>
</clipPath>
<clipPath id="clip8">
  <path d="M 182 24.246094 L 184 24.246094 L 184 158.6875 L 182 158.6875 Z M 182 24.246094 "/>
</clipPath>
<clipPath id="clip9">
  <path d="M 208 24.246094 L 210 24.246094 L 210 158.6875 L 208 158.6875 Z M 208 24.246094 "/>
</clipPath>
<clipPath id="clip10">
  <path d="M 234 24.246094 L 236 24.246094 L 236 158.6875 L 234 158.6875 Z M 234 24.246094 "/>
</clipPath>
<clipPath id="clip11">
  <path d="M 79.152344 24.246094 L 251 24.246094 L 251 158.6875 L 79.152344 158.6875 Z M 79.152344 24.246094 "/>
</clipPath>
<clipPath id="clip12">
  <path d="M 255.574219 24.246094 L 427 24.246094 L 427 158 L 255.574219 158 Z M 255.574219 24.246094 "/>
</clipPath>
<clipPath id="clip13">
  <path d="M 255.574219 134 L 427 134 L 427 136 L 255.574219 136 Z M 255.574219 134 "/>
</clipPath>
<clipPath id="clip14">
  <path d="M 255.574219 85 L 427 85 L 427 87 L 255.574219 87 Z M 255.574219 85 "/>
</clipPath>
<clipPath id="clip15">
  <path d="M 255.574219 36 L 427 36 L 427 38 L 255.574219 38 Z M 255.574219 36 "/>
</clipPath>
<clipPath id="clip16">
  <path d="M 255.574219 109 L 427.519531 109 L 427.519531 111 L 255.574219 111 Z M 255.574219 109 "/>
</clipPath>
<clipPath id="clip17">
  <path d="M 255.574219 61 L 427.519531 61 L 427.519531 63 L 255.574219 63 Z M 255.574219 61 "/>
</clipPath>
<clipPath id="clip18">
  <path d="M 332 24.246094 L 334 24.246094 L 334 158.6875 L 332 158.6875 Z M 332 24.246094 "/>
</clipPath>
<clipPath id="clip19">
  <path d="M 358 24.246094 L 360 24.246094 L 360 158.6875 L 358 158.6875 Z M 358 24.246094 "/>
</clipPath>
<clipPath id="clip20">
  <path d="M 384 24.246094 L 386 24.246094 L 386 158.6875 L 384 158.6875 Z M 384 24.246094 "/>
</clipPath>
<clipPath id="clip21">
  <path d="M 410 24.246094 L 412 24.246094 L 412 158.6875 L 410 158.6875 Z M 410 24.246094 "/>
</clipPath>
<clipPath id="clip22">
  <path d="M 255.574219 24.246094 L 427.519531 24.246094 L 427.519531 158.6875 L 255.574219 158.6875 Z M 255.574219 24.246094 "/>
</clipPath>
<clipPath id="clip23">
  <path d="M 79.152344 5.480469 L 251 5.480469 L 251 25 L 79.152344 25 Z M 79.152344 5.480469 "/>
</clipPath>
<clipPath id="clip24">
  <path d="M 255.574219 5.480469 L 427 5.480469 L 427 25 L 255.574219 25 Z M 255.574219 5.480469 "/>
</clipPath>
<clipPath id="clip25">
  <path d="M 255.574219 5.480469 L 427.519531 5.480469 L 427.519531 25 L 255.574219 25 Z M 255.574219 5.480469 "/>
</clipPath>
</defs>
<g id="surface109">
<rect x="0" y="0" width="432" height="216" style="fill:rgb(100%,100%,100%);fill-opacity:1;stroke:none;"/>
<rect x="0" y="0" width="432" height="216" style="fill:rgb(100%,100%,100%);fill-opacity:1;stroke:none;"/>
<path style="fill:none;stroke-width:1.066978;stroke-linecap:round;stroke-linejoin:round;stroke:rgb(100%,100%,100%);stroke-opacity:1;stroke-miterlimit:10;" d="M 0 216 L 432 216 L 432 0 L 0 0 Z M 0 216 "/>
<g clip-path="url(#clip1)" clip-rule="nonzero">
<path style=" stroke:none;fill-rule:nonzero;fill:rgb(100%,100%,100%);fill-opacity:1;" d="M 79.152344 157.6875 L 250.097656 157.6875 L 250.097656 24.246094 L 79.152344 24.246094 Z M 79.152344 157.6875 "/>
</g>
<g clip-path="url(#clip2)" clip-rule="nonzero">
<path style="fill:none;stroke-width:0.533489;stroke-linecap:butt;stroke-linejoin:round;stroke:rgb(92.156863%,92.156863%,92.156863%);stroke-opacity:1;stroke-miterlimit:10;" d="M 79.152344 134.839844 L 250.097656 134.839844 "/>
</g>
<g clip-path="url(#clip3)" clip-rule="nonzero">
<path style="fill:none;stroke-width:0.533489;stroke-linecap:butt;stroke-linejoin:round;stroke:rgb(92.156863%,92.156863%,92.156863%);stroke-opacity:1;stroke-miterlimit:10;" d="M 79.152344 86.007812 L 250.097656 86.007812 "/>
</g>
<g clip-path="url(#clip4)" clip-rule="nonzero">
<path style="fill:none;stroke-width:0.533489;stroke-linecap:butt;stroke-linejoin:round;stroke:rgb(92.156863%,92.156863%,92.156863%);stroke-opacity:1;stroke-miterlimit:10;" d="M 79.152344 37.179688 L 250.097656 37.179688 "/>
</g>
<g clip-path="url(#clip5)" clip-rule="nonzero">
<path style="fill:none;stroke-width:1.066978;stroke-linecap:butt;stroke-linejoin:round;stroke:rgb(92.156863%,92.156863%,92.156863%);stroke-opacity:1;stroke-miterlimit:10;" d="M 79.152344 110.425781 L 250.097656 110.425781 "/>
</g>
<g clip-path="url(#clip6)" clip-rule="nonzero">
<path style="fill:none;stroke-width:1.066978;stroke-linecap:butt;stroke-linejoin:round;stroke:rgb(92.156863%,92.156863%,92.156863%);stroke-opacity:1;stroke-miterlimit:10;" d="M 79.152344 61.59375 L 250.097656 61.59375 "/>
</g>
<g clip-path="url(#clip7)" clip-rule="nonzero">
<path style="fill:none;stroke-width:1.066978;stroke-linecap:butt;stroke-linejoin:round;stroke:rgb(92.156863%,92.156863%,92.156863%);stroke-opacity:1;stroke-miterlimit:10;" d="M 156.851562 157.6875 L 156.851562 24.246094 "/>
</g>
<g clip-path="url(#clip8)" clip-rule="nonzero">
<path style="fill:none;stroke-width:1.066978;stroke-linecap:butt;stroke-linejoin:round;stroke:rgb(92.156863%,92.156863%,92.156863%);stroke-opacity:1;stroke-miterlimit:10;" d="M 182.753906 157.6875 L 182.753906 24.246094 "/>
</g>
<g clip-path="url(#clip9)" clip-rule="nonzero">
<path style="fill:none;stroke-width:1.066978;stroke-linecap:butt;stroke-linejoin:round;stroke:rgb(92.156863%,92.156863%,92.156863%);stroke-opacity:1;stroke-miterlimit:10;" d="M 208.65625 157.6875 L 208.65625 24.246094 "/>
</g>
<g clip-path="url(#clip10)" clip-rule="nonzero">
<path style="fill:none;stroke-width:1.066978;stroke-linecap:butt;stroke-linejoin:round;stroke:rgb(92.156863%,92.156863%,92.156863%);stroke-opacity:1;stroke-miterlimit:10;" d="M 234.554688 157.6875 L 234.554688 24.246094 "/>
</g>
<path style="fill:none;stroke-width:1.066978;stroke-linecap:butt;stroke-linejoin:round;stroke:rgb(97.254902%,46.27451%,42.745098%);stroke-opacity:1;stroke-miterlimit:10;" d="M 155.558594 58.742188 L 181.457031 108.589844 L 207.359375 117.597656 "/>
<path style="fill:none;stroke-width:1.066978;stroke-linecap:butt;stroke-linejoin:round;stroke:rgb(0%,74.901961%,76.862745%);stroke-opacity:1;stroke-dasharray:2.133957,2.133957;stroke-miterlimit:10;" d="M 158.148438 131.539062 L 184.050781 119.8125 L 209.949219 123.574219 "/>
<path style=" stroke:none;fill-rule:nonzero;fill:rgb(0%,74.901961%,76.862745%);fill-opacity:1;" d="M 158.148438 128.5 L 160.78125 133.058594 L 155.515625 133.058594 Z M 158.148438 128.5 "/>
<path style=" stroke:none;fill-rule:nonzero;fill:rgb(97.254902%,46.27451%,42.745098%);fill-opacity:1;" d="M 157.511719 58.742188 C 157.511719 61.347656 153.601562 61.347656 153.601562 58.742188 C 153.601562 56.132812 157.511719 56.132812 157.511719 58.742188 "/>
<path style=" stroke:none;fill-rule:nonzero;fill:rgb(0%,74.901961%,76.862745%);fill-opacity:1;" d="M 184.050781 116.773438 L 186.679688 121.332031 L 181.417969 121.332031 Z M 184.050781 116.773438 "/>
<path style=" stroke:none;fill-rule:nonzero;fill:rgb(97.254902%,46.27451%,42.745098%);fill-opacity:1;" d="M 183.414062 108.589844 C 183.414062 111.199219 179.503906 111.199219 179.503906 108.589844 C 179.503906 105.984375 183.414062 105.984375 183.414062 108.589844 "/>
<path style=" stroke:none;fill-rule:nonzero;fill:rgb(0%,74.901961%,76.862745%);fill-opacity:1;" d="M 209.949219 120.535156 L 212.582031 125.09375 L 207.316406 125.09375 Z M 209.949219 120.535156 "/>
<path style=" stroke:none;fill-rule:nonzero;fill:rgb(97.254902%,46.27451%,42.745098%);fill-opacity:1;" d="M 209.3125 117.597656 C 209.3125 120.203125 205.40625 120.203125 205.40625 117.597656 C 205.40625 114.988281 209.3125 114.988281 209.3125 117.597656 "/>
<path style=" stroke:none;fill-rule:nonzero;fill:rgb(0%,74.901961%,76.862745%);fill-opacity:1;" d="M 235.851562 120.300781 L 238.484375 124.859375 L 233.21875 124.859375 Z M 235.851562 120.300781 "/>
<path style=" stroke:none;fill-rule:nonzero;fill:rgb(97.254902%,46.27451%,42.745098%);fill-opacity:1;" d="M 235.214844 98.746094 C 235.214844 101.351562 231.304688 101.351562 231.304688 98.746094 C 231.304688 96.140625 235.214844 96.140625 235.214844 98.746094 "/>
<path style="fill-rule:nonzero;fill:rgb(97.254902%,46.27451%,42.745098%);fill-opacity:0.14902;stroke-width:1.066978;stroke-linecap:round;stroke-linejoin:round;stroke:rgb(97.254902%,46.27451%,42.745098%);stroke-opacity:1;stroke-miterlimit:10;" d="M 155.558594 30.3125 L 181.457031 90.09375 L 207.359375 87.441406 L 207.359375 147.753906 L 181.457031 127.089844 L 155.558594 87.167969 Z M 155.558594 30.3125 "/>
<path style="fill-rule:nonzero;fill:rgb(0%,74.901961%,76.862745%);fill-opacity:0.14902;stroke-width:1.066978;stroke-linecap:round;stroke-linejoin:round;stroke:rgb(0%,74.901961%,76.862745%);stroke-opacity:1;stroke-dasharray:2.133957,2.133957;stroke-miterlimit:10;" d="M 158.148438 111.457031 L 184.050781 106.800781 L 209.949219 102.136719 L 209.949219 145.011719 L 184.050781 132.824219 L 158.148438 151.625 Z M 158.148438 111.457031 "/>
<path style="fill:none;stroke-width:1.066978;stroke-linecap:round;stroke-linejoin:round;stroke:rgb(97.254902%,46.27451%,42.745098%);stroke-opacity:1;stroke-miterlimit:10;" d="M 233.261719 84.953125 L 233.261719 112.539062 Z M 233.261719 84.953125 "/>
<path style="fill:none;stroke-width:1.066978;stroke-linecap:round;stroke-linejoin:round;stroke:rgb(0%,74.901961%,76.862745%);stroke-opacity:1;stroke-dasharray:2.133957,2.133957;stroke-miterlimit:10;" d="M 235.851562 113.609375 L 235.851562 133.074219 Z M 235.851562 113.609375 "/>
<g style="fill:rgb(97.254902%,46.27451%,42.745098%);fill-opacity:1;">
  <use xlink:href="#glyph0-1" x="93.183594" y="61.261719"/>
  <use xlink:href="#glyph0-2" x="99.585938" y="61.261719"/>
  <use xlink:href="#glyph0-3" x="104.922852" y="61.261719"/>
  <use xlink:href="#glyph0-4" x="110.164062" y="61.261719"/>
  <use xlink:href="#glyph0-5" x="117.094727" y="61.261719"/>
  <use xlink:href="#glyph0-6" x="122.431641" y="61.261719"/>
  <use xlink:href="#glyph0-7" x="128.833984" y="61.261719"/>
  <use xlink:href="#glyph0-8" x="131.93457" y="61.261719"/>
  <use xlink:href="#glyph0-9" x="137.271484" y="61.261719"/>
  <use xlink:href="#glyph0-10" x="139.939453" y="61.261719"/>
  <use xlink:href="#glyph0-11" x="145.544922" y="61.261719"/>
</g>
<g style="fill:rgb(0%,74.901961%,76.862745%);fill-opacity:1;">
  <use xlink:href="#glyph0-1" x="93.183594" y="134.058594"/>
  <use xlink:href="#glyph0-2" x="99.585938" y="134.058594"/>
  <use xlink:href="#glyph0-3" x="104.922852" y="134.058594"/>
  <use xlink:href="#glyph0-4" x="110.164062" y="134.058594"/>
  <use xlink:href="#glyph0-5" x="117.094727" y="134.058594"/>
  <use xlink:href="#glyph0-6" x="122.431641" y="134.058594"/>
  <use xlink:href="#glyph0-7" x="128.833984" y="134.058594"/>
  <use xlink:href="#glyph0-8" x="131.93457" y="134.058594"/>
  <use xlink:href="#glyph0-9" x="137.271484" y="134.058594"/>
  <use xlink:href="#glyph0-10" x="139.939453" y="134.058594"/>
  <use xlink:href="#glyph0-12" x="145.544922" y="134.058594"/>
</g>
<path style="fill:none;stroke-width:1.066978;stroke-linecap:butt;stroke-linejoin:round;stroke:rgb(0%,74.901961%,76.862745%);stroke-opacity:1;stroke-dasharray:2.133957,2.133957;stroke-miterlimit:10;" d="M 235.203125 113.609375 L 236.496094 113.609375 "/>
<path style="fill:none;stroke-width:1.066978;stroke-linecap:butt;stroke-linejoin:round;stroke:rgb(0%,74.901961%,76.862745%);stroke-opacity:1;stroke-dasharray:2.133957,2.133957;stroke-miterlimit:10;" d="M 235.851562 113.609375 L 235.851562 133.074219 "/>
<path style="fill:none;stroke-width:1.066978;stroke-linecap:butt;stroke-linejoin:round;stroke:rgb(0%,74.901961%,76.862745%);stroke-opacity:1;stroke-dasharray:2.133957,2.133957;stroke-miterlimit:10;" d="M 235.203125 133.074219 L 236.496094 133.074219 "/>
<path style="fill:none;stroke-width:1.066978;stroke-linecap:butt;stroke-linejoin:round;stroke:rgb(97.254902%,46.27451%,42.745098%);stroke-opacity:1;stroke-miterlimit:10;" d="M 232.613281 84.953125 L 233.90625 84.953125 "/>
<path style="fill:none;stroke-width:1.066978;stroke-linecap:butt;stroke-linejoin:round;stroke:rgb(97.254902%,46.27451%,42.745098%);stroke-opacity:1;stroke-miterlimit:10;" d="M 233.261719 84.953125 L 233.261719 112.539062 "/>
<path style="fill:none;stroke-width:1.066978;stroke-linecap:butt;stroke-linejoin:round;stroke:rgb(97.254902%,46.27451%,42.745098%);stroke-opacity:1;stroke-miterlimit:10;" d="M 232.613281 112.539062 L 233.90625 112.539062 "/>
<g style="fill:rgb(0%,0%,0%);fill-opacity:1;">
  <use xlink:href="#glyph1-1" x="229.554688" y="58.748047"/>
  <use xlink:href="#glyph1-2" x="234.299805" y="58.748047"/>
</g>
<g style="fill:rgb(0%,0%,0%);fill-opacity:1;">
  <use xlink:href="#glyph1-3" x="221.054688" y="71.041016"/>
  <use xlink:href="#glyph1-4" x="225.799805" y="71.041016"/>
  <use xlink:href="#glyph1-5" x="230.544922" y="71.041016"/>
  <use xlink:href="#glyph1-6" x="232.917969" y="71.041016"/>
  <use xlink:href="#glyph1-6" x="237.663086" y="71.041016"/>
  <use xlink:href="#glyph1-7" x="242.408203" y="71.041016"/>
</g>
<g style="fill:rgb(0%,0%,0%);fill-opacity:1;">
  <use xlink:href="#glyph1-1" x="229.554688" y="58.748047"/>
  <use xlink:href="#glyph1-2" x="234.299805" y="58.748047"/>
</g>
<g style="fill:rgb(0%,0%,0%);fill-opacity:1;">
  <use xlink:href="#glyph1-3" x="221.054688" y="71.041016"/>
  <use xlink:href="#glyph1-4" x="225.799805" y="71.041016"/>
  <use xlink:href="#glyph1-5" x="230.544922" y="71.041016"/>
  <use xlink:href="#glyph1-6" x="232.917969" y="71.041016"/>
  <use xlink:href="#glyph1-6" x="237.663086" y="71.041016"/>
  <use xlink:href="#glyph1-7" x="242.408203" y="71.041016"/>
</g>
<g clip-path="url(#clip11)" clip-rule="nonzero">
<path style="fill:none;stroke-width:1.066978;stroke-linecap:round;stroke-linejoin:round;stroke:rgb(20%,20%,20%);stroke-opacity:1;stroke-miterlimit:10;" d="M 79.152344 157.6875 L 250.097656 157.6875 L 250.097656 24.246094 L 79.152344 24.246094 Z M 79.152344 157.6875 "/>
</g>
<g clip-path="url(#clip12)" clip-rule="nonzero">
<path style=" stroke:none;fill-rule:nonzero;fill:rgb(100%,100%,100%);fill-opacity:1;" d="M 255.574219 157.6875 L 426.519531 157.6875 L 426.519531 24.246094 L 255.574219 24.246094 Z M 255.574219 157.6875 "/>
</g>
<g clip-path="url(#clip13)" clip-rule="nonzero">
<path style="fill:none;stroke-width:0.533489;stroke-linecap:butt;stroke-linejoin:round;stroke:rgb(92.156863%,92.156863%,92.156863%);stroke-opacity:1;stroke-miterlimit:10;" d="M 255.574219 134.839844 L 426.519531 134.839844 "/>
</g>
<g clip-path="url(#clip14)" clip-rule="nonzero">
<path style="fill:none;stroke-width:0.533489;stroke-linecap:butt;stroke-linejoin:round;stroke:rgb(92.156863%,92.156863%,92.156863%);stroke-opacity:1;stroke-miterlimit:10;" d="M 255.574219 86.007812 L 426.519531 86.007812 "/>
</g>
<g clip-path="url(#clip15)" clip-rule="nonzero">
<path style="fill:none;stroke-width:0.533489;stroke-linecap:butt;stroke-linejoin:round;stroke:rgb(92.156863%,92.156863%,92.156863%);stroke-opacity:1;stroke-miterlimit:10;" d="M 255.574219 37.179688 L 426.519531 37.179688 "/>
</g>
<g clip-path="url(#clip16)" clip-rule="nonzero">
<path style="fill:none;stroke-width:1.066978;stroke-linecap:butt;stroke-linejoin:round;stroke:rgb(92.156863%,92.156863%,92.156863%);stroke-opacity:1;stroke-miterlimit:10;" d="M 255.574219 110.425781 L 426.519531 110.425781 "/>
</g>
<g clip-path="url(#clip17)" clip-rule="nonzero">
<path style="fill:none;stroke-width:1.066978;stroke-linecap:butt;stroke-linejoin:round;stroke:rgb(92.156863%,92.156863%,92.156863%);stroke-opacity:1;stroke-miterlimit:10;" d="M 255.574219 61.59375 L 426.519531 61.59375 "/>
</g>
<g clip-path="url(#clip18)" clip-rule="nonzero">
<path style="fill:none;stroke-width:1.066978;stroke-linecap:butt;stroke-linejoin:round;stroke:rgb(92.156863%,92.156863%,92.156863%);stroke-opacity:1;stroke-miterlimit:10;" d="M 333.277344 157.6875 L 333.277344 24.246094 "/>
</g>
<g clip-path="url(#clip19)" clip-rule="nonzero">
<path style="fill:none;stroke-width:1.066978;stroke-linecap:butt;stroke-linejoin:round;stroke:rgb(92.156863%,92.156863%,92.156863%);stroke-opacity:1;stroke-miterlimit:10;" d="M 359.179688 157.6875 L 359.179688 24.246094 "/>
</g>
<g clip-path="url(#clip20)" clip-rule="nonzero">
<path style="fill:none;stroke-width:1.066978;stroke-linecap:butt;stroke-linejoin:round;stroke:rgb(92.156863%,92.156863%,92.156863%);stroke-opacity:1;stroke-miterlimit:10;" d="M 385.078125 157.6875 L 385.078125 24.246094 "/>
</g>
<g clip-path="url(#clip21)" clip-rule="nonzero">
<path style="fill:none;stroke-width:1.066978;stroke-linecap:butt;stroke-linejoin:round;stroke:rgb(92.156863%,92.156863%,92.156863%);stroke-opacity:1;stroke-miterlimit:10;" d="M 410.980469 157.6875 L 410.980469 24.246094 "/>
</g>
<path style="fill:none;stroke-width:1.066978;stroke-linecap:butt;stroke-linejoin:round;stroke:rgb(97.254902%,46.27451%,42.745098%);stroke-opacity:1;stroke-miterlimit:10;" d="M 331.984375 93.324219 L 357.882812 119.09375 L 383.785156 125.890625 "/>
<path style="fill:none;stroke-width:1.066978;stroke-linecap:butt;stroke-linejoin:round;stroke:rgb(0%,74.901961%,76.862745%);stroke-opacity:1;stroke-dasharray:2.133957,2.133957;stroke-miterlimit:10;" d="M 334.574219 128.585938 L 360.472656 110.554688 L 386.375 122.652344 "/>
<path style=" stroke:none;fill-rule:nonzero;fill:rgb(0%,74.901961%,76.862745%);fill-opacity:1;" d="M 334.574219 125.542969 L 337.207031 130.105469 L 331.941406 130.105469 Z M 334.574219 125.542969 "/>
<path style=" stroke:none;fill-rule:nonzero;fill:rgb(97.254902%,46.27451%,42.745098%);fill-opacity:1;" d="M 333.9375 93.324219 C 333.9375 95.929688 330.027344 95.929688 330.027344 93.324219 C 330.027344 90.71875 333.9375 90.71875 333.9375 93.324219 "/>
<path style=" stroke:none;fill-rule:nonzero;fill:rgb(0%,74.901961%,76.862745%);fill-opacity:1;" d="M 360.472656 107.515625 L 363.105469 112.074219 L 357.839844 112.074219 Z M 360.472656 107.515625 "/>
<path style=" stroke:none;fill-rule:nonzero;fill:rgb(97.254902%,46.27451%,42.745098%);fill-opacity:1;" d="M 359.839844 119.09375 C 359.839844 121.703125 355.929688 121.703125 355.929688 119.09375 C 355.929688 116.488281 359.839844 116.488281 359.839844 119.09375 "/>
<path style=" stroke:none;fill-rule:nonzero;fill:rgb(0%,74.901961%,76.862745%);fill-opacity:1;" d="M 386.375 119.609375 L 389.007812 124.171875 L 383.742188 124.171875 Z M 386.375 119.609375 "/>
<path style=" stroke:none;fill-rule:nonzero;fill:rgb(97.254902%,46.27451%,42.745098%);fill-opacity:1;" d="M 385.738281 125.890625 C 385.738281 128.5 381.828125 128.5 381.828125 125.890625 C 381.828125 123.285156 385.738281 123.285156 385.738281 125.890625 "/>
<path style=" stroke:none;fill-rule:nonzero;fill:rgb(0%,74.901961%,76.862745%);fill-opacity:1;" d="M 412.273438 114.144531 L 414.90625 118.707031 L 409.640625 118.707031 Z M 412.273438 114.144531 "/>
<path style=" stroke:none;fill-rule:nonzero;fill:rgb(97.254902%,46.27451%,42.745098%);fill-opacity:1;" d="M 411.640625 114.332031 C 411.640625 116.9375 407.730469 116.9375 407.730469 114.332031 C 407.730469 111.722656 411.640625 111.722656 411.640625 114.332031 "/>
<path style="fill-rule:nonzero;fill:rgb(97.254902%,46.27451%,42.745098%);fill-opacity:0.14902;stroke-width:1.066978;stroke-linecap:round;stroke-linejoin:round;stroke:rgb(97.254902%,46.27451%,42.745098%);stroke-opacity:1;stroke-miterlimit:10;" d="M 331.984375 76.4375 L 357.882812 107.949219 L 383.785156 107.792969 L 383.785156 143.988281 L 357.882812 130.238281 L 331.984375 110.210938 Z M 331.984375 76.4375 "/>
<path style="fill-rule:nonzero;fill:rgb(0%,74.901961%,76.862745%);fill-opacity:0.14902;stroke-width:1.066978;stroke-linecap:round;stroke-linejoin:round;stroke:rgb(0%,74.901961%,76.862745%);stroke-opacity:1;stroke-dasharray:2.133957,2.133957;stroke-miterlimit:10;" d="M 334.574219 111.445312 L 360.472656 99.625 L 386.375 104.574219 L 386.375 140.730469 L 360.472656 121.484375 L 334.574219 145.726562 Z M 334.574219 111.445312 "/>
<path style="fill:none;stroke-width:1.066978;stroke-linecap:round;stroke-linejoin:round;stroke:rgb(97.254902%,46.27451%,42.745098%);stroke-opacity:1;stroke-miterlimit:10;" d="M 409.683594 106.054688 L 409.683594 122.605469 Z M 409.683594 106.054688 "/>
<path style="fill:none;stroke-width:1.066978;stroke-linecap:round;stroke-linejoin:round;stroke:rgb(0%,74.901961%,76.862745%);stroke-opacity:1;stroke-dasharray:2.133957,2.133957;stroke-miterlimit:10;" d="M 412.273438 108.972656 L 412.273438 125.394531 Z M 412.273438 108.972656 "/>
<g style="fill:rgb(97.254902%,46.27451%,42.745098%);fill-opacity:1;">
  <use xlink:href="#glyph0-1" x="269.609375" y="95.84375"/>
  <use xlink:href="#glyph0-2" x="276.011719" y="95.84375"/>
  <use xlink:href="#glyph0-3" x="281.348633" y="95.84375"/>
  <use xlink:href="#glyph0-4" x="286.589844" y="95.84375"/>
  <use xlink:href="#glyph0-5" x="293.520508" y="95.84375"/>
  <use xlink:href="#glyph0-6" x="298.857422" y="95.84375"/>
  <use xlink:href="#glyph0-7" x="305.259766" y="95.84375"/>
  <use xlink:href="#glyph0-8" x="308.360352" y="95.84375"/>
  <use xlink:href="#glyph0-9" x="313.697266" y="95.84375"/>
  <use xlink:href="#glyph0-10" x="316.365234" y="95.84375"/>
  <use xlink:href="#glyph0-11" x="321.970703" y="95.84375"/>
</g>
<g style="fill:rgb(0%,74.901961%,76.862745%);fill-opacity:1;">
  <use xlink:href="#glyph0-1" x="269.609375" y="131.105469"/>
  <use xlink:href="#glyph0-2" x="276.011719" y="131.105469"/>
  <use xlink:href="#glyph0-3" x="281.348633" y="131.105469"/>
  <use xlink:href="#glyph0-4" x="286.589844" y="131.105469"/>
  <use xlink:href="#glyph0-5" x="293.520508" y="131.105469"/>
  <use xlink:href="#glyph0-6" x="298.857422" y="131.105469"/>
  <use xlink:href="#glyph0-7" x="305.259766" y="131.105469"/>
  <use xlink:href="#glyph0-8" x="308.360352" y="131.105469"/>
  <use xlink:href="#glyph0-9" x="313.697266" y="131.105469"/>
  <use xlink:href="#glyph0-10" x="316.365234" y="131.105469"/>
  <use xlink:href="#glyph0-12" x="321.970703" y="131.105469"/>
</g>
<path style="fill:none;stroke-width:1.066978;stroke-linecap:butt;stroke-linejoin:round;stroke:rgb(0%,74.901961%,76.862745%);stroke-opacity:1;stroke-dasharray:2.133957,2.133957;stroke-miterlimit:10;" d="M 411.628906 108.972656 L 412.921875 108.972656 "/>
<path style="fill:none;stroke-width:1.066978;stroke-linecap:butt;stroke-linejoin:round;stroke:rgb(0%,74.901961%,76.862745%);stroke-opacity:1;stroke-dasharray:2.133957,2.133957;stroke-miterlimit:10;" d="M 412.273438 108.972656 L 412.273438 125.394531 "/>
<path style="fill:none;stroke-width:1.066978;stroke-linecap:butt;stroke-linejoin:round;stroke:rgb(0%,74.901961%,76.862745%);stroke-opacity:1;stroke-dasharray:2.133957,2.133957;stroke-miterlimit:10;" d="M 411.628906 125.394531 L 412.921875 125.394531 "/>
<path style="fill:none;stroke-width:1.066978;stroke-linecap:butt;stroke-linejoin:round;stroke:rgb(97.254902%,46.27451%,42.745098%);stroke-opacity:1;stroke-miterlimit:10;" d="M 409.039062 106.054688 L 410.332031 106.054688 "/>
<path style="fill:none;stroke-width:1.066978;stroke-linecap:butt;stroke-linejoin:round;stroke:rgb(97.254902%,46.27451%,42.745098%);stroke-opacity:1;stroke-miterlimit:10;" d="M 409.683594 106.054688 L 409.683594 122.605469 "/>
<path style="fill:none;stroke-width:1.066978;stroke-linecap:butt;stroke-linejoin:round;stroke:rgb(97.254902%,46.27451%,42.745098%);stroke-opacity:1;stroke-miterlimit:10;" d="M 409.039062 122.605469 L 410.332031 122.605469 "/>
<g style="fill:rgb(0%,0%,0%);fill-opacity:1;">
  <use xlink:href="#glyph1-1" x="405.980469" y="58.748047"/>
  <use xlink:href="#glyph1-2" x="410.725586" y="58.748047"/>
</g>
<g style="fill:rgb(0%,0%,0%);fill-opacity:1;">
  <use xlink:href="#glyph1-7" x="397.480469" y="71.041016"/>
  <use xlink:href="#glyph1-3" x="402.225586" y="71.041016"/>
  <use xlink:href="#glyph1-5" x="406.970703" y="71.041016"/>
  <use xlink:href="#glyph1-8" x="409.34375" y="71.041016"/>
  <use xlink:href="#glyph1-8" x="414.088867" y="71.041016"/>
  <use xlink:href="#glyph1-9" x="418.833984" y="71.041016"/>
</g>
<g style="fill:rgb(0%,0%,0%);fill-opacity:1;">
  <use xlink:href="#glyph1-1" x="405.980469" y="58.748047"/>
  <use xlink:href="#glyph1-2" x="410.725586" y="58.748047"/>
</g>
<g style="fill:rgb(0%,0%,0%);fill-opacity:1;">
  <use xlink:href="#glyph1-7" x="397.480469" y="71.041016"/>
  <use xlink:href="#glyph1-3" x="402.225586" y="71.041016"/>
  <use xlink:href="#glyph1-5" x="406.970703" y="71.041016"/>
  <use xlink:href="#glyph1-8" x="409.34375" y="71.041016"/>
  <use xlink:href="#glyph1-8" x="414.088867" y="71.041016"/>
  <use xlink:href="#glyph1-9" x="418.833984" y="71.041016"/>
</g>
<g clip-path="url(#clip22)" clip-rule="nonzero">
<path style="fill:none;stroke-width:1.066978;stroke-linecap:round;stroke-linejoin:round;stroke:rgb(20%,20%,20%);stroke-opacity:1;stroke-miterlimit:10;" d="M 255.574219 157.6875 L 426.519531 157.6875 L 426.519531 24.246094 L 255.574219 24.246094 Z M 255.574219 157.6875 "/>
</g>
<g clip-path="url(#clip23)" clip-rule="nonzero">
<path style="fill-rule:nonzero;fill:rgb(85.098039%,85.098039%,85.098039%);fill-opacity:1;stroke-width:1.066978;stroke-linecap:round;stroke-linejoin:round;stroke:rgb(20%,20%,20%);stroke-opacity:1;stroke-miterlimit:10;" d="M 79.152344 24.246094 L 250.097656 24.246094 L 250.097656 5.480469 L 79.152344 5.480469 Z M 79.152344 24.246094 "/>
</g>
<g style="fill:rgb(10.196078%,10.196078%,10.196078%);fill-opacity:1;">
  <use xlink:href="#glyph2-1" x="133.125" y="17.46582"/>
  <use xlink:href="#glyph2-2" x="138.994141" y="17.46582"/>
  <use xlink:href="#glyph2-3" x="146.324219" y="17.46582"/>
  <use xlink:href="#glyph2-4" x="151.216797" y="17.46582"/>
  <use xlink:href="#glyph2-5" x="153.169922" y="17.46582"/>
  <use xlink:href="#glyph2-6" x="158.0625" y="17.46582"/>
  <use xlink:href="#glyph2-7" x="162.955078" y="17.46582"/>
  <use xlink:href="#glyph2-6" x="167.847656" y="17.46582"/>
  <use xlink:href="#glyph2-8" x="172.740234" y="17.46582"/>
  <use xlink:href="#glyph2-9" x="177.140625" y="17.46582"/>
  <use xlink:href="#glyph2-1" x="179.586914" y="17.46582"/>
  <use xlink:href="#glyph2-10" x="185.456055" y="17.46582"/>
  <use xlink:href="#glyph2-2" x="188.386719" y="17.46582"/>
</g>
<g clip-path="url(#clip24)" clip-rule="nonzero">
<path style=" stroke:none;fill-rule:nonzero;fill:rgb(85.098039%,85.098039%,85.098039%);fill-opacity:1;" d="M 255.574219 24.246094 L 426.519531 24.246094 L 426.519531 5.480469 L 255.574219 5.480469 Z M 255.574219 24.246094 "/>
</g>
<g clip-path="url(#clip25)" clip-rule="nonzero">
<path style="fill:none;stroke-width:1.066978;stroke-linecap:round;stroke-linejoin:round;stroke:rgb(20%,20%,20%);stroke-opacity:1;stroke-miterlimit:10;" d="M 255.574219 24.246094 L 426.519531 24.246094 L 426.519531 5.480469 L 255.574219 5.480469 Z M 255.574219 24.246094 "/>
</g>
<g style="fill:rgb(10.196078%,10.196078%,10.196078%);fill-opacity:1;">
  <use xlink:href="#glyph2-11" x="317.546875" y="17.46582"/>
  <use xlink:href="#glyph2-12" x="323.416016" y="17.46582"/>
  <use xlink:href="#glyph2-13" x="327.816406" y="17.46582"/>
  <use xlink:href="#glyph2-14" x="332.708984" y="17.46582"/>
  <use xlink:href="#glyph2-4" x="334.662109" y="17.46582"/>
  <use xlink:href="#glyph2-15" x="336.615234" y="17.46582"/>
  <use xlink:href="#glyph2-4" x="341.015625" y="17.46582"/>
  <use xlink:href="#glyph2-16" x="342.96875" y="17.46582"/>
  <use xlink:href="#glyph2-9" x="345.415039" y="17.46582"/>
  <use xlink:href="#glyph2-1" x="347.861328" y="17.46582"/>
  <use xlink:href="#glyph2-10" x="353.730469" y="17.46582"/>
  <use xlink:href="#glyph2-2" x="356.661133" y="17.46582"/>
</g>
<path style="fill:none;stroke-width:1.066978;stroke-linecap:butt;stroke-linejoin:round;stroke:rgb(20%,20%,20%);stroke-opacity:1;stroke-miterlimit:10;" d="M 156.851562 160.429688 L 156.851562 157.6875 "/>
<path style="fill:none;stroke-width:1.066978;stroke-linecap:butt;stroke-linejoin:round;stroke:rgb(20%,20%,20%);stroke-opacity:1;stroke-miterlimit:10;" d="M 182.753906 160.429688 L 182.753906 157.6875 "/>
<path style="fill:none;stroke-width:1.066978;stroke-linecap:butt;stroke-linejoin:round;stroke:rgb(20%,20%,20%);stroke-opacity:1;stroke-miterlimit:10;" d="M 208.65625 160.429688 L 208.65625 157.6875 "/>
<path style="fill:none;stroke-width:1.066978;stroke-linecap:butt;stroke-linejoin:round;stroke:rgb(20%,20%,20%);stroke-opacity:1;stroke-miterlimit:10;" d="M 234.554688 160.429688 L 234.554688 157.6875 "/>
<g style="fill:rgb(30.196078%,30.196078%,30.196078%);fill-opacity:1;">
  <use xlink:href="#glyph3-1" x="130.45752" y="184.905305"/>
  <use xlink:href="#glyph3-2" x="134.694616" y="182.459016"/>
  <use xlink:href="#glyph3-3" x="138.855598" y="180.056673"/>
  <use xlink:href="#glyph3-4" x="144.357904" y="176.879915"/>
  <use xlink:href="#glyph3-5" x="146.476452" y="175.65677"/>
  <use xlink:href="#glyph3-6" x="151.13303" y="172.968294"/>
  <use xlink:href="#glyph3-7" x="152.824486" y="171.991731"/>
  <use xlink:href="#glyph3-8" x="157.061583" y="169.545442"/>
</g>
<g style="fill:rgb(30.196078%,30.196078%,30.196078%);fill-opacity:1;">
  <use xlink:href="#glyph3-9" x="143.371582" y="192.405305"/>
  <use xlink:href="#glyph3-7" x="149.719616" y="188.740266"/>
  <use xlink:href="#glyph3-10" x="153.956713" y="186.293977"/>
  <use xlink:href="#glyph3-6" x="158.19381" y="183.847688"/>
  <use xlink:href="#glyph3-11" x="159.885266" y="182.871126"/>
  <use xlink:href="#glyph3-12" x="164.122363" y="180.424837"/>
  <use xlink:href="#glyph3-4" x="170.470396" y="176.759798"/>
  <use xlink:href="#glyph3-5" x="172.588945" y="175.536653"/>
  <use xlink:href="#glyph3-6" x="177.245523" y="172.848177"/>
  <use xlink:href="#glyph3-7" x="178.936979" y="171.871614"/>
  <use xlink:href="#glyph3-8" x="183.174076" y="169.425325"/>
</g>
<g style="fill:rgb(30.196078%,30.196078%,30.196078%);fill-opacity:1;">
  <use xlink:href="#glyph3-13" x="180.531738" y="185.905305"/>
  <use xlink:href="#glyph3-6" x="186.034044" y="182.728548"/>
  <use xlink:href="#glyph3-14" x="187.7255" y="181.751985"/>
  <use xlink:href="#glyph3-15" x="191.962597" y="179.305696"/>
  <use xlink:href="#glyph3-4" x="196.199694" y="176.859407"/>
  <use xlink:href="#glyph3-5" x="198.318242" y="175.636263"/>
  <use xlink:href="#glyph3-6" x="202.97482" y="172.947786"/>
  <use xlink:href="#glyph3-7" x="204.666276" y="171.971223"/>
  <use xlink:href="#glyph3-8" x="208.903373" y="169.524934"/>
</g>
<g style="fill:rgb(30.196078%,30.196078%,30.196078%);fill-opacity:1;">
  <use xlink:href="#glyph3-16" x="213.355957" y="181.905305"/>
  <use xlink:href="#glyph3-2" x="218.248493" y="179.080598"/>
  <use xlink:href="#glyph3-2" x="222.48559" y="176.634309"/>
  <use xlink:href="#glyph3-17" x="226.722687" y="174.18802"/>
  <use xlink:href="#glyph3-7" x="228.414143" y="173.211458"/>
  <use xlink:href="#glyph3-10" x="232.65124" y="170.765169"/>
</g>
<path style="fill:none;stroke-width:1.066978;stroke-linecap:butt;stroke-linejoin:round;stroke:rgb(20%,20%,20%);stroke-opacity:1;stroke-miterlimit:10;" d="M 333.277344 160.429688 L 333.277344 157.6875 "/>
<path style="fill:none;stroke-width:1.066978;stroke-linecap:butt;stroke-linejoin:round;stroke:rgb(20%,20%,20%);stroke-opacity:1;stroke-miterlimit:10;" d="M 359.179688 160.429688 L 359.179688 157.6875 "/>
<path style="fill:none;stroke-width:1.066978;stroke-linecap:butt;stroke-linejoin:round;stroke:rgb(20%,20%,20%);stroke-opacity:1;stroke-miterlimit:10;" d="M 385.078125 160.429688 L 385.078125 157.6875 "/>
<path style="fill:none;stroke-width:1.066978;stroke-linecap:butt;stroke-linejoin:round;stroke:rgb(20%,20%,20%);stroke-opacity:1;stroke-miterlimit:10;" d="M 410.980469 160.429688 L 410.980469 157.6875 "/>
<g style="fill:rgb(30.196078%,30.196078%,30.196078%);fill-opacity:1;">
  <use xlink:href="#glyph3-1" x="306.883301" y="184.905305"/>
  <use xlink:href="#glyph3-2" x="311.120398" y="182.459016"/>
  <use xlink:href="#glyph3-3" x="315.281379" y="180.056673"/>
  <use xlink:href="#glyph3-4" x="320.783685" y="176.879915"/>
  <use xlink:href="#glyph3-5" x="322.902234" y="175.65677"/>
  <use xlink:href="#glyph3-6" x="327.558812" y="172.968294"/>
  <use xlink:href="#glyph3-7" x="329.250267" y="171.991731"/>
  <use xlink:href="#glyph3-8" x="333.487364" y="169.545442"/>
</g>
<g style="fill:rgb(30.196078%,30.196078%,30.196078%);fill-opacity:1;">
  <use xlink:href="#glyph3-9" x="319.797363" y="192.405305"/>
  <use xlink:href="#glyph3-7" x="326.145397" y="188.740266"/>
  <use xlink:href="#glyph3-10" x="330.382494" y="186.293977"/>
  <use xlink:href="#glyph3-6" x="334.619591" y="183.847688"/>
  <use xlink:href="#glyph3-11" x="336.311047" y="182.871126"/>
  <use xlink:href="#glyph3-12" x="340.548144" y="180.424837"/>
  <use xlink:href="#glyph3-4" x="346.896178" y="176.759798"/>
  <use xlink:href="#glyph3-5" x="349.014726" y="175.536653"/>
  <use xlink:href="#glyph3-6" x="353.671304" y="172.848177"/>
  <use xlink:href="#glyph3-7" x="355.36276" y="171.871614"/>
  <use xlink:href="#glyph3-8" x="359.599857" y="169.425325"/>
</g>
<g style="fill:rgb(30.196078%,30.196078%,30.196078%);fill-opacity:1;">
  <use xlink:href="#glyph3-13" x="356.953613" y="185.905305"/>
  <use xlink:href="#glyph3-6" x="362.455919" y="182.728548"/>
  <use xlink:href="#glyph3-14" x="364.147375" y="181.751985"/>
  <use xlink:href="#glyph3-15" x="368.384472" y="179.305696"/>
  <use xlink:href="#glyph3-4" x="372.621569" y="176.859407"/>
  <use xlink:href="#glyph3-5" x="374.740117" y="175.636263"/>
  <use xlink:href="#glyph3-6" x="379.396695" y="172.947786"/>
  <use xlink:href="#glyph3-7" x="381.088151" y="171.971223"/>
  <use xlink:href="#glyph3-8" x="385.325248" y="169.524934"/>
</g>
<g style="fill:rgb(30.196078%,30.196078%,30.196078%);fill-opacity:1;">
  <use xlink:href="#glyph3-16" x="389.781738" y="181.905305"/>
  <use xlink:href="#glyph3-2" x="394.674274" y="179.080598"/>
  <use xlink:href="#glyph3-2" x="398.911371" y="176.634309"/>
  <use xlink:href="#glyph3-17" x="403.148468" y="174.18802"/>
  <use xlink:href="#glyph3-7" x="404.839924" y="173.211458"/>
  <use xlink:href="#glyph3-10" x="409.077021" y="170.765169"/>
</g>
<g style="fill:rgb(30.196078%,30.196078%,30.196078%);fill-opacity:1;">
  <use xlink:href="#glyph2-17" x="61.21875" y="113.02832"/>
  <use xlink:href="#glyph2-18" x="66.111328" y="113.02832"/>
  <use xlink:href="#glyph2-19" x="68.557617" y="113.02832"/>
</g>
<g style="fill:rgb(30.196078%,30.196078%,30.196078%);fill-opacity:1;">
  <use xlink:href="#glyph2-20" x="61.21875" y="64.196289"/>
  <use xlink:href="#glyph2-18" x="66.111328" y="64.196289"/>
  <use xlink:href="#glyph2-21" x="68.557617" y="64.196289"/>
</g>
<path style="fill:none;stroke-width:1.066978;stroke-linecap:butt;stroke-linejoin:round;stroke:rgb(20%,20%,20%);stroke-opacity:1;stroke-miterlimit:10;" d="M 76.410156 110.425781 L 79.152344 110.425781 "/>
<path style="fill:none;stroke-width:1.066978;stroke-linecap:butt;stroke-linejoin:round;stroke:rgb(20%,20%,20%);stroke-opacity:1;stroke-miterlimit:10;" d="M 76.410156 61.59375 L 79.152344 61.59375 "/>
<g style="fill:rgb(0%,0%,0%);fill-opacity:1;">
  <use xlink:href="#glyph4-1" x="180.335938" y="207.147461"/>
  <use xlink:href="#glyph4-2" x="187.672852" y="207.147461"/>
  <use xlink:href="#glyph4-3" x="196.890625" y="207.147461"/>
  <use xlink:href="#glyph4-4" x="203.006836" y="207.147461"/>
  <use xlink:href="#glyph4-5" x="205.449219" y="207.147461"/>
  <use xlink:href="#glyph4-6" x="211.345703" y="207.147461"/>
  <use xlink:href="#glyph4-7" x="216.570312" y="207.147461"/>
  <use xlink:href="#glyph4-8" x="222.686523" y="207.147461"/>
  <use xlink:href="#glyph4-9" x="226.349609" y="207.147461"/>
  <use xlink:href="#glyph4-10" x="229.407227" y="207.147461"/>
  <use xlink:href="#glyph4-7" x="234.6875" y="207.147461"/>
  <use xlink:href="#glyph4-8" x="240.803711" y="207.147461"/>
  <use xlink:href="#glyph4-11" x="244.796875" y="207.147461"/>
  <use xlink:href="#glyph4-12" x="247.854492" y="207.147461"/>
  <use xlink:href="#glyph4-13" x="250.296875" y="207.147461"/>
  <use xlink:href="#glyph4-14" x="255.796875" y="207.147461"/>
  <use xlink:href="#glyph4-4" x="261.913086" y="207.147461"/>
  <use xlink:href="#glyph4-9" x="264.355469" y="207.147461"/>
  <use xlink:href="#glyph4-3" x="267.413086" y="207.147461"/>
  <use xlink:href="#glyph4-8" x="273.529297" y="207.147461"/>
  <use xlink:href="#glyph4-7" x="277.082031" y="207.147461"/>
  <use xlink:href="#glyph4-15" x="283.198242" y="207.147461"/>
  <use xlink:href="#glyph4-7" x="286.09082" y="207.147461"/>
  <use xlink:href="#glyph4-8" x="292.207031" y="207.147461"/>
  <use xlink:href="#glyph4-7" x="295.759766" y="207.147461"/>
  <use xlink:href="#glyph4-16" x="301.875977" y="207.147461"/>
  <use xlink:href="#glyph4-13" x="307.992188" y="207.147461"/>
  <use xlink:href="#glyph4-7" x="313.492188" y="207.147461"/>
  <use xlink:href="#glyph4-17" x="319.608398" y="207.147461"/>
</g>
<g style="fill:rgb(0%,0%,0%);fill-opacity:1;">
  <use xlink:href="#glyph4-18" x="22.480469" y="32.874023"/>
  <use xlink:href="#glyph4-5" x="28.59668" y="32.874023"/>
  <use xlink:href="#glyph4-19" x="34.712891" y="32.874023"/>
</g>
<g style="fill:rgb(0%,0%,0%);fill-opacity:1;">
  <use xlink:href="#glyph4-14" x="5.480469" y="44.75293"/>
  <use xlink:href="#glyph4-3" x="11.59668" y="44.75293"/>
  <use xlink:href="#glyph4-3" x="17.712891" y="44.75293"/>
  <use xlink:href="#glyph4-4" x="23.829102" y="44.75293"/>
  <use xlink:href="#glyph4-12" x="26.271484" y="44.75293"/>
  <use xlink:href="#glyph4-13" x="28.713867" y="44.75293"/>
  <use xlink:href="#glyph4-14" x="34.213867" y="44.75293"/>
  <use xlink:href="#glyph4-11" x="40.330078" y="44.75293"/>
  <use xlink:href="#glyph4-12" x="43.387695" y="44.75293"/>
  <use xlink:href="#glyph4-5" x="45.830078" y="44.75293"/>
  <use xlink:href="#glyph4-16" x="51.946289" y="44.75293"/>
</g>
<g style="fill:rgb(0%,0%,0%);fill-opacity:1;">
  <use xlink:href="#glyph4-13" x="18.480469" y="56.635742"/>
  <use xlink:href="#glyph4-5" x="23.980469" y="56.635742"/>
  <use xlink:href="#glyph4-20" x="30.09668" y="56.635742"/>
  <use xlink:href="#glyph4-16" x="36.212891" y="56.635742"/>
  <use xlink:href="#glyph4-11" x="42.329102" y="56.635742"/>
</g>
</g>
</svg>
